<?xml version="1.0" encoding="utf-8"?>
<svg id="master-artboard" viewBox="0 0 2850 2005.158" version="1.1" xmlns="http://www.w3.org/2000/svg" x="0px" y="0px" width="2850px" height="2005.157958984375px" enable-background="new 0 0 2850 2005.158" xmlns:xlink="http://www.w3.org/1999/xlink">
<defs>
		<path d="M 0 0 H 2850 V 2005.157959 H 0 V 0 Z" id="SVGID_1_"/>
	</defs><clipPath id="SVGID_2_">
		<use overflow="visible" xlink:href="#SVGID_1_"/>
	</clipPath><linearGradient id="SVGID_3_" gradientUnits="userSpaceOnUse" x1="1424.9995" y1="86.9722" x2="1424.9995" y2="911.8071">
		<stop offset="0" style="stop-color:#5D2C80"/>
		<stop offset="0.4695" style="stop-color:#EB3D94"/>
		<stop offset="1" style="stop-color:#FB9764"/>
	</linearGradient><path d="M 0 0 H 2850 V 2005.157959 H 0 V 0 Z" clip-path="url(#SVGID_2_)" fill="url(#SVGID_3_)" transform="matrix(1, 0, 0, 1, 2.842170943040401e-14, 7.105427357601002e-15)"/><path opacity="0.4" clip-path="url(#SVGID_2_)" fill="#FFBC58" d="M1495.618,704.709c0,209.07-168.639,378.577-376.659,378.577&#10;&#9;&#9;c-208.02,0-376.65-169.507-376.65-378.577c0-209.062,168.631-378.568,376.65-378.568&#10;&#9;&#9;C1326.979,326.141,1495.618,495.647,1495.618,704.709z" transform="matrix(1, 0, 0, 1, 2.842170943040401e-14, 7.105427357601002e-15)"/><path d="M 2847.712890625 1287.6190185546875 L 2847.712890625 836.0079956054688 L 2816.35107421875 817.7410278320312 L 2621.98193359375 851.6939697265625 L 2536.94189453125 806.4180297851562 L 2342.592041015625 795.1190185546875 L 2160.3759765625 636.7119750976562 L 2038.9029541015625 636.7119750976562 L 1978.176025390625 580.1370239257812 L 1775.8890380859375 476.49700927734375 L 1382.927001953125 738.5449829101562 L 1295.35205078125 686.0089721679688 L 1182.4129638671875 803.7540283203125 L 1040.114990234375 870.3930053710938 L 886.0059814453125 771.7160034179688 L 822.3870239257812 837.9219970703125 L 669.9580078125 631.9910278320312 L 532.6069946289062 677.1500244140625 L 411.1189880371094 614.0819702148438 L 230.55099487304688 749.8599853515625 L 0 909.8410034179688 L 0 1287.6190185546875 Z" clip-path="url(#SVGID_2_)" fill="#472462" transform="matrix(1, 0, 0, 1, 2.842170943040401e-14, 7.105427357601002e-15)"/><path clip-path="url(#SVGID_2_)" fill="#FFD494" d="M1674.023,210.294c0,0,80.51-7.668,98.17-30.489&#10;&#9;&#9;c0,0,19.169-84.898,54.49-87.437c35.322-2.532,51.724,24.086,63.08,49.455c11.349,25.37-26.491,44.377,13.875,38.042&#10;&#9;&#9;c40.367-6.344,37.849-17.76,80.741,0c42.893,17.75,29.01,3.796,60.554,3.796c31.545,0,17.711,16.119,35.371,17.384&#10;&#9;&#9;c17.67,1.274,56.728,9.258,56.728,9.258L1674.023,210.294z" transform="matrix(1, 0, 0, 1, 2.842170943040401e-14, 7.105427357601002e-15)"/><path opacity="0.3" clip-path="url(#SVGID_2_)" fill="#FFD494" d="M699.921,249.227c0,0,80.501-7.668,98.162-30.49&#10;&#9;&#9;c0,0,19.167-84.898,54.489-87.438c35.322-2.532,51.724,24.087,63.089,49.456c11.349,25.369-26.491,44.376,13.867,38.041&#10;&#9;&#9;c40.375-6.344,37.857-17.759,80.75,0c42.893,17.751,29.01,3.797,60.554,3.797s17.711,16.119,35.371,17.383&#10;&#9;&#9;c17.661,1.274,56.727,9.259,56.727,9.259L699.921,249.227z" transform="matrix(1, 0, 0, 1, 2.842170943040401e-14, 7.105427357601002e-15)"/><path clip-path="url(#SVGID_2_)" fill="#FFD494" d="M1786.855,403.03c0,0-104.854-9.991-127.85-39.714&#10;&#9;&#9;c0,0-24.967-110.559-70.958-113.864c-45.991-3.297-67.363,31.372-82.158,64.408c-14.778,33.038,34.51,57.79-18.058,49.539&#10;&#9;&#9;c-52.568-8.268-49.289-23.129-105.154,0c-55.857,23.112-37.773,4.946-78.86,4.946c-41.071,0-23.062,20.989-46.058,22.638&#10;&#9;&#9;c-23.012,1.657-73.874,12.056-73.874,12.056L1786.855,403.03z" transform="matrix(1, 0, 0, 1, 2.842170943040401e-14, 7.105427357601002e-15)"/><path clip-path="url(#SVGID_2_)" fill="#FFD494" d="M177.71,378.859c0,0,114.911-10.948,140.118-43.519&#10;&#9;&#9;c0,0,27.354-121.175,77.767-124.796c50.407-3.614,73.833,34.377,90.044,70.586c16.195,36.209-37.815,63.335,19.79,54.293&#10;&#9;&#9;c57.63-9.05,54.034-25.344,115.251,0c61.225,25.344,41.411,5.42,86.432,5.42s25.282,23.005,50.48,24.82&#10;&#9;&#9;c25.224,1.815,80.973,13.204,80.973,13.204L177.71,378.859z" transform="matrix(1, 0, 0, 1, 2.842170943040401e-14, 7.105427357601002e-15)"/><linearGradient id="SVGID_4_" gradientUnits="userSpaceOnUse" x1="1464.041" y1="686.6084" x2="1464.041" y2="1223.7444">
		<stop offset="0.0533" style="stop-color:#371D4F"/>
		<stop offset="0.2775" style="stop-color:#3D1E51"/>
		<stop offset="0.5634" style="stop-color:#4C2057"/>
		<stop offset="0.8815" style="stop-color:#662461"/>
		<stop offset="1" style="stop-color:#722665"/>
	</linearGradient><path d="M 1775.8890380859375 555.5419921875 L 1485.362060546875 778.260009765625 L 1441.1190185546875 810.6300048828125 L 1441.1190185546875 891.2249755859375 L 1329.8370361328125 763.3389892578125 L 1266.81494140625 957.2990112304688 L 1215.4310302734375 906.97802734375 L 1092.7740478515625 950.905029296875 L 943.344970703125 900.4000244140625 L 910.8569946289062 936.7000122070312 L 893.6190185546875 831.02099609375 L 779.8090209960938 950.905029296875 L 600.260009765625 796.177001953125 L 387.385986328125 755.9970092773438 L 140.77200317382812 967.9140014648438 L 260.83599853515625 1193.6949462890625 L 607.6909790039062 1218.14794921875 L 1224.8330078125 1258.4210205078125 L 1671.97802734375 1234.2669677734375 L 1945.114990234375 1200.0479736328125 L 2560.368896484375 1249.18701171875 L 2787.30908203125 1046.89404296875 L 2766.10302734375 912.655029296875 L 2475.577880859375 950.905029296875 L 2461.263916015625 882.0590209960938 L 2287.5380859375 882.0590209960938 L 2169.968017578125 793.2039794921875 L 2113.27392578125 706.1740112304688 L 2057.81396484375 810.6300048828125 L 2012.3790283203125 695.135009765625 L 1841.511962890625 595.041015625 L 1810.6209716796875 634.489013671875 Z" clip-path="url(#SVGID_2_)" fill="url(#SVGID_4_)" transform="matrix(1, 0, 0, 1, 2.842170943040401e-14, 7.105427357601002e-15)"/><g transform="matrix(1, 0, 0, 1, 5.684341886080802e-14, 1.4210854715202004e-14)">
			<linearGradient id="SVGID_5_" gradientUnits="userSpaceOnUse" x1="516.2759" y1="1087.3145" x2="516.2759" y2="1288.7992">
				<stop offset="0.0533" style="stop-color:#371D4F"/>
				<stop offset="0.2775" style="stop-color:#3D1E51"/>
				<stop offset="0.5634" style="stop-color:#4C2057"/>
				<stop offset="0.8815" style="stop-color:#662461"/>
				<stop offset="1" style="stop-color:#722665"/>
			</linearGradient>
			<path fill="url(#SVGID_5_)" d="M-192.281,1353.335c30.476-60.312,85.786-104.064,143.407-139.017&#10;&#9;&#9;&#9;&#9;c251.583-152.596,569.271-167.35,853.029-90.627c154.416,41.754,304.565,110.775,420.678,221.285"/>
		</g><linearGradient id="SVGID_6_" gradientUnits="userSpaceOnUse" x1="2069.042" y1="1087.3213" x2="2069.042" y2="1288.8025">
				<stop offset="0.0533" style="stop-color:#371D4F"/>
				<stop offset="0.2775" style="stop-color:#3D1E51"/>
				<stop offset="0.5634" style="stop-color:#4C2057"/>
				<stop offset="0.8815" style="stop-color:#662461"/>
				<stop offset="1" style="stop-color:#722665"/>
			</linearGradient><path fill="url(#SVGID_6_)" d="M958.272,1178.517c199.09,78.364,422.708,39.964,631.995-4.037&#10;&#9;&#9;&#9;&#9;c209.279-44.003,428.598-92.31,633.685-31.522c60.256,17.859,118.142,44.951,180.237,54.575&#10;&#9;&#9;&#9;&#9;c94.914,14.713,190.573-12.446,285.86-24.452c97.871-12.339,197.74-8.584,294.428,11.065&#10;&#9;&#9;&#9;&#9;c84.328,17.135,173.284,52.004,215.606,127.294c4.641,8.251,8.705,18.108,5.343,26.967&#10;&#9;&#9;&#9;&#9;c-3.916,10.325-15.913,14.554-26.514,17.485c-499.79,138.309-1026.076,145.652-1543.839,120.109&#10;&#9;&#9;&#9;&#9;c-176.518-8.709-353.457-21.216-526.685-56.384c-45.635-9.275-92.612-20.882-129.06-49.988&#10;&#9;&#9;&#9;&#9;c-36.44-29.107-59.328-80.485-42.023-123.923" transform="matrix(1, 0, 0, 1, 8.526512829121202e-14, 2.1316282072803006e-14)"/><linearGradient id="SVGID_7_" gradientUnits="userSpaceOnUse" x1="779.8091" y1="1087.3154" x2="779.8091" y2="1288.8016">
			<stop offset="0.0533" style="stop-color:#371D4F"/>
			<stop offset="0.2775" style="stop-color:#3D1E51"/>
			<stop offset="0.5634" style="stop-color:#4C2057"/>
			<stop offset="0.8815" style="stop-color:#662461"/>
			<stop offset="1" style="stop-color:#722665"/>
		</linearGradient><path d="M 746.177002 1119.286987 L 779.080017 991.401001 L 813.440002 1126.265015" fill="url(#SVGID_7_)" transform="matrix(1, 0, 0, 1, 5.684341886080802e-14, 1.4210854715202004e-14)"/><linearGradient id="SVGID_8_" gradientUnits="userSpaceOnUse" x1="847.0723" y1="1087.3154" x2="847.0723" y2="1288.7981">
			<stop offset="0.0533" style="stop-color:#371D4F"/>
			<stop offset="0.2775" style="stop-color:#3D1E51"/>
			<stop offset="0.5634" style="stop-color:#4C2057"/>
			<stop offset="0.8815" style="stop-color:#662461"/>
			<stop offset="1" style="stop-color:#722665"/>
		</linearGradient><path d="M 813.440002 1163.22998 L 846.343018 1035.345947 L 880.703979 1170.207031" fill="url(#SVGID_8_)" transform="matrix(1, 0, 0, 1, 5.684341886080802e-14, 1.4210854715202004e-14)"/><linearGradient id="SVGID_9_" gradientUnits="userSpaceOnUse" x1="909.7134" y1="1087.3154" x2="909.7134" y2="1288.7996">
			<stop offset="0.0533" style="stop-color:#371D4F"/>
			<stop offset="0.2775" style="stop-color:#3D1E51"/>
			<stop offset="0.5634" style="stop-color:#4C2057"/>
			<stop offset="0.8815" style="stop-color:#662461"/>
			<stop offset="1" style="stop-color:#722665"/>
		</linearGradient><path d="M 876.08197 1193.069946 L 908.984009 1065.186035 L 943.344971 1200.047974" fill="url(#SVGID_9_)" transform="matrix(1, 0, 0, 1, 5.684341886080802e-14, 1.4210854715202004e-14)"/><linearGradient id="SVGID_10_" gradientUnits="userSpaceOnUse" x1="880.7041" y1="1087.3154" x2="880.7041" y2="1288.7996">
			<stop offset="0.0533" style="stop-color:#371D4F"/>
			<stop offset="0.2775" style="stop-color:#3D1E51"/>
			<stop offset="0.5634" style="stop-color:#4C2057"/>
			<stop offset="0.8815" style="stop-color:#662461"/>
			<stop offset="1" style="stop-color:#722665"/>
		</linearGradient><path d="M 847.072021 1193.069946 L 879.974976 1065.186035 L 914.335999 1200.047974" fill="url(#SVGID_10_)" transform="matrix(1, 0, 0, 1, 5.684341886080802e-14, 1.4210854715202004e-14)"/><linearGradient id="SVGID_11_" gradientUnits="userSpaceOnUse" x1="813.4409" y1="1087.3154" x2="813.4409" y2="1288.7996">
			<stop offset="0.0533" style="stop-color:#371D4F"/>
			<stop offset="0.2775" style="stop-color:#3D1E51"/>
			<stop offset="0.5634" style="stop-color:#4C2057"/>
			<stop offset="0.8815" style="stop-color:#662461"/>
			<stop offset="1" style="stop-color:#722665"/>
		</linearGradient><path d="M 779.809021 1174.777954 L 812.710999 1046.894043 L 847.072021 1181.755981" fill="url(#SVGID_11_)" transform="matrix(1, 0, 0, 1, 5.684341886080802e-14, 1.4210854715202004e-14)"/><linearGradient id="SVGID_12_" gradientUnits="userSpaceOnUse" x1="746.1772" y1="1087.3154" x2="746.1772" y2="1288.8016">
			<stop offset="0.0533" style="stop-color:#371D4F"/>
			<stop offset="0.2775" style="stop-color:#3D1E51"/>
			<stop offset="0.5634" style="stop-color:#4C2057"/>
			<stop offset="0.8815" style="stop-color:#662461"/>
			<stop offset="1" style="stop-color:#722665"/>
		</linearGradient><path d="M 712.544983 1119.286987 L 745.447998 991.401001 L 779.809021 1126.265015" fill="url(#SVGID_12_)" transform="matrix(1, 0, 0, 1, 5.684341886080802e-14, 1.4210854715202004e-14)"/><linearGradient id="SVGID_13_" gradientUnits="userSpaceOnUse" x1="695.2822" y1="1087.3154" x2="695.2822" y2="1288.7996">
			<stop offset="0.0533" style="stop-color:#371D4F"/>
			<stop offset="0.2775" style="stop-color:#3D1E51"/>
			<stop offset="0.5634" style="stop-color:#4C2057"/>
			<stop offset="0.8815" style="stop-color:#662461"/>
			<stop offset="1" style="stop-color:#722665"/>
		</linearGradient><path d="M 661.650024 1143.73999 L 694.554016 1015.854004 L 728.914001 1150.717041" fill="url(#SVGID_13_)" transform="matrix(1, 0, 0, 1, 5.684341886080802e-14, 1.4210854715202004e-14)"/><linearGradient id="SVGID_14_" gradientUnits="userSpaceOnUse" x1="566.6284" y1="1087.3154" x2="566.6284" y2="1288.801">
			<stop offset="0.0533" style="stop-color:#371D4F"/>
			<stop offset="0.2775" style="stop-color:#3D1E51"/>
			<stop offset="0.5634" style="stop-color:#4C2057"/>
			<stop offset="0.8815" style="stop-color:#662461"/>
			<stop offset="1" style="stop-color:#722665"/>
		</linearGradient><path d="M 532.997009 1095.800049 L 565.906982 967.914001 L 600.26001 1102.776001" fill="url(#SVGID_14_)" transform="matrix(1, 0, 0, 1, 5.684341886080802e-14, 1.4210854715202004e-14)"/><linearGradient id="SVGID_15_" gradientUnits="userSpaceOnUse" x1="508.1372" y1="1087.3154" x2="508.1372" y2="1288.8003">
			<stop offset="0.0533" style="stop-color:#371D4F"/>
			<stop offset="0.2775" style="stop-color:#3D1E51"/>
			<stop offset="0.5634" style="stop-color:#4C2057"/>
			<stop offset="0.8815" style="stop-color:#662461"/>
			<stop offset="1" style="stop-color:#722665"/>
		</linearGradient><path d="M 474.505005 1107.348022 L 507.40799 979.461975 L 541.768982 1114.323975" fill="url(#SVGID_15_)" transform="matrix(1, 0, 0, 1, 5.684341886080802e-14, 1.4210854715202004e-14)"/><linearGradient id="SVGID_16_" gradientUnits="userSpaceOnUse" x1="454.6499" y1="1087.3154" x2="454.6499" y2="1288.7981">
			<stop offset="0.0533" style="stop-color:#371D4F"/>
			<stop offset="0.2775" style="stop-color:#3D1E51"/>
			<stop offset="0.5634" style="stop-color:#4C2057"/>
			<stop offset="0.8815" style="stop-color:#662461"/>
			<stop offset="1" style="stop-color:#722665"/>
		</linearGradient><path d="M 421.018005 1138.853027 L 453.928986 1010.968018 L 488.281006 1145.828979" fill="url(#SVGID_16_)" transform="matrix(1, 0, 0, 1, 5.684341886080802e-14, 1.4210854715202004e-14)"/><linearGradient id="SVGID_17_" gradientUnits="userSpaceOnUse" x1="1339.9014" y1="1087.3154" x2="1339.9014" y2="1288.7996">
			<stop offset="0.0533" style="stop-color:#371D4F"/>
			<stop offset="0.2775" style="stop-color:#3D1E51"/>
			<stop offset="0.5634" style="stop-color:#4C2057"/>
			<stop offset="0.8815" style="stop-color:#662461"/>
			<stop offset="1" style="stop-color:#722665"/>
		</linearGradient><path d="M 1306.27002 1242.208984 L 1339.172974 1114.323975 L 1373.532959 1249.187012" fill="url(#SVGID_17_)" transform="matrix(1, 0, 0, 1, 5.684341886080802e-14, 1.4210854715202004e-14)"/><linearGradient id="SVGID_18_" gradientUnits="userSpaceOnUse" x1="1485.3623" y1="1087.3164" x2="1485.3623" y2="1288.7991">
			<stop offset="0.0533" style="stop-color:#371D4F"/>
			<stop offset="0.2775" style="stop-color:#3D1E51"/>
			<stop offset="0.5634" style="stop-color:#4C2057"/>
			<stop offset="0.8815" style="stop-color:#662461"/>
			<stop offset="1" style="stop-color:#722665"/>
		</linearGradient><path d="M 1518.994019 1261.125977 L 1484.642944 1126.265015 L 1451.72998 1254.147949" fill="url(#SVGID_18_)" transform="matrix(1, 0, 0, 1, 5.684341886080802e-14, 1.4210854715202004e-14)"/><linearGradient id="SVGID_19_" gradientUnits="userSpaceOnUse" x1="1382.9268" y1="1087.3154" x2="1382.9268" y2="1288.7996">
			<stop offset="0.0533" style="stop-color:#371D4F"/>
			<stop offset="0.2775" style="stop-color:#3D1E51"/>
			<stop offset="0.5634" style="stop-color:#4C2057"/>
			<stop offset="0.8815" style="stop-color:#662461"/>
			<stop offset="1" style="stop-color:#722665"/>
		</linearGradient><path d="M 1349.295044 1222.343994 L 1382.197998 1094.458984 L 1416.55896 1229.321045" fill="url(#SVGID_19_)" transform="matrix(1, 0, 0, 1, 5.684341886080802e-14, 1.4210854715202004e-14)"/><linearGradient id="SVGID_20_" gradientUnits="userSpaceOnUse" x1="1441.1191" y1="1087.3154" x2="1441.1191" y2="1288.7996">
			<stop offset="0.0533" style="stop-color:#371D4F"/>
			<stop offset="0.2775" style="stop-color:#3D1E51"/>
			<stop offset="0.5634" style="stop-color:#4C2057"/>
			<stop offset="0.8815" style="stop-color:#662461"/>
			<stop offset="1" style="stop-color:#722665"/>
		</linearGradient><path d="M 1407.488037 1230.661011 L 1440.399048 1102.776001 L 1474.750977 1237.639038" fill="url(#SVGID_20_)" transform="matrix(1, 0, 0, 1, 5.684341886080802e-14, 1.4210854715202004e-14)"/><linearGradient id="SVGID_21_" gradientUnits="userSpaceOnUse" x1="1533.4414" y1="1087.3154" x2="1533.4414" y2="1288.7996">
			<stop offset="0.0533" style="stop-color:#371D4F"/>
			<stop offset="0.2775" style="stop-color:#3D1E51"/>
			<stop offset="0.5634" style="stop-color:#4C2057"/>
			<stop offset="0.8815" style="stop-color:#662461"/>
			<stop offset="1" style="stop-color:#722665"/>
		</linearGradient><path d="M 1499.810059 1222.343994 L 1532.713013 1094.458984 L 1567.072998 1229.321045" fill="url(#SVGID_21_)" transform="matrix(1, 0, 0, 1, 5.684341886080802e-14, 1.4210854715202004e-14)"/><linearGradient id="SVGID_22_" gradientUnits="userSpaceOnUse" x1="1585.7441" y1="1087.3154" x2="1585.7441" y2="1288.801">
			<stop offset="0.0533" style="stop-color:#371D4F"/>
			<stop offset="0.2775" style="stop-color:#3D1E51"/>
			<stop offset="0.5634" style="stop-color:#4C2057"/>
			<stop offset="0.8815" style="stop-color:#662461"/>
			<stop offset="1" style="stop-color:#722665"/>
		</linearGradient><path d="M 1552.113037 1186.718018 L 1585.015991 1058.832031 L 1619.375977 1193.694946" fill="url(#SVGID_22_)" transform="matrix(1, 0, 0, 1, 5.684341886080802e-14, 1.4210854715202004e-14)"/><linearGradient id="SVGID_23_" gradientUnits="userSpaceOnUse" x1="1619.376" y1="1087.3154" x2="1619.376" y2="1288.7996">
			<stop offset="0.0533" style="stop-color:#371D4F"/>
			<stop offset="0.2775" style="stop-color:#3D1E51"/>
			<stop offset="0.5634" style="stop-color:#4C2057"/>
			<stop offset="0.8815" style="stop-color:#662461"/>
			<stop offset="1" style="stop-color:#722665"/>
		</linearGradient><path d="M 1585.744019 1211.171021 L 1618.646973 1083.286011 L 1653.008057 1218.147949" fill="url(#SVGID_23_)" transform="matrix(1, 0, 0, 1, 5.684341886080802e-14, 1.4210854715202004e-14)"/><linearGradient id="SVGID_24_" gradientUnits="userSpaceOnUse" x1="1705.6094" y1="1087.3154" x2="1705.6094" y2="1288.7996">
			<stop offset="0.0533" style="stop-color:#371D4F"/>
			<stop offset="0.2775" style="stop-color:#3D1E51"/>
			<stop offset="0.5634" style="stop-color:#4C2057"/>
			<stop offset="0.8815" style="stop-color:#662461"/>
			<stop offset="1" style="stop-color:#722665"/>
		</linearGradient><path d="M 1671.978027 1174.777954 L 1704.889038 1046.894043 L 1739.240967 1181.755981" fill="url(#SVGID_24_)" transform="matrix(1, 0, 0, 1, 5.684341886080802e-14, 1.4210854715202004e-14)"/><linearGradient id="SVGID_25_" gradientUnits="userSpaceOnUse" x1="1727.9756" y1="1087.3145" x2="1727.9756" y2="1288.8">
			<stop offset="0.0533" style="stop-color:#371D4F"/>
			<stop offset="0.2775" style="stop-color:#3D1E51"/>
			<stop offset="0.5634" style="stop-color:#4C2057"/>
			<stop offset="0.8815" style="stop-color:#662461"/>
			<stop offset="1" style="stop-color:#722665"/>
		</linearGradient><path d="M 1694.343994 1198.932007 L 1727.245972 1071.046021 L 1761.607056 1205.909058" fill="url(#SVGID_25_)" transform="matrix(1, 0, 0, 1, 5.684341886080802e-14, 1.4210854715202004e-14)"/><linearGradient id="SVGID_26_" gradientUnits="userSpaceOnUse" x1="1905.5273" y1="1087.3154" x2="1905.5273" y2="1288.8016">
			<stop offset="0.0533" style="stop-color:#371D4F"/>
			<stop offset="0.2775" style="stop-color:#3D1E51"/>
			<stop offset="0.5634" style="stop-color:#4C2057"/>
			<stop offset="0.8815" style="stop-color:#662461"/>
			<stop offset="1" style="stop-color:#722665"/>
		</linearGradient><path d="M 1871.895996 1131.500977 L 1904.79895 1003.61499 L 1939.159058 1138.479004" fill="url(#SVGID_26_)" transform="matrix(1, 0, 0, 1, 5.684341886080802e-14, 1.4210854715202004e-14)"/><linearGradient id="SVGID_27_" gradientUnits="userSpaceOnUse" x1="1939.1592" y1="1087.3154" x2="1939.1592" y2="1288.7996">
			<stop offset="0.0533" style="stop-color:#371D4F"/>
			<stop offset="0.2775" style="stop-color:#3D1E51"/>
			<stop offset="0.5634" style="stop-color:#4C2057"/>
			<stop offset="0.8815" style="stop-color:#662461"/>
			<stop offset="1" style="stop-color:#722665"/>
		</linearGradient><path d="M 1905.526978 1154.912964 L 1938.43103 1027.027954 L 1972.791016 1161.890991" fill="url(#SVGID_27_)" transform="matrix(1, 0, 0, 1, 5.684341886080802e-14, 1.4210854715202004e-14)"/><linearGradient id="SVGID_28_" gradientUnits="userSpaceOnUse" x1="1978.7471" y1="1087.3154" x2="1978.7471" y2="1288.7996">
			<stop offset="0.0533" style="stop-color:#371D4F"/>
			<stop offset="0.2775" style="stop-color:#3D1E51"/>
			<stop offset="0.5634" style="stop-color:#4C2057"/>
			<stop offset="0.8815" style="stop-color:#662461"/>
			<stop offset="1" style="stop-color:#722665"/>
		</linearGradient><path d="M 1945.11499 1143.73999 L 1978.026001 1015.854004 L 2012.379028 1150.717041" fill="url(#SVGID_28_)" transform="matrix(1, 0, 0, 1, 5.684341886080802e-14, 1.4210854715202004e-14)"/><linearGradient id="SVGID_29_" gradientUnits="userSpaceOnUse" x1="2012.3789" y1="1087.3154" x2="2012.3789" y2="1288.7996">
			<stop offset="0.0533" style="stop-color:#371D4F"/>
			<stop offset="0.2775" style="stop-color:#3D1E51"/>
			<stop offset="0.5634" style="stop-color:#4C2057"/>
			<stop offset="0.8815" style="stop-color:#662461"/>
			<stop offset="1" style="stop-color:#722665"/>
		</linearGradient><path d="M 1978.746948 1174.777954 L 2011.657959 1046.894043 L 2046.010986 1181.755981" fill="url(#SVGID_29_)" transform="matrix(1, 0, 0, 1, 5.684341886080802e-14, 1.4210854715202004e-14)"/><linearGradient id="SVGID_30_" gradientUnits="userSpaceOnUse" x1="2079.6426" y1="1087.3154" x2="2079.6426" y2="1288.7981">
			<stop offset="0.0533" style="stop-color:#371D4F"/>
			<stop offset="0.2775" style="stop-color:#3D1E51"/>
			<stop offset="0.5634" style="stop-color:#4C2057"/>
			<stop offset="0.8815" style="stop-color:#662461"/>
			<stop offset="1" style="stop-color:#722665"/>
		</linearGradient><path d="M 2046.010986 1138.853027 L 2078.922119 1010.968018 L 2113.273926 1145.828979" fill="url(#SVGID_30_)" transform="matrix(1, 0, 0, 1, 5.684341886080802e-14, 1.4210854715202004e-14)"/><linearGradient id="SVGID_31_" gradientUnits="userSpaceOnUse" x1="2287.5381" y1="1087.3154" x2="2287.5381" y2="1288.801">
			<stop offset="0.0533" style="stop-color:#371D4F"/>
			<stop offset="0.2775" style="stop-color:#3D1E51"/>
			<stop offset="0.5634" style="stop-color:#4C2057"/>
			<stop offset="0.8815" style="stop-color:#662461"/>
			<stop offset="1" style="stop-color:#722665"/>
		</linearGradient><path d="M 2253.906006 1186.718018 L 2286.816895 1058.832031 L 2321.169922 1193.694946" fill="url(#SVGID_31_)" transform="matrix(1, 0, 0, 1, 5.684341886080802e-14, 1.4210854715202004e-14)"/><linearGradient id="SVGID_32_" gradientUnits="userSpaceOnUse" x1="2321.1699" y1="1087.3154" x2="2321.1699" y2="1288.7996">
			<stop offset="0.0533" style="stop-color:#371D4F"/>
			<stop offset="0.2775" style="stop-color:#3D1E51"/>
			<stop offset="0.5634" style="stop-color:#4C2057"/>
			<stop offset="0.8815" style="stop-color:#662461"/>
			<stop offset="1" style="stop-color:#722665"/>
		</linearGradient><path d="M 2287.538086 1211.171021 L 2320.448975 1083.286011 L 2354.802002 1218.147949" fill="url(#SVGID_32_)" transform="matrix(1, 0, 0, 1, 5.684341886080802e-14, 1.4210854715202004e-14)"/><linearGradient id="SVGID_33_" gradientUnits="userSpaceOnUse" x1="2367.6738" y1="1087.3154" x2="2367.6738" y2="1288.801">
			<stop offset="0.0533" style="stop-color:#371D4F"/>
			<stop offset="0.2775" style="stop-color:#3D1E51"/>
			<stop offset="0.5634" style="stop-color:#4C2057"/>
			<stop offset="0.8815" style="stop-color:#662461"/>
			<stop offset="1" style="stop-color:#722665"/>
		</linearGradient><path d="M 2334.041992 1206.284058 L 2366.945068 1078.397949 L 2401.304932 1213.261963" fill="url(#SVGID_33_)" transform="matrix(1, 0, 0, 1, 5.684341886080802e-14, 1.4210854715202004e-14)"/><linearGradient id="SVGID_34_" gradientUnits="userSpaceOnUse" x1="2401.3057" y1="1087.3154" x2="2401.3057" y2="1288.7996">
			<stop offset="0.0533" style="stop-color:#371D4F"/>
			<stop offset="0.2775" style="stop-color:#3D1E51"/>
			<stop offset="0.5634" style="stop-color:#4C2057"/>
			<stop offset="0.8815" style="stop-color:#662461"/>
			<stop offset="1" style="stop-color:#722665"/>
		</linearGradient><path d="M 2367.674072 1230.661011 L 2400.576904 1102.776001 L 2434.937988 1237.639038" fill="url(#SVGID_34_)" transform="matrix(1, 0, 0, 1, 5.684341886080802e-14, 1.4210854715202004e-14)"/><linearGradient id="SVGID_35_" gradientUnits="userSpaceOnUse" x1="2427.6318" y1="1087.3154" x2="2427.6318" y2="1288.7996">
			<stop offset="0.0533" style="stop-color:#371D4F"/>
			<stop offset="0.2775" style="stop-color:#3D1E51"/>
			<stop offset="0.5634" style="stop-color:#4C2057"/>
			<stop offset="0.8815" style="stop-color:#662461"/>
			<stop offset="1" style="stop-color:#722665"/>
		</linearGradient><path d="M 2394 1211.171021 L 2426.9021 1083.286011 L 2461.263916 1218.147949" fill="url(#SVGID_35_)" transform="matrix(1, 0, 0, 1, 5.684341886080802e-14, 1.4210854715202004e-14)"/><linearGradient id="SVGID_36_" gradientUnits="userSpaceOnUse" x1="421.0181" y1="1087.3154" x2="421.0181" y2="1288.7996">
			<stop offset="0.0533" style="stop-color:#371D4F"/>
			<stop offset="0.2775" style="stop-color:#3D1E51"/>
			<stop offset="0.5634" style="stop-color:#4C2057"/>
			<stop offset="0.8815" style="stop-color:#662461"/>
			<stop offset="1" style="stop-color:#722665"/>
		</linearGradient><path d="M 387.385986 1154.912964 L 420.296997 1027.027954 L 454.649994 1161.890991" fill="url(#SVGID_36_)" transform="matrix(1, 0, 0, 1, 5.684341886080802e-14, 1.4210854715202004e-14)"/><linearGradient id="SVGID_37_" gradientUnits="userSpaceOnUse" x1="286.3584" y1="1087.3154" x2="286.3584" y2="1288.7981">
			<stop offset="0.0533" style="stop-color:#371D4F"/>
			<stop offset="0.2775" style="stop-color:#3D1E51"/>
			<stop offset="0.5634" style="stop-color:#4C2057"/>
			<stop offset="0.8815" style="stop-color:#662461"/>
			<stop offset="1" style="stop-color:#722665"/>
		</linearGradient><path d="M 252.727005 1138.853027 L 285.638 1010.968018 L 319.98999 1145.828979" fill="url(#SVGID_37_)" transform="matrix(1, 0, 0, 1, 5.684341886080802e-14, 1.4210854715202004e-14)"/><linearGradient id="SVGID_38_" gradientUnits="userSpaceOnUse" x1="319.9902" y1="1087.3154" x2="319.9902" y2="1288.801">
			<stop offset="0.0533" style="stop-color:#371D4F"/>
			<stop offset="0.2775" style="stop-color:#3D1E51"/>
			<stop offset="0.5634" style="stop-color:#4C2057"/>
			<stop offset="0.8815" style="stop-color:#662461"/>
			<stop offset="1" style="stop-color:#722665"/>
		</linearGradient><path d="M 286.358002 1155.904053 L 319.269989 1028.019043 L 353.622009 1162.881958" fill="url(#SVGID_38_)" transform="matrix(1, 0, 0, 1, 5.684341886080802e-14, 1.4210854715202004e-14)"/><linearGradient id="SVGID_39_" gradientUnits="userSpaceOnUse" x1="247.3501" y1="1087.3154" x2="247.3501" y2="1288.7996">
			<stop offset="0.0533" style="stop-color:#371D4F"/>
			<stop offset="0.2775" style="stop-color:#3D1E51"/>
			<stop offset="0.5634" style="stop-color:#4C2057"/>
			<stop offset="0.8815" style="stop-color:#662461"/>
			<stop offset="1" style="stop-color:#722665"/>
		</linearGradient><path d="M 213.718994 1154.912964 L 246.630005 1027.027954 L 280.981995 1161.890991" fill="url(#SVGID_39_)" transform="matrix(1, 0, 0, 1, 5.684341886080802e-14, 1.4210854715202004e-14)"/><linearGradient id="SVGID_40_" gradientUnits="userSpaceOnUse" x1="1134.106" y1="1087.3164" x2="1134.106" y2="1288.7987">
			<stop offset="0.0533" style="stop-color:#371D4F"/>
			<stop offset="0.2775" style="stop-color:#3D1E51"/>
			<stop offset="0.5634" style="stop-color:#4C2057"/>
			<stop offset="0.8815" style="stop-color:#662461"/>
			<stop offset="1" style="stop-color:#722665"/>
		</linearGradient><path d="M 1107.916992 1232.203003 L 1133.53894 1132.616943 L 1160.295044 1237.639038" fill="url(#SVGID_40_)" transform="matrix(1, 0, 0, 1, 5.684341886080802e-14, 1.4210854715202004e-14)"/><linearGradient id="SVGID_41_" gradientUnits="userSpaceOnUse" x1="1092.7744" y1="1087.3154" x2="1092.7744" y2="1288.7996">
			<stop offset="0.0533" style="stop-color:#371D4F"/>
			<stop offset="0.2775" style="stop-color:#3D1E51"/>
			<stop offset="0.5634" style="stop-color:#4C2057"/>
			<stop offset="0.8815" style="stop-color:#662461"/>
			<stop offset="1" style="stop-color:#722665"/>
		</linearGradient><path d="M 1066.589966 1228.829956 L 1092.21106 1129.244019 L 1118.958984 1234.266968" fill="url(#SVGID_41_)" transform="matrix(1, 0, 0, 1, 5.684341886080802e-14, 1.4210854715202004e-14)"/><linearGradient id="SVGID_42_" gradientUnits="userSpaceOnUse" x1="1051.4224" y1="1087.3145" x2="1051.4224" y2="1288.8005">
			<stop offset="0.0533" style="stop-color:#371D4F"/>
			<stop offset="0.2775" style="stop-color:#3D1E51"/>
			<stop offset="0.5634" style="stop-color:#4C2057"/>
			<stop offset="0.8815" style="stop-color:#662461"/>
			<stop offset="1" style="stop-color:#722665"/>
		</linearGradient><path d="M 1025.238037 1252.983032 L 1050.859009 1153.396973 L 1077.607056 1258.421021" fill="url(#SVGID_42_)" transform="matrix(1, 0, 0, 1, 5.684341886080802e-14, 1.4210854715202004e-14)"/><linearGradient id="SVGID_43_" gradientUnits="userSpaceOnUse" x1="1167.7339" y1="1087.3145" x2="1167.7339" y2="1288.8005">
			<stop offset="0.0533" style="stop-color:#371D4F"/>
			<stop offset="0.2775" style="stop-color:#3D1E51"/>
			<stop offset="0.5634" style="stop-color:#4C2057"/>
			<stop offset="0.8815" style="stop-color:#662461"/>
			<stop offset="1" style="stop-color:#722665"/>
		</linearGradient><path d="M 1141.541016 1252.983032 L 1167.170044 1153.396973 L 1193.927002 1258.421021" fill="url(#SVGID_43_)" transform="matrix(1, 0, 0, 1, 5.684341886080802e-14, 1.4210854715202004e-14)"/><linearGradient id="SVGID_44_" gradientUnits="userSpaceOnUse" x1="1424.9995" y1="1291.9316" x2="1424.9995" y2="2066.6118">
		<stop offset="0" style="stop-color:#EC548B"/>
		<stop offset="1" style="stop-color:#513472"/>
	</linearGradient><path d="M 0 1287.619019 H 2850 V 2005.15802 H 0 V 1287.619019 Z" clip-path="url(#SVGID_2_)" fill="url(#SVGID_44_)" transform="matrix(1, 0, 0, 1, 2.842170943040401e-14, 7.105427357601002e-15)"/><path d="M 2847.712890625 1287.6190185546875 L 2847.712890625 1440.8809814453125 L 2816.35107421875 1447.0760498046875 L 2621.98193359375 1435.56201171875 L 2536.94189453125 1450.9219970703125 L 2342.592041015625 1454.760986328125 L 2160.3759765625 1508.52099609375 L 2038.89599609375 1508.52099609375 L 1837.27099609375 1580.406005859375 L 1585.7440185546875 1466.509033203125 L 1382.927001953125 1473.9599609375 L 1295.35205078125 1491.7860107421875 L 1182.4129638671875 1451.8299560546875 L 1040.114990234375 1429.208984375 L 886.0059814453125 1462.7039794921875 L 822.3870239257812 1440.23095703125 L 593.343017578125 1527.720947265625 L 532.6069946289062 1494.800048828125 L 411.1189880371094 1516.197021484375 L 230.55099487304688 1470.1209716796875 L 0 1415.821044921875 L 0 1287.6190185546875 Z" opacity="0.6" clip-path="url(#SVGID_2_)" fill="#472462" transform="matrix(1, 0, 0, 1, 2.842170943040401e-14, 7.105427357601002e-15)"/><path fill="#FFD494" d="M1532.447,1500.137c-3.445-1.916-8.275-4.646-12.21-4.746c-18.787-0.999-37.807,2.665-54.888,10.599&#10;&#9;&#9;&#9;c-0.828,0.392-1.79,0.983-1.765,1.907c0.024,1.016,1.192,1.532,2.162,1.807c15.35,4.271,31.387,6.02,47.292,5.162&#10;&#9;&#9;&#9;c7.289-0.392,15.01-1.523,20.602-6.244c1.226-1.033,2.386-2.39,2.386-3.996C1536.018,1502.61,1534.203,1501.103,1532.447,1500.137&#10;&#9;&#9;&#9;z" transform="matrix(1, 0, 0, 1, 5.684341886080802e-14, 1.4210854715202004e-14)"/><path fill="#FFD494" d="M1745.057,1688.134c-3.455-1.915-8.284-4.646-12.219-4.744c-18.787-1-37.798,2.664-54.879,10.598&#10;&#9;&#9;&#9;c-0.829,0.392-1.79,0.983-1.773,1.907c0.033,1.016,1.193,1.531,2.171,1.807c15.341,4.271,31.378,6.02,47.282,5.162&#10;&#9;&#9;&#9;c7.29-0.392,15.011-1.523,20.61-6.245c1.227-1.032,2.386-2.39,2.386-3.996C1748.619,1690.607,1746.812,1689.101,1745.057,1688.134&#10;&#9;&#9;&#9;z" transform="matrix(1, 0, 0, 1, 5.684341886080802e-14, 1.4210854715202004e-14)"/><path fill="#FFD494" d="M1420.369,1442.58c-0.563-0.866-1.656-1.19-2.667-1.424c-5.534-1.216-8.88-0.492-14.927-0.633l0.894,0.033&#10;&#9;&#9;&#9;c-6.809-0.325-13.668,0.233-20.345,1.656c-2.708,0.583-5.823,1.699-6.593,4.372c-1.16,3.996,3.744,6.951,7.803,7.743&#10;&#9;&#9;&#9;c11.381,2.197,23.575-0.192,33.301-6.528C1419.641,1446.618,1421.562,1444.387,1420.369,1442.58z" transform="matrix(1, 0, 0, 1, 5.684341886080802e-14, 1.4210854715202004e-14)"/><g opacity="0.42" transform="matrix(1, 0, 0, 1, 5.684341886080802e-14, 1.4210854715202004e-14)">
			<path fill="#FFFFFF" d="M743.112,1363.788H639.815c-1.351,0-2.436-1.1-2.436-2.451c0-1.354,1.085-2.452,2.436-2.452h103.297&#10;&#9;&#9;&#9;&#9;c1.351,0,2.436,1.099,2.436,2.452C745.547,1362.688,744.462,1363.788,743.112,1363.788z"/>
		</g><path fill="#FFFFFF" d="M1272.605,1363.788H881.4c-1.35,0-2.436-1.1-2.436-2.451c0-1.354,1.085-2.452,2.436-2.452h391.205&#10;&#9;&#9;&#9;&#9;c1.35,0,2.436,1.099,2.436,2.452C1275.041,1362.688,1273.955,1363.788,1272.605,1363.788z" transform="matrix(1, 0, 0, 1, 8.526512829121202e-14, 2.1316282072803006e-14)"/><path fill="#FFFFFF" d="M1588.105,1363.788h-137.849c-1.351,0-2.436-1.1-2.436-2.451c0-1.354,1.085-2.452,2.436-2.452h137.849&#10;&#9;&#9;&#9;&#9;c1.351,0,2.436,1.099,2.436,2.452C1590.541,1362.688,1589.456,1363.788,1588.105,1363.788z" transform="matrix(1, 0, 0, 1, 8.526512829121202e-14, 2.1316282072803006e-14)"/><path fill="#FFFFFF" d="M2033.76,1363.788h-239.217c-1.351,0-2.436-1.1-2.436-2.451c0-1.354,1.085-2.452,2.436-2.452h239.217&#10;&#9;&#9;&#9;&#9;c1.35,0,2.435,1.099,2.435,2.452C2036.194,1362.688,2035.109,1363.788,2033.76,1363.788z" transform="matrix(1, 0, 0, 1, 8.526512829121202e-14, 2.1316282072803006e-14)"/><path fill="#FFFFFF" d="M2441.68,1363.788h-150.464c-1.351,0-2.435-1.1-2.435-2.451c0-1.354,1.084-2.452,2.435-2.452h150.464&#10;&#9;&#9;&#9;&#9;c1.351,0,2.438,1.099,2.438,2.452C2444.117,1362.688,2443.03,1363.788,2441.68,1363.788z" transform="matrix(1, 0, 0, 1, 8.526512829121202e-14, 2.1316282072803006e-14)"/><path fill="#FFFFFF" d="M2586.447,1363.788h-47.035c-1.351,0-2.436-1.1-2.436-2.451c0-1.354,1.085-2.452,2.436-2.452h47.035&#10;&#9;&#9;&#9;&#9;c1.35,0,2.434,1.099,2.434,2.452C2588.881,1362.688,2587.797,1363.788,2586.447,1363.788z" transform="matrix(1, 0, 0, 1, 8.526512829121202e-14, 2.1316282072803006e-14)"/><path fill="#FFFFFF" d="M241.253,1363.788h-47.042c-1.351,0-2.436-1.1-2.436-2.451c0-1.354,1.085-2.452,2.436-2.452h47.042&#10;&#9;&#9;&#9;&#9;c1.35,0,2.436,1.099,2.436,2.452C243.689,1362.688,242.604,1363.788,241.253,1363.788z" transform="matrix(1, 0, 0, 1, 8.526512829121202e-14, 2.1316282072803006e-14)"/><path fill="#FFFFFF" d="M517.084,1363.788H348.088c-1.35,0-2.436-1.1-2.436-2.451c0-1.354,1.085-2.452,2.436-2.452h168.996&#10;&#9;&#9;&#9;&#9;c1.35,0,2.435,1.099,2.435,2.452C519.519,1362.688,518.434,1363.788,517.084,1363.788z" transform="matrix(1, 0, 0, 1, 8.526512829121202e-14, 2.1316282072803006e-14)"/><path fill="#FFFFFF" d="M618.807,1435.857H463.803c-1.351,0-2.436-1.1-2.436-2.453c0-1.353,1.085-2.452,2.436-2.452h155.004&#10;&#9;&#9;&#9;&#9;c1.351,0,2.436,1.1,2.436,2.452C621.243,1434.758,620.158,1435.857,618.807,1435.857z" transform="matrix(1, 0, 0, 1, 8.526512829121202e-14, 2.1316282072803006e-14)"/><path fill="#FFFFFF" d="M969.207,1435.857h-36.149c-1.35,0-2.436-1.1-2.436-2.453c0-1.353,1.085-2.452,2.436-2.452h36.149&#10;&#9;&#9;&#9;&#9;c1.35,0,2.436,1.1,2.436,2.452C971.642,1434.758,970.557,1435.857,969.207,1435.857z" transform="matrix(1, 0, 0, 1, 8.526512829121202e-14, 2.1316282072803006e-14)"/><path fill="#FFFFFF" d="M1361.679,1435.857h-102.377c-1.351,0-2.436-1.1-2.436-2.453c0-1.353,1.085-2.452,2.436-2.452h102.377&#10;&#9;&#9;&#9;&#9;c1.35,0,2.436,1.1,2.436,2.452C1364.115,1434.758,1363.029,1435.857,1361.679,1435.857z" transform="matrix(1, 0, 0, 1, 8.526512829121202e-14, 2.1316282072803006e-14)"/><path fill="#FFFFFF" d="M1081.136,1916.575h-36.15c-1.349,0-2.435-1.1-2.435-2.452s1.085-2.451,2.435-2.451h36.15&#10;&#9;&#9;&#9;&#9;c1.35,0,2.436,1.099,2.436,2.451S1082.486,1916.575,1081.136,1916.575z" transform="matrix(1, 0, 0, 1, 8.526512829121202e-14, 2.1316282072803006e-14)"/><path fill="#FFFFFF" d="M1473.617,1916.575H1371.23c-1.35,0-2.435-1.1-2.435-2.452s1.085-2.451,2.435-2.451h102.387&#10;&#9;&#9;&#9;&#9;c1.35,0,2.435,1.099,2.435,2.451S1474.967,1916.575,1473.617,1916.575z" transform="matrix(1, 0, 0, 1, 8.526512829121202e-14, 2.1316282072803006e-14)"/><path fill="#FFFFFF" d="M1609.801,1435.857h-43.391c-1.35,0-2.436-1.1-2.436-2.453c0-1.353,1.086-2.452,2.436-2.452h43.391&#10;&#9;&#9;&#9;&#9;c1.35,0,2.436,1.1,2.436,2.452C1612.236,1434.758,1611.15,1435.857,1609.801,1435.857z" transform="matrix(1, 0, 0, 1, 8.526512829121202e-14, 2.1316282072803006e-14)"/><path fill="#FFFFFF" d="M2149.598,1435.857h-171.488c-1.35,0-2.436-1.1-2.436-2.453c0-1.353,1.086-2.452,2.436-2.452h171.488&#10;&#9;&#9;&#9;&#9;c1.35,0,2.437,1.1,2.437,2.452C2152.034,1434.758,2150.947,1435.857,2149.598,1435.857z" transform="matrix(1, 0, 0, 1, 8.526512829121202e-14, 2.1316282072803006e-14)"/><path fill="#FFFFFF" d="M2408.67,1435.857h-42.255c-1.35,0-2.435-1.1-2.435-2.453c0-1.353,1.085-2.452,2.435-2.452h42.255&#10;&#9;&#9;&#9;&#9;c1.351,0,2.436,1.1,2.436,2.452C2411.105,1434.758,2410.021,1435.857,2408.67,1435.857z" transform="matrix(1, 0, 0, 1, 8.526512829121202e-14, 2.1316282072803006e-14)"/><path fill="#FFFFFF" d="M639.815,1507.925h-35.074c-1.35,0-2.435-1.099-2.435-2.451s1.085-2.452,2.435-2.452h35.074&#10;&#9;&#9;&#9;&#9;c1.35,0,2.436,1.1,2.436,2.452S641.165,1507.925,639.815,1507.925z" transform="matrix(1, 0, 0, 1, 8.526512829121202e-14, 2.1316282072803006e-14)"/><path fill="#FFFFFF" d="M823.638,1507.925H709.282c-1.351,0-2.436-1.099-2.436-2.451s1.085-2.452,2.436-2.452h114.356&#10;&#9;&#9;&#9;&#9;c1.35,0,2.436,1.1,2.436,2.452S824.988,1507.925,823.638,1507.925z" transform="matrix(1, 0, 0, 1, 8.526512829121202e-14, 2.1316282072803006e-14)"/><path fill="#FFFFFF" d="M1131.293,1507.925h-47.971c-1.35,0-2.435-1.099-2.435-2.451s1.085-2.452,2.435-2.452h47.971&#10;&#9;&#9;&#9;&#9;c1.35,0,2.436,1.1,2.436,2.452S1132.644,1507.925,1131.293,1507.925z" transform="matrix(1, 0, 0, 1, 8.526512829121202e-14, 2.1316282072803006e-14)"/><path fill="#FFFFFF" d="M1677.776,1507.925h-161.93c-1.35,0-2.435-1.099-2.435-2.451s1.085-2.452,2.435-2.452h161.93&#10;&#9;&#9;&#9;&#9;c1.351,0,2.436,1.1,2.436,2.452S1679.127,1507.925,1677.776,1507.925z" transform="matrix(1, 0, 0, 1, 8.526512829121202e-14, 2.1316282072803006e-14)"/><path fill="#FFFFFF" d="M1866.785,1507.925h-33.599c-1.351,0-2.436-1.099-2.436-2.451s1.085-2.452,2.436-2.452h33.599&#10;&#9;&#9;&#9;&#9;c1.351,0,2.436,1.1,2.436,2.452S1868.136,1507.925,1866.785,1507.925z" transform="matrix(1, 0, 0, 1, 8.526512829121202e-14, 2.1316282072803006e-14)"/><path fill="#FFFFFF" d="M2191.265,1507.925h-83.35c-1.351,0-2.436-1.099-2.436-2.451s1.085-2.452,2.436-2.452h83.35&#10;&#9;&#9;&#9;&#9;c1.351,0,2.436,1.1,2.436,2.452S2192.615,1507.925,2191.265,1507.925z" transform="matrix(1, 0, 0, 1, 8.526512829121202e-14, 2.1316282072803006e-14)"/><path fill="#FFFFFF" d="M715.296,1580.003h-75.481c-1.351,0-2.436-1.1-2.436-2.452c0-1.354,1.085-2.453,2.436-2.453h75.481&#10;&#9;&#9;&#9;&#9;c1.35,0,2.435,1.1,2.435,2.453C717.73,1578.903,716.646,1580.003,715.296,1580.003z" transform="matrix(1, 0, 0, 1, 8.526512829121202e-14, 2.1316282072803006e-14)"/><path fill="#FFFFFF" d="M1764.771,1580.003h-104.723c-1.35,0-2.435-1.1-2.435-2.452c0-1.354,1.085-2.453,2.435-2.453h104.723&#10;&#9;&#9;&#9;&#9;c1.351,0,2.436,1.1,2.436,2.453C1767.207,1578.903,1766.122,1580.003,1764.771,1580.003z" transform="matrix(1, 0, 0, 1, 8.526512829121202e-14, 2.1316282072803006e-14)"/><path fill="#FFFFFF" d="M2021.615,1580.003h-43.622c-1.35,0-2.435-1.1-2.435-2.452c0-1.354,1.085-2.453,2.435-2.453h43.622&#10;&#9;&#9;&#9;&#9;c1.351,0,2.436,1.1,2.436,2.453C2024.051,1578.903,2022.966,1580.003,2021.615,1580.003z" transform="matrix(1, 0, 0, 1, 8.526512829121202e-14, 2.1316282072803006e-14)"/><path fill="#FFFFFF" d="M1525.605,1580.003h-43.614c-1.351,0-2.435-1.1-2.435-2.452c0-1.354,1.084-2.453,2.435-2.453h43.614&#10;&#9;&#9;&#9;&#9;c1.35,0,2.435,1.1,2.435,2.453C1528.04,1578.903,1526.955,1580.003,1525.605,1580.003z" transform="matrix(1, 0, 0, 1, 8.526512829121202e-14, 2.1316282072803006e-14)"/><path fill="#FFFFFF" d="M1367.138,1580.003h-343.25c-1.351,0-2.436-1.1-2.436-2.452c0-1.354,1.085-2.453,2.436-2.453h343.25&#10;&#9;&#9;&#9;&#9;c1.35,0,2.436,1.1,2.436,2.453C1369.574,1578.903,1368.488,1580.003,1367.138,1580.003z" transform="matrix(1, 0, 0, 1, 8.526512829121202e-14, 2.1316282072803006e-14)"/><path fill="#FFFFFF" d="M1006.881,1813.385H902.159c-1.351,0-2.436-1.1-2.436-2.453c0-1.352,1.085-2.45,2.436-2.45h104.722&#10;&#9;&#9;&#9;&#9;c1.351,0,2.436,1.099,2.436,2.45C1009.316,1812.285,1008.231,1813.385,1006.881,1813.385z" transform="matrix(1, 0, 0, 1, 8.526512829121202e-14, 2.1316282072803006e-14)"/><path fill="#FFFFFF" d="M1184.939,1813.385h-43.614c-1.35,0-2.436-1.1-2.436-2.453c0-1.352,1.085-2.45,2.436-2.45h43.614&#10;&#9;&#9;&#9;&#9;c1.35,0,2.435,1.099,2.435,2.45C1187.374,1812.285,1186.289,1813.385,1184.939,1813.385z" transform="matrix(1, 0, 0, 1, 8.526512829121202e-14, 2.1316282072803006e-14)"/><path fill="#FFFFFF" d="M1643.043,1813.385h-343.251c-1.351,0-2.436-1.1-2.436-2.453c0-1.352,1.085-2.45,2.436-2.45h343.251&#10;&#9;&#9;&#9;&#9;c1.35,0,2.436,1.099,2.436,2.45C1645.479,1812.285,1644.393,1813.385,1643.043,1813.385z" transform="matrix(1, 0, 0, 1, 8.526512829121202e-14, 2.1316282072803006e-14)"/><path fill="#FFFFFF" d="M1042.939,1652.079H798.231c-1.351,0-2.435-1.1-2.435-2.451c0-1.354,1.084-2.452,2.435-2.452h244.708&#10;&#9;&#9;&#9;&#9;c1.351,0,2.436,1.099,2.436,2.452C1045.375,1650.979,1044.29,1652.079,1042.939,1652.079z" transform="matrix(1, 0, 0, 1, 8.526512829121202e-14, 2.1316282072803006e-14)"/><path fill="#FFFFFF" d="M1197.671,1652.079h-81.495c-1.35,0-2.435-1.1-2.435-2.451c0-1.354,1.085-2.452,2.435-2.452h81.495&#10;&#9;&#9;&#9;&#9;c1.35,0,2.436,1.099,2.436,2.452C1200.106,1650.979,1199.021,1652.079,1197.671,1652.079z" transform="matrix(1, 0, 0, 1, 8.526512829121202e-14, 2.1316282072803006e-14)"/><path fill="#FFFFFF" d="M1858.51,1652.079h-19.856c-1.351,0-2.436-1.1-2.436-2.451c0-1.354,1.085-2.452,2.436-2.452h19.856&#10;&#9;&#9;&#9;&#9;c1.351,0,2.436,1.099,2.436,2.452C1860.945,1650.979,1859.86,1652.079,1858.51,1652.079z" transform="matrix(1, 0, 0, 1, 8.526512829121202e-14, 2.1316282072803006e-14)"/><path fill="#FFFFFF" d="M1691.825,1652.079h-376.062c-1.35,0-2.436-1.1-2.436-2.451c0-1.354,1.085-2.452,2.436-2.452h376.062&#10;&#9;&#9;&#9;&#9;c1.351,0,2.436,1.099,2.436,2.452C1694.261,1650.979,1693.176,1652.079,1691.825,1652.079z" transform="matrix(1, 0, 0, 1, 8.526512829121202e-14, 2.1316282072803006e-14)"/><path fill="#FFFFFF" d="M1367.138,1724.148H971.146c-1.35,0-2.436-1.1-2.436-2.453c0-1.353,1.085-2.451,2.436-2.451h395.993&#10;&#9;&#9;&#9;&#9;c1.35,0,2.436,1.099,2.436,2.451C1369.574,1723.049,1368.488,1724.148,1367.138,1724.148z" transform="matrix(1, 0, 0, 1, 8.526512829121202e-14, 2.1316282072803006e-14)"/><path fill="#FFFFFF" d="M1515.847,1724.148h-82.688c-1.351,0-2.436-1.1-2.436-2.453c0-1.353,1.085-2.451,2.436-2.451h82.688&#10;&#9;&#9;&#9;&#9;c1.351,0,2.436,1.099,2.436,2.451C1518.282,1723.049,1517.197,1724.148,1515.847,1724.148z" transform="matrix(1, 0, 0, 1, 8.526512829121202e-14, 2.1316282072803006e-14)"/><path fill="#FFFFFF" d="M1691.825,1724.148h-28.099c-1.35,0-2.436-1.1-2.436-2.453c0-1.353,1.086-2.451,2.436-2.451h28.099&#10;&#9;&#9;&#9;&#9;c1.351,0,2.436,1.099,2.436,2.451C1694.261,1723.049,1693.176,1724.148,1691.825,1724.148z" transform="matrix(1, 0, 0, 1, 8.526512829121202e-14, 2.1316282072803006e-14)"/><g opacity="0.42" transform="matrix(1, 0, 0, 1, 5.684341886080802e-14, 1.4210854715202004e-14)">
			<path fill="#FFFFFF" d="M580.578,121.978H463.455c-1.35,0-2.436-1.099-2.436-2.452s1.085-2.452,2.436-2.452h117.123&#10;&#9;&#9;&#9;&#9;c1.35,0,2.436,1.099,2.436,2.452S581.928,121.978,580.578,121.978z"/>
		</g><path fill="#FFFFFF" d="M1180.913,121.978H737.372c-1.35,0-2.436-1.099-2.436-2.452s1.085-2.452,2.436-2.452h443.541&#10;&#9;&#9;&#9;&#9;c1.351,0,2.436,1.099,2.436,2.452S1182.263,121.978,1180.913,121.978z" transform="matrix(1, 0, 0, 1, 8.526512829121202e-14, 2.1316282072803006e-14)"/><path fill="#FFFFFF" d="M1538.627,121.978h-156.296c-1.35,0-2.436-1.099-2.436-2.452s1.085-2.452,2.436-2.452h156.296&#10;&#9;&#9;&#9;&#9;c1.351,0,2.436,1.099,2.436,2.452S1539.978,121.978,1538.627,121.978z" transform="matrix(1, 0, 0, 1, 8.526512829121202e-14, 2.1316282072803006e-14)"/><path fill="#FFFFFF" d="M2506.41,121.978h-170.595c-1.351,0-2.436-1.099-2.436-2.452s1.085-2.452,2.436-2.452h170.595&#10;&#9;&#9;&#9;&#9;c1.35,0,2.436,1.099,2.436,2.452S2507.76,121.978,2506.41,121.978z" transform="matrix(1, 0, 0, 1, 8.526512829121202e-14, 2.1316282072803006e-14)"/><path fill="#FFFFFF" d="M2670.559,121.978h-53.348c-1.351,0-2.434-1.099-2.434-2.452s1.083-2.452,2.434-2.452h53.348&#10;&#9;&#9;&#9;&#9;c1.35,0,2.436,1.099,2.436,2.452S2671.908,121.978,2670.559,121.978z" transform="matrix(1, 0, 0, 1, 8.526512829121202e-14, 2.1316282072803006e-14)"/><path fill="#FFFFFF" d="M11.572,121.978h-53.339c-1.35,0-2.436-1.099-2.436-2.452s1.085-2.452,2.436-2.452h53.339&#10;&#9;&#9;&#9;&#9;c1.35,0,2.436,1.099,2.436,2.452S12.922,121.978,11.572,121.978z" transform="matrix(1, 0, 0, 1, 8.526512829121202e-14, 2.1316282072803006e-14)"/><path fill="#FFFFFF" d="M324.306,121.978H132.705c-1.351,0-2.436-1.099-2.436-2.452s1.085-2.452,2.436-2.452h191.602&#10;&#9;&#9;&#9;&#9;c1.35,0,2.435,1.099,2.435,2.452S325.656,121.978,324.306,121.978z" transform="matrix(1, 0, 0, 1, 8.526512829121202e-14, 2.1316282072803006e-14)"/><path fill="#FFFFFF" d="M836.925,194.046h-40.996c-1.351,0-2.436-1.099-2.436-2.451c0-1.354,1.085-2.453,2.436-2.453h40.996&#10;&#9;&#9;&#9;&#9;c1.35,0,2.436,1.099,2.436,2.453C839.36,192.947,838.275,194.046,836.925,194.046z" transform="matrix(1, 0, 0, 1, 8.526512829121202e-14, 2.1316282072803006e-14)"/><path fill="#FFFFFF" d="M1281.908,194.046h-116.08c-1.35,0-2.435-1.099-2.435-2.451c0-1.354,1.085-2.453,2.435-2.453h116.08&#10;&#9;&#9;&#9;&#9;c1.35,0,2.436,1.099,2.436,2.453C1284.343,192.947,1283.258,194.046,1281.908,194.046z" transform="matrix(1, 0, 0, 1, 8.526512829121202e-14, 2.1316282072803006e-14)"/><path fill="#FFFFFF" d="M1563.229,194.046h-49.197c-1.351,0-2.435-1.099-2.435-2.451c0-1.354,1.084-2.453,2.435-2.453h49.197&#10;&#9;&#9;&#9;&#9;c1.351,0,2.436,1.099,2.436,2.453C1565.665,192.947,1564.58,194.046,1563.229,194.046z" transform="matrix(1, 0, 0, 1, 8.526512829121202e-14, 2.1316282072803006e-14)"/><path fill="#FFFFFF" d="M438.935,70.033H389.73c-1.35,0-2.436-1.099-2.436-2.452s1.085-2.452,2.436-2.452h49.205&#10;&#9;&#9;&#9;&#9;c1.351,0,2.436,1.099,2.436,2.452S440.286,70.033,438.935,70.033z" transform="matrix(1, 0, 0, 1, 8.526512829121202e-14, 2.1316282072803006e-14)"/><path fill="#FFFFFF" d="M2079.916,94.653h-49.205c-1.351,0-2.436-1.101-2.436-2.453c0-1.353,1.085-2.452,2.436-2.452h49.205&#10;&#9;&#9;&#9;&#9;c1.35,0,2.436,1.099,2.436,2.452C2082.352,93.553,2081.266,94.653,2079.916,94.653z" transform="matrix(1, 0, 0, 1, 8.526512829121202e-14, 2.1316282072803006e-14)"/><path fill="#FFFFFF" d="M2468.984,194.046h-47.914c-1.35,0-2.436-1.099-2.436-2.451c0-1.354,1.086-2.453,2.436-2.453h47.914&#10;&#9;&#9;&#9;&#9;c1.351,0,2.435,1.099,2.435,2.453C2471.419,192.947,2470.335,194.046,2468.984,194.046z" transform="matrix(1, 0, 0, 1, 8.526512829121202e-14, 2.1316282072803006e-14)"/><path fill="#FFFFFF" d="M1020.698,266.115h-54.391c-1.351,0-2.436-1.099-2.436-2.452c0-1.353,1.085-2.452,2.436-2.452h54.391&#10;&#9;&#9;&#9;&#9;c1.351,0,2.436,1.099,2.436,2.452C1023.134,265.017,1022.049,266.115,1020.698,266.115z" transform="matrix(1, 0, 0, 1, 8.526512829121202e-14, 2.1316282072803006e-14)"/><path fill="#FFFFFF" d="M1854.6,266.115h-38.097c-1.351,0-2.436-1.099-2.436-2.452c0-1.353,1.085-2.452,2.436-2.452h38.097&#10;&#9;&#9;&#9;&#9;c1.35,0,2.436,1.099,2.436,2.452C1857.035,265.017,1855.949,266.115,1854.6,266.115z" transform="matrix(1, 0, 0, 1, 8.526512829121202e-14, 2.1316282072803006e-14)"/><path fill="#FFFFFF" d="M2222.495,266.115h-32.696c-1.351,0-2.436-1.099-2.436-2.452c0-1.353,1.085-2.452,2.436-2.452h32.696&#10;&#9;&#9;&#9;&#9;c1.35,0,2.436,1.099,2.436,2.452C2224.931,265.017,2223.845,266.115,2222.495,266.115z" transform="matrix(1, 0, 0, 1, 8.526512829121202e-14, 2.1316282072803006e-14)"/><path fill="#FFFFFF" d="M2745.312,266.115h-94.51c-1.351,0-2.435-1.099-2.435-2.452c0-1.353,1.084-2.452,2.435-2.452h94.51&#10;&#9;&#9;&#9;&#9;c1.351,0,2.435,1.099,2.435,2.452C2747.746,265.017,2746.662,266.115,2745.312,266.115z" transform="matrix(1, 0, 0, 1, 8.526512829121202e-14, 2.1316282072803006e-14)"/><path fill="#FFFFFF" d="M495.595,466.993H319.866c-1.351,0-2.436-1.099-2.436-2.452c0-1.352,1.085-2.452,2.436-2.452h175.729&#10;&#9;&#9;&#9;&#9;c1.351,0,2.436,1.1,2.436,2.452C498.031,465.895,496.946,466.993,495.595,466.993z" transform="matrix(1, 0, 0, 1, 8.526512829121202e-14, 2.1316282072803006e-14)"/><path fill="#FFFFFF" d="M335.804,539.062h-39.762c-1.351,0-2.436-1.099-2.436-2.451c0-1.354,1.085-2.452,2.436-2.452h39.762&#10;&#9;&#9;&#9;&#9;c1.35,0,2.436,1.099,2.436,2.452C338.239,537.962,337.154,539.062,335.804,539.062z" transform="matrix(1, 0, 0, 1, 8.526512829121202e-14, 2.1316282072803006e-14)"/><path fill="#FFFFFF" d="M217.281,539.062H87.625c-1.351,0-2.436-1.099-2.436-2.451c0-1.354,1.085-2.452,2.436-2.452h129.657&#10;&#9;&#9;&#9;&#9;c1.349,0,2.435,1.099,2.435,2.452C219.716,537.962,218.63,539.062,217.281,539.062z" transform="matrix(1, 0, 0, 1, 8.526512829121202e-14, 2.1316282072803006e-14)"/><path fill="#FFFFFF" d="M296.042,611.139h-85.587c-1.35,0-2.436-1.099-2.436-2.452c0-1.352,1.085-2.452,2.436-2.452h85.587&#10;&#9;&#9;&#9;&#9;c1.35,0,2.436,1.1,2.436,2.452C298.478,610.04,297.392,611.139,296.042,611.139z" transform="matrix(1, 0, 0, 1, 8.526512829121202e-14, 2.1316282072803006e-14)"/><path fill="#FFFFFF" d="M2030.139,338.192h-49.453c-1.351,0-2.436-1.099-2.436-2.451c0-1.353,1.085-2.452,2.436-2.452h49.453&#10;&#9;&#9;&#9;&#9;c1.351,0,2.436,1.099,2.436,2.452C2032.574,337.093,2031.489,338.192,2030.139,338.192z" transform="matrix(1, 0, 0, 1, 8.526512829121202e-14, 2.1316282072803006e-14)"/><path fill="#FFFFFF" d="M601.577,546.972h-118.73c-1.35,0-2.436-1.099-2.436-2.452s1.085-2.452,2.436-2.452h118.73&#10;&#9;&#9;&#9;&#9;c1.35,0,2.436,1.099,2.436,2.452S602.927,546.972,601.577,546.972z" transform="matrix(1, 0, 0, 1, 8.526512829121202e-14, 2.1316282072803006e-14)"/><path fill="#FFFFFF" d="M1942.034,410.27H1871.3c-1.351,0-2.436-1.099-2.436-2.453c0-1.353,1.085-2.452,2.436-2.452h70.734&#10;&#9;&#9;&#9;&#9;c1.351,0,2.436,1.099,2.436,2.452C1944.47,409.17,1943.385,410.27,1942.034,410.27z" transform="matrix(1, 0, 0, 1, 8.526512829121202e-14, 2.1316282072803006e-14)"/><path fill="#FFFFFF" d="M2318.32,674.766h-38.719c-1.35,0-2.434-1.099-2.434-2.453c0-1.353,1.084-2.452,2.434-2.452h38.719&#10;&#9;&#9;&#9;&#9;c1.35,0,2.436,1.099,2.436,2.452C2320.756,673.667,2319.67,674.766,2318.32,674.766z" transform="matrix(1, 0, 0, 1, 8.526512829121202e-14, 2.1316282072803006e-14)"/><path fill="#FFFFFF" d="M2765.581,674.766h-26.532c-1.35,0-2.437-1.099-2.437-2.453c0-1.353,1.087-2.452,2.437-2.452h26.532&#10;&#9;&#9;&#9;&#9;c1.351,0,2.436,1.099,2.436,2.452C2768.017,673.667,2766.932,674.766,2765.581,674.766z" transform="matrix(1, 0, 0, 1, 8.526512829121202e-14, 2.1316282072803006e-14)"/><path fill="#FFFFFF" d="M2644.863,338.192h-53.744c-1.351,0-2.436-1.099-2.436-2.451c0-1.353,1.085-2.452,2.436-2.452h53.744&#10;&#9;&#9;&#9;&#9;c1.35,0,2.436,1.099,2.436,2.452C2647.299,337.093,2646.213,338.192,2644.863,338.192z" transform="matrix(1, 0, 0, 1, 8.526512829121202e-14, 2.1316282072803006e-14)"/><path fill="#FFFFFF" d="M2236.403,571.574h-118.73c-1.351,0-2.436-1.098-2.436-2.451c0-1.353,1.085-2.452,2.436-2.452h118.73&#10;&#9;&#9;&#9;&#9;c1.351,0,2.435,1.099,2.435,2.452C2238.838,570.476,2237.754,571.574,2236.403,571.574z" transform="matrix(1, 0, 0, 1, 8.526512829121202e-14, 2.1316282072803006e-14)"/><path fill="#FFFFFF" d="M2230.48,441.815h-245.123c-1.351,0-2.436-1.098-2.436-2.451c0-1.354,1.085-2.452,2.436-2.452h245.123&#10;&#9;&#9;&#9;&#9;c1.351,0,2.435,1.099,2.435,2.452C2232.915,440.717,2231.831,441.815,2230.48,441.815z" transform="matrix(1, 0, 0, 1, 8.526512829121202e-14, 2.1316282072803006e-14)"/><path fill="#FFFFFF" d="M2742.626,410.27h-117.562c-1.351,0-2.435-1.099-2.435-2.453c0-1.353,1.084-2.452,2.435-2.452h117.562&#10;&#9;&#9;&#9;&#9;c1.351,0,2.437,1.099,2.437,2.452C2745.062,409.17,2743.977,410.27,2742.626,410.27z" transform="matrix(1, 0, 0, 1, 8.526512829121202e-14, 2.1316282072803006e-14)"/><path fill="#FFFFFF" d="M1151.547,70.033h-117.554c-1.351,0-2.436-1.099-2.436-2.452s1.085-2.452,2.436-2.452h117.554&#10;&#9;&#9;&#9;&#9;c1.35,0,2.436,1.099,2.436,2.452S1152.897,70.033,1151.547,70.033z" transform="matrix(1, 0, 0, 1, 8.526512829121202e-14, 2.1316282072803006e-14)"/><path fill="#FFFFFF" d="M653.731,192.64H536.177c-1.35,0-2.435-1.099-2.435-2.452s1.085-2.452,2.435-2.452h117.554&#10;&#9;&#9;&#9;&#9;c1.35,0,2.436,1.099,2.436,2.452S655.081,192.64,653.731,192.64z" transform="matrix(1, 0, 0, 1, 8.526512829121202e-14, 2.1316282072803006e-14)"/><path fill="#FFFFFF" d="M2241.828,482.337h-45.941c-1.349,0-2.436-1.099-2.436-2.451c0-1.353,1.087-2.452,2.436-2.452h45.941&#10;&#9;&#9;&#9;&#9;c1.351,0,2.436,1.099,2.436,2.452C2244.264,481.238,2243.179,482.337,2241.828,482.337z" transform="matrix(1, 0, 0, 1, 8.526512829121202e-14, 2.1316282072803006e-14)"/><path fill="#FFFFFF" d="M2813.469,482.337h-93.754c-1.351,0-2.436-1.099-2.436-2.451c0-1.353,1.085-2.452,2.436-2.452h93.754&#10;&#9;&#9;&#9;&#9;c1.35,0,2.436,1.099,2.436,2.452C2815.904,481.238,2814.818,482.337,2813.469,482.337z" transform="matrix(1, 0, 0, 1, 8.526512829121202e-14, 2.1316282072803006e-14)"/><path fill="#FFFFFF" d="M199.454,230.08H81.9c-1.35,0-2.435-1.098-2.435-2.451c0-1.353,1.085-2.452,2.435-2.452h117.554&#10;&#9;&#9;&#9;&#9;c1.35,0,2.435,1.099,2.435,2.452C201.889,228.982,200.804,230.08,199.454,230.08z" transform="matrix(1, 0, 0, 1, 8.526512829121202e-14, 2.1316282072803006e-14)"/><path fill="#FFFFFF" d="M270.313,302.149h-93.755c-1.351,0-2.436-1.099-2.436-2.452c0-1.352,1.085-2.451,2.436-2.451h93.755&#10;&#9;&#9;&#9;&#9;c1.35,0,2.436,1.099,2.436,2.451C272.749,301.051,271.663,302.149,270.313,302.149z" transform="matrix(1, 0, 0, 1, 8.526512829121202e-14, 2.1316282072803006e-14)"/><path fill="#FFFFFF" d="M1605.137,482.337h-122.342c-1.35,0-2.436-1.099-2.436-2.451c0-1.353,1.086-2.452,2.436-2.452h122.342&#10;&#9;&#9;&#9;&#9;c1.35,0,2.436,1.099,2.436,2.452C1607.572,481.238,1606.486,482.337,1605.137,482.337z" transform="matrix(1, 0, 0, 1, 8.526512829121202e-14, 2.1316282072803006e-14)"/><path opacity="0.03" clip-path="url(#SVGID_2_)" d="M329.922,1442.363c20.494-24.895,54.374-32.088,85.38-26.018l-44.028-93.158&#10;&#9;&#9;l26.79-95.248l-150.415-166.351L89.115,796.177c-37.848,175.792-97.258,346.53-146.364,519.774&#10;&#9;&#9;c-45.667,161.114-86.175,323.96-135.032,484.133v196.382C5.98,1839.149,171.099,1635.34,329.922,1442.363z" transform="matrix(1, 0, 0, 1, 2.842170943040401e-14, 7.105427357601002e-15)"/><path fill="#63CDF6" d="M295.429,1285.746c6.063,9.283,113.652,327.889,113.652,327.889l-35.231-20.141&#10;&#9;&#9;&#9;c-32-94.215-88.61-259.517-92.868-266.012" transform="matrix(1, 0, 0, 1, 5.684341886080802e-14, 1.4210854715202004e-14)"/><path d="M 1775.8890380859375 476.49700927734375 L 1441.1190185546875 755.9970092773438 L 1382.927001953125 738.5449829101562 Z" clip-path="url(#SVGID_2_)" fill="#FFD494" transform="matrix(1, 0, 0, 1, 2.842170943040401e-14, 7.105427357601002e-15)"/><path d="M 669.9580078125 631.9910278320312 L 764.2360229492188 825.1510009765625 L 822.3870239257812 837.9219970703125 Z" clip-path="url(#SVGID_2_)" fill="#FFD494" transform="matrix(1, 0, 0, 1, 2.842170943040401e-14, 7.105427357601002e-15)"/><path d="M 1295.35205078125 686.0089721679688 L 1224.8330078125 820.8880004882812 L 1077.6070556640625 900.4000244140625 L 1040.114990234375 870.3930053710938 L 1182.4129638671875 803.7540283203125 Z" clip-path="url(#SVGID_2_)" fill="#FFD494" transform="matrix(1, 0, 0, 1, 2.842170943040401e-14, 7.105427357601002e-15)"/><linearGradient id="SVGID_45_" gradientUnits="userSpaceOnUse" x1="1053.2031" y1="595.0371" x2="1254.9937" y2="595.0371">
		<stop offset="0.0533" style="stop-color:#371D4F"/>
		<stop offset="0.2775" style="stop-color:#3D1E51"/>
		<stop offset="0.5634" style="stop-color:#4C2057"/>
		<stop offset="0.8815" style="stop-color:#662461"/>
		<stop offset="1" style="stop-color:#722665"/>
	</linearGradient><path clip-path="url(#SVGID_2_)" fill="url(#SVGID_45_)" d="M1154.099,612.983c-45.411-65.916-100.896-57.041-100.896-57.041&#10;&#9;&#9;c34.046,11.407,100.896,78.588,100.896,78.588s66.833-67.181,100.895-78.588C1254.994,555.942,1199.493,547.067,1154.099,612.983z" transform="matrix(1, 0, 0, 1, 2.842170943040401e-14, 7.105427357601002e-15)"/><linearGradient id="SVGID_46_" gradientUnits="userSpaceOnUse" x1="1237.3662" y1="483.5195" x2="1355.9219" y2="483.5195">
		<stop offset="0.0533" style="stop-color:#371D4F"/>
		<stop offset="0.2775" style="stop-color:#3D1E51"/>
		<stop offset="0.5634" style="stop-color:#4C2057"/>
		<stop offset="0.8815" style="stop-color:#662461"/>
		<stop offset="1" style="stop-color:#722665"/>
	</linearGradient><path clip-path="url(#SVGID_2_)" fill="url(#SVGID_46_)" d="M1296.644,494.065c-26.673-38.724-59.278-33.512-59.278-33.512&#10;&#9;&#9;c20.005,6.703,59.278,46.167,59.278,46.167s39.265-39.465,59.278-46.167C1355.922,460.553,1323.317,455.341,1296.644,494.065z" transform="matrix(1, 0, 0, 1, 2.842170943040401e-14, 7.105427357601002e-15)"/><linearGradient id="SVGID_47_" gradientUnits="userSpaceOnUse" x1="979.5615" y1="459.1914" x2="1162.3657" y2="459.1914">
		<stop offset="0.0533" style="stop-color:#371D4F"/>
		<stop offset="0.2775" style="stop-color:#3D1E51"/>
		<stop offset="0.5634" style="stop-color:#4C2057"/>
		<stop offset="0.8815" style="stop-color:#662461"/>
		<stop offset="1" style="stop-color:#722665"/>
	</linearGradient><path clip-path="url(#SVGID_2_)" fill="url(#SVGID_47_)" d="M1076.348,480.093c-47.358-55.374-96.787-42.036-96.787-42.036&#10;&#9;&#9;c31.925,7.084,98.824,61.561,98.824,61.561s54.208-67.248,83.98-80.836C1162.366,418.782,1111.255,416.043,1076.348,480.093z" transform="matrix(1, 0, 0, 1, 2.842170943040401e-14, 7.105427357601002e-15)"/><g transform="matrix(1, 0, 0, 1, 5.684341886080802e-14, 1.4210854715202004e-14)">
			<g>
				<linearGradient id="SVGID_48_" gradientUnits="userSpaceOnUse" x1="2603.0879" y1="285.7676" x2="2310.7886" y2="569.5491">
					<stop offset="0.0533" style="stop-color:#371D4F"/>
					<stop offset="0.2775" style="stop-color:#3D1E51"/>
					<stop offset="0.5634" style="stop-color:#4C2057"/>
					<stop offset="0.8815" style="stop-color:#662461"/>
					<stop offset="1" style="stop-color:#722665"/>
				</linearGradient>
				<path fill="url(#SVGID_48_)" d="M2450.08,647.926c37.855-54.342,110.289-165.468,110.289-219.91&#10;&#9;&#9;&#9;&#9;&#9;c0-73.684-59.427-133.43-132.737-133.43c-73.327,0-132.755,59.746-132.755,133.43c0,54.442,72.442,165.568,110.298,219.91&#10;&#9;&#9;&#9;&#9;&#9;H2450.08z"/>
				<linearGradient id="SVGID_49_" gradientUnits="userSpaceOnUse" x1="2716.3408" y1="403.4863" x2="2424.5144" y2="686.8088">
					<stop offset="0.0533" style="stop-color:#371D4F"/>
					<stop offset="0.2775" style="stop-color:#3D1E51"/>
					<stop offset="0.5634" style="stop-color:#4C2057"/>
					<stop offset="0.8815" style="stop-color:#662461"/>
					<stop offset="1" style="stop-color:#722665"/>
				</linearGradient>
				<path d="M 2393.818115 663.080017 H 2459.705116 V 706.174019 H 2393.818115 V 663.080017 Z" fill="url(#SVGID_49_)"/>
			</g>
		</g><linearGradient id="SVGID_50_" gradientUnits="userSpaceOnUse" x1="2703.3594" y1="390.4507" x2="2411.762" y2="673.5508">
				<stop offset="0.0533" style="stop-color:#371D4F"/>
				<stop offset="0.2775" style="stop-color:#3D1E51"/>
				<stop offset="0.5634" style="stop-color:#4C2057"/>
				<stop offset="0.8815" style="stop-color:#662461"/>
				<stop offset="1" style="stop-color:#722665"/>
			</linearGradient><path d="M 2455.364013671875 668.3170166015625 L 2448.18310546875 650.4329833984375 L 2406.840087890625 650.4329833984375 L 2398.157958984375 667.3259887695312 L 2393.818115234375 663.43798828125 L 2403.501953125 644.4710083007812 L 2451.902099609375 644.4710083007812 L 2459.655029296875 663.43798828125 Z" fill="url(#SVGID_50_)" transform="matrix(1, 0, 0, 1, 8.526512829121202e-14, 2.1316282072803006e-14)"/><g transform="matrix(1, 0, 0, 1, 5.684341886080802e-14, 1.4210854715202004e-14)">
			<g>
				<linearGradient id="SVGID_51_" gradientUnits="userSpaceOnUse" x1="2779.5283" y1="468.3779" x2="2487.2241" y2="752.1643">
					<stop offset="0.0533" style="stop-color:#371D4F"/>
					<stop offset="0.2775" style="stop-color:#3D1E51"/>
					<stop offset="0.5634" style="stop-color:#4C2057"/>
					<stop offset="0.8815" style="stop-color:#662461"/>
					<stop offset="1" style="stop-color:#722665"/>
				</linearGradient>
				<path fill="url(#SVGID_51_)" d="M2630.482,743.957c23.194-33.286,67.577-101.375,67.577-134.728&#10;&#9;&#9;&#9;&#9;&#9;c0-45.151-36.414-81.76-81.336-81.76s-81.338,36.609-81.338,81.76c0,33.354,44.383,101.442,67.578,134.728H2630.482z"/>
				<linearGradient id="SVGID_52_" gradientUnits="userSpaceOnUse" x1="2848.8359" y1="540.5889" x2="2556.9983" y2="823.9224">
					<stop offset="0.0533" style="stop-color:#371D4F"/>
					<stop offset="0.2775" style="stop-color:#3D1E51"/>
					<stop offset="0.5634" style="stop-color:#4C2057"/>
					<stop offset="0.8815" style="stop-color:#662461"/>
					<stop offset="1" style="stop-color:#722665"/>
				</linearGradient>
				<path d="M 2596.006104 753.249023 H 2636.381104 V 779.659023 H 2596.006104 V 753.249023 Z" fill="url(#SVGID_52_)"/>
			</g>
		</g><linearGradient id="SVGID_53_" gradientUnits="userSpaceOnUse" x1="2840.834" y1="532.6504" x2="2549.23" y2="815.7569">
				<stop offset="0.0533" style="stop-color:#371D4F"/>
				<stop offset="0.2775" style="stop-color:#3D1E51"/>
				<stop offset="0.5634" style="stop-color:#4C2057"/>
				<stop offset="0.8815" style="stop-color:#662461"/>
				<stop offset="1" style="stop-color:#722665"/>
			</linearGradient><path d="M 2633.722900390625 756.4630126953125 L 2629.322021484375 745.5059814453125 L 2603.991943359375 745.5059814453125 L 2598.673095703125 755.85400390625 L 2596.006103515625 753.4730224609375 L 2601.93603515625 741.8510131835938 L 2631.593017578125 741.8510131835938 L 2636.35498046875 753.4730224609375 Z" fill="url(#SVGID_53_)" transform="matrix(1, 0, 0, 1, 8.526512829121202e-14, 2.1316282072803006e-14)"/><path opacity="0.3" clip-path="url(#SVGID_2_)" fill="#FFD494" d="M2012.379,385.187c0,0,80.509-7.668,98.17-30.489&#10;&#9;&#9;c0,0,19.169-84.898,54.49-87.437c35.322-2.532,51.722,24.086,63.081,49.455c11.347,25.37-26.492,44.377,13.875,38.042&#10;&#9;&#9;c40.366-6.344,37.847-17.76,80.74,0c42.894,17.75,29.01,3.796,60.553,3.796c31.545,0,17.712,16.119,35.372,17.385&#10;&#9;&#9;c17.67,1.274,56.728,9.258,56.728,9.258L2012.379,385.187z" transform="matrix(1, 0, 0, 1, 2.842170943040401e-14, 7.105427357601002e-15)"/><path opacity="0.75" fill="#FFD494" d="M1577.361,1734.968c0,0,168.233-18.867,117.14,3.946&#10;&#9;&#9;&#9;C1643.415,1761.744,1531.056,1739.396,1577.361,1734.968z" transform="matrix(1, 0, 0, 1, 5.684341886080802e-14, 1.4210854715202004e-14)"/><path opacity="0.75" fill="#FFD494" d="M1112.995,1996.466l0.174-11.498C1103.916,1991.171,1112.995,1996.466,1112.995,1996.466z&#10;&#9;&#9;&#9;&#9;" transform="matrix(1, 0, 0, 1, 8.526512829121202e-14, 2.1316282072803006e-14)"/><path opacity="0.75" fill="#FFD494" d="M1643.043,1766.906c-83.293-7.461-340.518-25.877-147.425-72.003&#10;&#9;&#9;&#9;&#9;c183.914-43.936,98.791-65.94,29.987-70.87c-338.927-24.277-176.261-80.678-118.118-95.514&#10;&#9;&#9;&#9;&#9;c118.118-30.14-58.391-68.48-111.523-73.102c-172.441-14.986,182.423-43.868,59.924-88.979&#10;&#9;&#9;&#9;&#9;c-56.097-20.656-96.654-24.553-91.817-51.412c3.264-18.117,116.866-18.574,97.607-27.408l-233.12,0.999l-233.127-0.999&#10;&#9;&#9;&#9;&#9;c-19.26,8.834,94.351,9.291,97.614,27.408c4.838,26.859-35.719,30.756-91.815,51.412c-122.5,45.11,232.357,73.992,59.924,88.979&#10;&#9;&#9;&#9;&#9;c-53.131,4.621-229.641,42.962-111.532,73.102c58.151,14.836,220.81,71.236-118.109,95.514&#10;&#9;&#9;&#9;&#9;c-68.812,4.93-153.936,26.935,29.987,70.87c193.093,46.126-64.132,64.542-147.433,72.003&#10;&#9;&#9;&#9;&#9;c-229.027,20.515,23.228,198.721,303.149,198.721c106.446,0,164.712,4.463,196.091,9.99l-0.141,9.351&#10;&#9;&#9;&#9;&#9;c2.958-1.99,7.778-4.054,15.391-6.085c7.613,2.031,12.426,4.095,15.383,6.085l-0.132-9.351&#10;&#9;&#9;&#9;&#9;c31.378-5.527,89.646-9.99,196.091-9.99C1619.824,1965.627,1872.07,1787.421,1643.043,1766.906z" transform="matrix(1, 0, 0, 1, 8.526512829121202e-14, 2.1316282072803006e-14)"/><path opacity="0.75" fill="#FFD494" d="M1143.942,1984.968l0.174,11.498C1144.117,1996.466,1153.204,1991.171,1143.942,1984.968z&#10;&#9;&#9;&#9;&#9;" transform="matrix(1, 0, 0, 1, 8.526512829121202e-14, 2.1316282072803006e-14)"/><path d="M -192.281006 2279.079102 L 1182.412964 2086.826904 L 1075.967041 2037.578979 L 973.083984 1868.572998 L 950.867004 1777.803955 L 783.502991 1701.996948 L 720.107971 1742.776978 L 498.992004 1593.437012 L 371.273987 1323.187988 L 398.062988 1227.938965 L 247.647995 1061.588989 L 53.196999 736.046997 L -191.934006 601.809998 L -190.242996 878.77002 L -192.281006 1268.14502" clip-path="url(#SVGID_2_)" fill="#4A193C" transform="matrix(1, 0, 0, 1, 2.842170943040401e-14, 7.105427357601002e-15)"/><path fill="#5C204A" d="M1341.815,2082.339l70.734-79.379l-342.149-68.763l-119.534-156.394l-167.537-75.807l-63.396,40.78&#10;&#9;&#9;&#9;l-221.116-149.341l-127.717-270.249l26.789-95.248l-150.407-166.351L53.024,736.047L-192.099,601.81l0.58,96.039l168.639,78.979&#10;&#9;&#9;&#9;l-13.519,232.775l76.741-92.601l53.562,98.087l182.266,195.017v158.933l55.791,24.569l20.287,163.12l35.496-33.137l81.147,117.244&#10;&#9;&#9;&#9;l55.79,81.56c0,0,127.709,165.327,135.314,167.875c7.612,2.548,44.723-97.287,44.723-97.287h117.322&#10;&#9;&#9;&#9;c0,0,14.82,16.485,36.075,39.788c5.484,6.012,20.85,115.996,27.046,122.749c3.645,3.98-2.062-95.473,1.756-91.334&#10;&#9;&#9;&#9;c49.32,53.56,110.206,118.151,119.069,120.508l62.211,77.396l112.069,25.012l34.958,35.352L1341.815,2082.339z" transform="matrix(1, 0, 0, 1, 5.684341886080802e-14, 1.4210854715202004e-14)"/><path fill="#26082E" d="M546.44,1738.522h-15.059c-1.69,0-3.057-1.382-3.057-3.072v-332.435c0-1.698,1.367-3.08,3.057-3.08h15.059&#10;&#9;&#9;&#9;c1.674,0,3.058,1.382,3.058,3.08v332.435C549.498,1737.141,548.115,1738.522,546.44,1738.522z" transform="matrix(1, 0, 0, 1, 5.684341886080802e-14, 1.4210854715202004e-14)"/><path fill="#340B3F" d="M479.592,1332.362c16.028-45.109,64.124-228.786,64.124-228.786s48.087,183.677,64.124,228.786&#10;&#9;&#9;&#9;&#9;c16.021,45.109,44.881,148.216,32.058,232.009c-12.824,83.783-51.301,122.447-96.182,122.447&#10;&#9;&#9;&#9;&#9;c-44.89,0-83.359-38.664-96.182-122.447C434.71,1480.578,463.563,1377.472,479.592,1332.362z" transform="matrix(1, 0, 0, 1, 8.526512829121202e-14, 2.1316282072803006e-14)"/><path fill="#26082E" d="M449.903,1448.233c-1.856,25.285-1.69,50.737,2.361,74.641c14.19,83.708,55.558,122.141,103.571,121.874&#10;&#9;&#9;&#9;&#9;&#9;c17.114-0.107,38.95-1.148,60.586-6.161c-18.191,32.405-43.804,47.982-72.084,48.141&#10;&#9;&#9;&#9;&#9;&#9;c-44.881,0.241-83.565-38.198-96.861-121.924C441.553,1527.504,444.088,1486.457,449.903,1448.233z" transform="matrix(1, 0, 0, 1, 1.1368683772161603e-13, 2.842170943040401e-14)"/><path fill="#FFD494" d="M598.14,1342.836c-13.188-37.116-48.021-167.791-59.982-213.059l5.476-26.201&#10;&#9;&#9;&#9;&#9;&#9;c0,0,48.086,183.677,64.124,228.786c16.028,45.109,44.89,148.216,32.058,232.009c-7.307,47.74-23.12,80.36-43.523,100.001&#10;&#9;&#9;&#9;&#9;&#9;c15.698-20.14,27.783-49.547,33.905-89.527C643.029,1491.053,614.168,1387.954,598.14,1342.836z" transform="matrix(1, 0, 0, 1, 1.1368683772161603e-13, 2.842170943040401e-14)"/><path fill="#26082E" d="M278.439,1566.66h-15.051c-1.69,0-3.065-1.374-3.065-3.072v-332.435c0-1.698,1.375-3.081,3.065-3.081&#10;&#9;&#9;&#9;h15.051c1.682,0,3.057,1.383,3.057,3.081v332.435C281.496,1565.286,280.121,1566.66,278.439,1566.66z" transform="matrix(1, 0, 0, 1, 5.684341886080802e-14, 1.4210854715202004e-14)"/><path fill="#340B3F" d="M211.598,1160.5c16.03-45.109,64.116-228.787,64.116-228.787s48.095,183.678,64.132,228.787&#10;&#9;&#9;&#9;&#9;c16.021,45.109,44.882,148.232,32.058,232.009c-12.823,83.783-51.309,122.447-96.19,122.447&#10;&#9;&#9;&#9;&#9;c-44.881,0-83.351-38.664-96.173-122.447C166.717,1308.732,195.569,1205.609,211.598,1160.5z" transform="matrix(1, 0, 0, 1, 8.526512829121202e-14, 2.1316282072803006e-14)"/><path fill="#26082E" d="M181.909,1276.379c-1.855,25.286-1.69,50.738,2.361,74.633c14.19,83.708,55.559,122.141,103.562,121.874&#10;&#9;&#9;&#9;&#9;&#9;c17.123-0.107,38.958-1.148,60.595-6.152c-18.199,32.396-43.804,47.974-72.084,48.141&#10;&#9;&#9;&#9;&#9;&#9;c-44.881,0.232-83.565-38.209-96.87-121.916C173.559,1355.642,176.094,1314.595,181.909,1276.379z" transform="matrix(1, 0, 0, 1, 1.1368683772161603e-13, 2.842170943040401e-14)"/><path fill="#FFD494" d="M330.137,1170.975c-13.188-37.118-48.012-167.792-59.974-213.042l5.476-26.219&#10;&#9;&#9;&#9;&#9;&#9;c0,0,48.087,183.678,64.124,228.787c16.021,45.109,44.881,148.232,32.058,232.009c-7.306,47.757-23.111,80.36-43.53,100.001&#10;&#9;&#9;&#9;&#9;&#9;c15.714-20.132,27.792-49.547,33.913-89.527C375.027,1319.19,346.175,1216.092,330.137,1170.975z" transform="matrix(1, 0, 0, 1, 1.1368683772161603e-13, 2.842170943040401e-14)"/><path fill="#26082E" d="M425.068,1988.007h-21.471c-2.402,0-4.366-1.981-4.366-4.38v-474.074c0-2.439,1.963-4.404,4.366-4.404&#10;&#9;&#9;&#9;h21.471c2.402,0,4.366,1.965,4.366,4.404v474.074C429.434,1986.025,427.471,1988.007,425.068,1988.007z" transform="matrix(1, 0, 0, 1, 5.684341886080802e-14, 1.4210854715202004e-14)"/><path fill="#340B3F" d="M329.749,1408.76c22.854-64.325,91.435-326.257,91.435-326.257s68.589,261.932,91.444,326.257&#10;&#9;&#9;&#9;&#9;c22.863,64.334,64.008,211.403,45.726,330.887c-18.291,119.468-73.162,174.618-137.169,174.618s-118.871-55.15-137.153-174.618&#10;&#9;&#9;&#9;&#9;C265.732,1620.163,306.885,1473.094,329.749,1408.76z" transform="matrix(1, 0, 0, 1, 8.526512829121202e-14, 2.1316282072803006e-14)"/><path fill="#26082E" d="M287.402,1574.045c-2.642,36.034-2.411,72.344,3.372,106.422&#10;&#9;&#9;&#9;&#9;&#9;c20.229,119.368,79.225,174.168,147.681,173.793c24.421-0.149,55.567-1.632,86.423-8.774&#10;&#9;&#9;&#9;&#9;&#9;c-25.952,46.217-62.467,68.405-102.792,68.638c-64.016,0.366-119.186-54.476-138.139-173.853&#10;&#9;&#9;&#9;&#9;&#9;C275.498,1687.061,279.11,1628.529,287.402,1574.045z" transform="matrix(1, 0, 0, 1, 1.1368683772161603e-13, 2.842170943040401e-14)"/><path fill="#FFD494" d="M498.793,1423.714c-18.804-52.944-68.473-239.277-85.521-303.828l7.803-37.383&#10;&#9;&#9;&#9;&#9;&#9;c0,0,68.581,261.932,91.435,326.257c22.855,64.334,64.008,211.403,45.726,330.887c-10.429,68.072-32.977,114.598-62.078,142.605&#10;&#9;&#9;&#9;&#9;&#9;c22.408-28.716,39.629-70.662,48.36-127.686C562.81,1635.107,521.664,1488.048,498.793,1423.714z" transform="matrix(1, 0, 0, 1, 1.1368683772161603e-13, 2.842170943040401e-14)"/><path fill="#26082E" d="M951.215,1975.56h-15.64c-1.739,0-3.172-1.423-3.172-3.188V1627.23c0-1.765,1.433-3.197,3.172-3.197h15.64&#10;&#9;&#9;&#9;c1.74,0,3.173,1.433,3.173,3.197v345.141C954.388,1974.137,952.955,1975.56,951.215,1975.56z" transform="matrix(1, 0, 0, 1, 5.684341886080802e-14, 1.4210854715202004e-14)"/><path fill="#340B3F" d="M881.814,1553.862c16.642-46.832,66.567-237.527,66.567-237.527s49.935,190.695,66.585,237.527&#10;&#9;&#9;&#9;&#9;c16.633,46.842,46.595,153.896,33.284,240.893c-13.321,86.98-53.265,127.128-99.869,127.128&#10;&#9;&#9;&#9;&#9;c-46.595,0-86.539-40.147-99.851-127.128C835.218,1707.758,865.18,1600.704,881.814,1553.862z" transform="matrix(1, 0, 0, 1, 8.526512829121202e-14, 2.1316282072803006e-14)"/><path fill="#26082E" d="M850.99,1674.188c-1.93,26.244-1.748,52.67,2.444,77.465c14.736,86.921,57.688,126.818,107.53,126.536&#10;&#9;&#9;&#9;&#9;&#9;c17.769-0.109,40.449-1.184,62.915-6.396c-18.896,33.662-45.486,49.823-74.835,49.989&#10;&#9;&#9;&#9;&#9;&#9;c-46.604,0.267-86.771-39.664-100.58-126.57C842.318,1756.482,844.952,1713.853,850.99,1674.188z" transform="matrix(1, 0, 0, 1, 1.1368683772161603e-13, 2.842170943040401e-14)"/><path fill="#FFD494" d="M1004.893,1564.736c-13.693-38.531-49.852-174.192-62.269-221.185l5.674-27.217&#10;&#9;&#9;&#9;&#9;&#9;c0,0,49.934,190.695,66.576,237.527c16.643,46.842,46.604,153.896,33.284,240.893c-7.588,49.563-24.006,83.426-45.188,103.815&#10;&#9;&#9;&#9;&#9;&#9;c16.311-20.898,28.844-51.438,35.206-92.949C1051.497,1718.641,1021.535,1611.569,1004.893,1564.736z" transform="matrix(1, 0, 0, 1, 1.1368683772161603e-13, 2.842170943040401e-14)"/><path fill="#26082E" d="M132.779,2030.178h-22.267c-2.477,0-4.522-2.049-4.522-4.538v-491.624c0-2.507,2.046-4.555,4.522-4.555&#10;&#9;&#9;&#9;h22.267c2.493,0,4.53,2.048,4.53,4.555v491.624C137.31,2028.129,135.272,2030.178,132.779,2030.178z" transform="matrix(1, 0, 0, 1, 5.684341886080802e-14, 1.4210854715202004e-14)"/><path fill="#340B3F" d="M33.93,1429.508c23.699-66.707,94.832-338.337,94.832-338.337s71.124,271.63,94.823,338.337&#10;&#9;&#9;&#9;&#9;c23.708,66.724,66.377,219.221,47.408,343.143c-18.97,123.881-75.862,181.062-142.231,181.062&#10;&#9;&#9;&#9;&#9;c-66.386,0-123.278-57.182-142.248-181.062C-32.456,1648.729,10.222,1496.231,33.93,1429.508z" transform="matrix(1, 0, 0, 1, 8.526512829121202e-14, 2.1316282072803006e-14)"/><path fill="#26082E" d="M-9.982,1600.896c-2.742,37.384-2.493,75.033,3.488,110.368&#10;&#9;&#9;&#9;&#9;&#9;c20.982,123.78,82.157,180.612,153.165,180.23c25.315-0.159,57.622-1.683,89.613-9.117&#10;&#9;&#9;&#9;&#9;&#9;c-26.905,47.94-64.787,70.952-106.594,71.202c-66.377,0.375-123.601-56.508-143.258-180.287&#10;&#9;&#9;&#9;&#9;&#9;C-22.333,1718.107-18.573,1657.412-9.982,1600.896z" transform="matrix(1, 0, 0, 1, 1.1368683772161603e-13, 2.842170943040401e-14)"/><path fill="#FFD494" d="M209.237,1445.002c-19.507-54.883-71.016-248.127-88.693-315.059l8.093-38.772&#10;&#9;&#9;&#9;&#9;&#9;c0,0,71.124,271.63,94.824,338.337c23.708,66.724,66.377,219.221,47.407,343.143c-10.81,70.587-34.187,118.818-64.364,147.867&#10;&#9;&#9;&#9;&#9;&#9;c23.236-29.782,41.096-73.268,50.149-132.406C275.623,1664.223,232.945,1511.726,209.237,1445.002z" transform="matrix(1, 0, 0, 1, 1.1368683772161603e-13, 2.842170943040401e-14)"/><path fill="#26082E" d="M793.46,2211.522h-23.169c-2.584,0-4.705-2.139-4.705-4.72v-511.416c0-2.632,2.121-4.754,4.705-4.754&#10;&#9;&#9;&#9;h23.169c2.584,0,4.705,2.122,4.705,4.754v511.416C798.166,2209.384,796.045,2211.522,793.46,2211.522z" transform="matrix(1, 0, 0, 1, 5.684341886080802e-14, 1.4210854715202004e-14)"/><path fill="#340B3F" d="M690.626,1586.65c24.652-69.387,98.642-351.95,98.642-351.95s73.99,282.563,98.642,351.95&#10;&#9;&#9;&#9;&#9;c24.669,69.404,69.053,228.055,49.329,356.955c-19.731,128.876-78.935,188.373-147.971,188.373&#10;&#9;&#9;&#9;&#9;c-69.053,0-128.231-59.497-147.963-188.373C621.574,1814.705,665.966,1656.055,690.626,1586.65z" transform="matrix(1, 0, 0, 1, 8.526512829121202e-14, 2.1316282072803006e-14)"/><path fill="#26082E" d="M644.95,1764.957c-2.857,38.874-2.601,78.046,3.628,114.806&#10;&#9;&#9;&#9;&#9;&#9;c21.819,128.767,85.471,187.89,159.328,187.481c26.326-0.158,59.941-1.756,93.225-9.467&#10;&#9;&#9;&#9;&#9;&#9;c-28,49.855-67.396,73.793-110.894,74.042c-69.052,0.4-128.571-58.765-149.015-187.54&#10;&#9;&#9;&#9;&#9;&#9;C632.11,1886.873,636.004,1823.737,644.95,1764.957z" transform="matrix(1, 0, 0, 1, 1.1368683772161603e-13, 2.842170943040401e-14)"/><path fill="#FFD494" d="M872.992,1602.786c-20.287-57.115-73.866-258.118-92.255-327.756l8.408-40.33&#10;&#9;&#9;&#9;&#9;&#9;c0,0,73.981,282.563,98.642,351.95c24.661,69.404,69.044,228.055,49.321,356.955c-11.241,73.425-35.57,123.622-66.957,153.836&#10;&#9;&#9;&#9;&#9;&#9;c24.171-30.98,42.743-76.23,52.17-137.742C942.053,1830.832,897.661,1672.19,872.992,1602.786z" transform="matrix(1, 0, 0, 1, 1.1368683772161603e-13, 2.842170943040401e-14)"/><path d="M 2850 2279.079102 L 1215.223999 2122.452881 L 1341.814941 2082.339111 L 1464.156982 1944.645996 L 1533.44104 1843.969971 L 1689.60498 1808.95105 L 1765.003052 1842.171997 L 2027.94397 1720.498047 L 2179.833984 1500.33606 L 2147.975098 1422.746948 L 2326.844971 1287.219971 L 2558.083008 1022.007996 L 2849.585938 912.655029 L 2847.581055 1138.286987 L 2850 1455.493042" clip-path="url(#SVGID_2_)" fill="#4A193C" transform="matrix(1, 0, 0, 1, 2.842170943040401e-14, 7.105427357601002e-15)"/><path fill="#5C204A" d="M1342.022,2082.339l122.342-137.693l69.077-100.676l156.379-35.019l75.382,33.221l262.957-121.674&#10;&#9;&#9;&#9;l151.874-220.162l-31.851-77.589l178.869-135.527l231.247-265.212l291.502-109.353l-0.695,78.239l-200.54,64.333l-77.13,208.971&#10;&#9;&#9;&#9;l-22.631-91.692l-39.132,76.831l-216.75,158.874v129.483l-66.336,20.016l-24.123,132.881l-42.221-26.992l-96.497,95.515&#10;&#9;&#9;&#9;l-66.344,66.447c0,0,16.882,117.012,7.836,119.085c-9.045,2.082-229.35-38.865-229.35-38.865l-91.304,4.264l21.024,95.739&#10;&#9;&#9;&#9;l-86.233-97.43c0,0-142.23,117.653-155.335,130.624c-10.711,10.607-87.84,71.136-87.84,71.136l-158.425,12.564l-2.344-0.225&#10;&#9;&#9;&#9;L1342.022,2082.339z" transform="matrix(1, 0, 0, 1, 5.684341886080802e-14, 1.4210854715202004e-14)"/><path fill="#26082E" d="M2118.717,1864.193h15.051c1.682,0,3.058-1.383,3.058-3.072v-332.436c0-1.698-1.376-3.08-3.058-3.08&#10;&#9;&#9;&#9;h-15.051c-1.69,0-3.065,1.382-3.065,3.08v332.436C2115.651,1862.811,2117.026,1864.193,2118.717,1864.193z" transform="matrix(1, 0, 0, 1, 5.684341886080802e-14, 1.4210854715202004e-14)"/><path fill="#340B3F" d="M2185.558,1458.032c-16.028-45.109-64.124-228.786-64.124-228.786s-48.087,183.677-64.124,228.786&#10;&#9;&#9;&#9;&#9;c-16.028,45.11-44.881,148.218-32.049,232.009c12.814,83.783,51.292,122.449,96.173,122.449&#10;&#9;&#9;&#9;&#9;c44.889,0,83.359-38.666,96.183-122.449C2230.438,1606.25,2201.586,1503.143,2185.558,1458.032z" transform="matrix(1, 0, 0, 1, 8.526512829121202e-14, 2.1316282072803006e-14)"/><path fill="#26082E" d="M2215.256,1573.903c1.845,25.285,1.681,50.738-2.37,74.642&#10;&#9;&#9;&#9;&#9;&#9;c-14.183,83.708-55.55,122.141-103.562,121.875c-17.123-0.109-38.967-1.15-60.604-6.162&#10;&#9;&#9;&#9;&#9;&#9;c18.207,32.404,43.812,47.981,72.085,48.14c44.881,0.241,83.574-38.198,96.869-121.923&#10;&#9;&#9;&#9;&#9;&#9;C2223.604,1653.174,2221.061,1612.128,2215.256,1573.903z" transform="matrix(1, 0, 0, 1, 1.1368683772161603e-13, 2.842170943040401e-14)"/><path fill="#FFD494" d="M2067.01,1468.507c13.188-37.117,48.021-167.791,59.975-213.059l-5.468-26.202&#10;&#9;&#9;&#9;&#9;&#9;c0,0-48.096,183.677-64.124,228.786c-16.029,45.11-44.889,148.218-32.059,232.009c7.314,47.74,23.12,80.361,43.531,100.001&#10;&#9;&#9;&#9;&#9;&#9;c-15.706-20.14-27.791-49.547-33.913-89.527C2022.129,1616.724,2050.98,1513.625,2067.01,1468.507z" transform="matrix(1, 0, 0, 1, 1.1368683772161603e-13, 2.842170943040401e-14)"/><path fill="#26082E" d="M2463.684,1684.371h15.058c1.682,0,3.058-1.373,3.058-3.072v-332.436c0-1.697-1.376-3.08-3.058-3.08&#10;&#9;&#9;&#9;h-15.058c-1.684,0-3.059,1.383-3.059,3.08v332.436C2460.625,1682.998,2462,1684.371,2463.684,1684.371z" transform="matrix(1, 0, 0, 1, 5.684341886080802e-14, 1.4210854715202004e-14)"/><path fill="#340B3F" d="M2530.523,1278.21c-16.029-45.108-64.116-228.786-64.116-228.786s-48.087,183.678-64.124,228.786&#10;&#9;&#9;&#9;&#9;c-16.027,45.11-44.881,148.234-32.059,232.009c12.823,83.784,51.302,122.449,96.183,122.449&#10;&#9;&#9;&#9;&#9;c44.89,0,83.358-38.665,96.183-122.449C2575.413,1426.444,2546.553,1323.32,2530.523,1278.21z" transform="matrix(1, 0, 0, 1, 8.526512829121202e-14, 2.1316282072803006e-14)"/><path fill="#26082E" d="M2560.22,1394.09c1.855,25.286,1.69,50.737-2.37,74.633c-14.181,83.709-55.55,122.141-103.561,121.874&#10;&#9;&#9;&#9;&#9;&#9;c-17.114-0.107-38.959-1.148-60.597-6.152c18.2,32.396,43.813,47.974,72.085,48.14c44.883,0.234,83.575-38.207,96.871-121.916&#10;&#9;&#9;&#9;&#9;&#9;C2568.57,1473.352,2566.026,1432.306,2560.22,1394.09z" transform="matrix(1, 0, 0, 1, 1.1368683772161603e-13, 2.842170943040401e-14)"/><path fill="#FFD494" d="M2411.984,1288.685c13.188-37.117,48.02-167.791,59.982-213.041l-5.485-26.22&#10;&#9;&#9;&#9;&#9;&#9;c0,0-48.087,183.678-64.116,228.786c-16.027,45.11-44.888,148.234-32.057,232.009c7.307,47.757,23.111,80.361,43.521,100.002&#10;&#9;&#9;&#9;&#9;&#9;c-15.706-20.131-27.782-49.547-33.913-89.528C2367.094,1436.901,2395.954,1333.802,2411.984,1288.685z" transform="matrix(1, 0, 0, 1, 1.1368683772161603e-13, 2.842170943040401e-14)"/><path fill="#26082E" d="M2303.061,1984.693h19.17c2.137,0,3.894-1.766,3.894-3.914v-423.27c0-2.173-1.757-3.93-3.894-3.93h-19.17&#10;&#9;&#9;&#9;c-2.144,0-3.901,1.757-3.901,3.93v423.27C2299.159,1982.928,2300.917,1984.693,2303.061,1984.693z" transform="matrix(1, 0, 0, 1, 5.684341886080802e-14, 1.4210854715202004e-14)"/><path fill="#340B3F" d="M2388.159,1467.524c-20.402-57.433-81.635-291.297-81.635-291.297s-61.234,233.864-81.644,291.297&#10;&#9;&#9;&#9;&#9;c-20.412,57.439-57.149,188.747-40.823,295.426c16.327,106.662,65.325,155.901,122.467,155.901&#10;&#9;&#9;&#9;&#9;c57.147,0,106.131-49.239,122.458-155.901C2445.317,1656.271,2408.578,1524.964,2388.159,1467.524z" transform="matrix(1, 0, 0, 1, 8.526512829121202e-14, 2.1316282072803006e-14)"/><path fill="#26082E" d="M2425.974,1615.092c2.354,32.18,2.147,64.593-3.014,95.015&#10;&#9;&#9;&#9;&#9;&#9;c-18.058,106.579-70.734,155.511-131.86,155.178c-21.794-0.142-49.611-1.457-77.153-7.843&#10;&#9;&#9;&#9;&#9;&#9;c23.169,41.271,55.772,61.078,91.774,61.286c57.148,0.324,106.412-48.64,123.335-155.219&#10;&#9;&#9;&#9;&#9;&#9;C2436.595,1716.001,2433.364,1663.739,2425.974,1615.092z" transform="matrix(1, 0, 0, 1, 1.1368683772161603e-13, 2.842170943040401e-14)"/><path fill="#FFD494" d="M2237.224,1480.871c16.798-47.267,61.142-213.634,76.367-271.266l-6.968-33.378&#10;&#9;&#9;&#9;&#9;&#9;c0,0-61.233,233.864-81.643,291.297c-20.404,57.439-57.141,188.747-40.823,295.426c9.312,60.779,29.44,102.316,55.419,127.319&#10;&#9;&#9;&#9;&#9;&#9;c-19.997-25.635-35.372-63.085-43.175-113.998C2180.074,1669.609,2216.811,1538.311,2237.224,1480.871z" transform="matrix(1, 0, 0, 1, 1.1368683772161603e-13, 2.842170943040401e-14)"/><path fill="#26082E" d="M1938.713,2102.379h19.176c2.129,0,3.894-1.748,3.894-3.904v-423.278c0-2.156-1.765-3.913-3.894-3.913&#10;&#9;&#9;&#9;h-19.176c-2.138,0-3.894,1.757-3.894,3.913v423.278C1934.819,2100.631,1936.575,2102.379,1938.713,2102.379z" transform="matrix(1, 0, 0, 1, 5.684341886080802e-14, 1.4210854715202004e-14)"/><path fill="#340B3F" d="M2023.818,1585.218c-20.41-57.431-81.644-291.288-81.644-291.288s-61.233,233.857-81.644,291.288&#10;&#9;&#9;&#9;&#9;c-20.412,57.449-57.141,188.74-40.822,295.427c16.336,106.671,65.325,155.91,122.466,155.91&#10;&#9;&#9;&#9;&#9;c57.157,0,106.139-49.239,122.466-155.91C2080.968,1773.958,2044.23,1642.667,2023.818,1585.218z" transform="matrix(1, 0, 0, 1, 8.526512829121202e-14, 2.1316282072803006e-14)"/><path fill="#26082E" d="M2061.626,1732.786c2.368,32.18,2.145,64.592-2.999,95.007&#10;&#9;&#9;&#9;&#9;&#9;c-18.075,106.596-70.743,155.526-131.876,155.177c-21.786-0.133-49.604-1.448-77.154-7.843&#10;&#9;&#9;&#9;&#9;&#9;c23.178,41.28,55.782,61.096,91.782,61.303c57.141,0.325,106.413-48.648,123.336-155.218&#10;&#9;&#9;&#9;&#9;&#9;C2072.262,1833.704,2069.031,1781.434,2061.626,1732.786z" transform="matrix(1, 0, 0, 1, 1.1368683772161603e-13, 2.842170943040401e-14)"/><path fill="#FFD494" d="M1872.891,1598.564c16.782-47.257,61.133-213.624,76.358-271.264l-6.967-33.371&#10;&#9;&#9;&#9;&#9;&#9;c0,0-61.241,233.857-81.636,291.288c-20.41,57.449-57.157,188.74-40.822,295.427c9.303,60.788,29.44,102.309,55.419,127.319&#10;&#9;&#9;&#9;&#9;&#9;c-20.014-25.627-35.38-63.076-43.175-113.989C1815.732,1787.304,1852.471,1655.997,1872.891,1598.564z" transform="matrix(1, 0, 0, 1, 1.1368683772161603e-13, 2.842170943040401e-14)"/><path fill="#26082E" d="M2614.429,2228.367h26.291c2.934,0,5.352-2.424,5.352-5.363v-580.578c0-2.956-2.418-5.379-5.352-5.379&#10;&#9;&#9;&#9;h-26.291c-2.933,0-5.352,2.423-5.352,5.379v580.578C2609.077,2225.943,2611.496,2228.367,2614.429,2228.367z" transform="matrix(1, 0, 0, 1, 5.684341886080802e-14, 1.4210854715202004e-14)"/><path fill="#340B3F" d="M2731.161,1519.012c-27.981-78.78-111.979-399.559-111.979-399.559s-83.995,320.778-111.986,399.559&#10;&#9;&#9;&#9;&#9;c-27.998,78.796-78.389,258.884-55.989,405.228c22.399,146.294,89.596,213.824,167.976,213.824&#10;&#9;&#9;&#9;&#9;c78.382,0,145.578-67.53,167.977-213.824C2809.559,1777.896,2759.16,1597.808,2731.161,1519.012z" transform="matrix(1, 0, 0, 1, 8.526512829121202e-14, 2.1316282072803006e-14)"/><path fill="#26082E" d="M2783.018,1721.413c3.24,44.144,2.949,88.604-4.117,130.332&#10;&#9;&#9;&#9;&#9;&#9;c-24.775,146.178-97.027,213.293-180.873,212.843c-29.887-0.183-68.041-1.98-105.824-10.766&#10;&#9;&#9;&#9;&#9;&#9;c31.768,56.617,76.499,83.791,125.878,84.084c78.388,0.449,145.968-66.732,169.178-212.91&#10;&#9;&#9;&#9;&#9;&#9;C2797.604,1859.831,2793.173,1788.153,2783.018,1721.413z" transform="matrix(1, 0, 0, 1, 1.1368683772161603e-13, 2.842170943040401e-14)"/><path fill="#FFD494" d="M2524.137,1537.312c23.028-64.818,83.863-293.029,104.738-372.067l-9.551-45.792&#10;&#9;&#9;&#9;&#9;&#9;c0,0-83.996,320.778-111.979,399.559c-28,78.796-78.389,258.884-55.99,405.228c12.758,83.358,40.375,140.315,76.012,174.627&#10;&#9;&#9;&#9;&#9;&#9;c-27.437-35.178-48.526-86.531-59.229-156.368C2445.739,1796.196,2496.137,1616.107,2524.137,1537.312z" transform="matrix(1, 0, 0, 1, 1.1368683772161603e-13, 2.842170943040401e-14)"/><path clip-path="url(#SVGID_2_)" fill="#26082E" d="M1300.852,2000.529c2.85-3.797,5.567-7.843,7.861-12.173&#10;&#9;&#9;c11.813-22.271,15.508-48.54,15.508-48.54s11.158,28.292,10.951,48.606c3.728-3.979,7.257-8.2,10.379-12.579&#10;&#9;&#9;c20.95-29.517,27.494-64.334,27.494-64.334s24.892,47.09,18.332,73.616c-2.121,8.567-4.789,15.969-7.422,22.055&#10;&#9;&#9;c6.958-10.54,14.82-25.352,20.626-44.608c13.088-43.437-19.641-85.882-19.641-85.882s40.731,26.294,60.438,59.447&#10;&#9;&#9;c-1.103-6.944-2.063-14.338-2.825-22.164c-7.854-80.119,41.286-87.764,41.286-87.764s-24.263,68.39,22.871,133.047&#10;&#9;&#9;c25.438,34.896,43.257,51.821,54.258,60.014c0.033-0.167,0.059-0.392,0.091-0.55c1.351,2.756,2.892,5.486,4.672,8.185h-280.435&#10;&#9;&#9;C1292.66,2018.638,1297.854,2009.795,1300.852,2000.529z" transform="matrix(1, 0, 0, 1, 2.842170943040401e-14, 7.105427357601002e-15)"/><path clip-path="url(#SVGID_2_)" fill="#26082E" d="M2044.338,2020.028c2.294-3.889,4.489-8.035,6.353-12.473&#10;&#9;&#9;c9.552-22.805,12.534-49.714,12.534-49.714s9.021,28.982,8.855,49.78c3.015-4.079,5.864-8.399,8.383-12.888&#10;&#9;&#9;c16.939-30.223,22.232-65.883,22.232-65.883s20.122,48.224,14.82,75.391c-1.715,8.784-3.869,16.353-5.997,22.588&#10;&#9;&#9;c5.624-10.79,11.978-25.96,16.675-45.684c10.578-44.485-15.88-87.954-15.88-87.954s32.929,26.934,48.856,60.887&#10;&#9;&#9;c-0.886-7.119-1.664-14.679-2.277-22.704c-6.354-82.044,16.932-128.511,16.932-128.511s-3.172,108.67,34.933,174.894&#10;&#9;&#9;c20.567,35.734,34.964,53.061,43.862,61.453c0.023-0.167,0.051-0.4,0.074-0.565c1.094,2.829,2.337,5.627,3.77,8.384h-226.7&#10;&#9;&#9;C2037.711,2038.569,2041.91,2029.512,2044.338,2020.028z" transform="matrix(1, 0, 0, 1, 2.842170943040401e-14, 7.105427357601002e-15)"/><path clip-path="url(#SVGID_2_)" fill="#26082E" d="M1229.331,2027.946c-2.295-4.338-4.49-8.968-6.354-13.921&#10;&#9;&#9;c-9.551-25.477-12.533-55.509-12.533-55.509s-9.021,32.354-8.855,55.575c-3.016-4.555-5.865-9.375-8.383-14.387&#10;&#9;&#9;c-16.94-33.754-22.234-73.567-22.234-73.567s-20.121,53.843-14.819,84.183c1.714,9.809,3.869,18.268,5.997,25.227&#10;&#9;&#9;c-5.625-12.055-11.979-28.99-16.675-51.013c-10.578-49.679,15.88-98.22,15.88-98.22s-32.928,30.073-48.857,67.989&#10;&#9;&#9;c0.886-7.951,1.665-16.385,2.278-25.352c6.353-91.61-16.933-143.497-16.933-143.497s3.173,121.342-34.932,195.292&#10;&#9;&#9;c-20.568,39.914-34.965,59.255-43.862,68.622c-0.024-0.184-0.05-0.441-0.074-0.633c-1.094,3.163-2.336,6.286-3.77,9.375h226.7&#10;&#9;&#9;C1235.958,2048.653,1231.758,2038.545,1229.331,2027.946z" transform="matrix(1, 0, 0, 1, 2.842170943040401e-14, 7.105427357601002e-15)"/><path clip-path="url(#SVGID_2_)" fill="#26082E" d="M420.67,2011.353c-2.295-3.256-4.49-6.736-6.354-10.458&#10;&#9;&#9;c-9.551-19.123-12.533-41.671-12.533-41.671s-9.021,24.296-8.855,41.722c-3.016-3.414-5.865-7.036-8.383-10.799&#10;&#9;&#9;c-16.94-25.336-22.234-55.233-22.234-55.233s-20.121,40.43-14.819,63.202c1.714,7.367,3.869,13.721,5.997,18.941&#10;&#9;&#9;c-5.625-9.051-11.979-21.765-16.675-38.3c-10.578-37.291,15.88-73.742,15.88-73.742s-32.928,22.579-48.857,51.046&#10;&#9;&#9;c0.886-5.969,1.665-12.298,2.278-19.032c6.353-68.78-16.933-107.729-16.933-107.729s3.173,91.093-34.932,146.618&#10;&#9;&#9;c-20.568,29.964-34.965,44.485-43.862,51.52c-0.025-0.142-0.05-0.332-0.075-0.482c-1.093,2.382-2.336,4.729-3.769,7.044h226.7&#10;&#9;&#9;C427.296,2026.897,423.097,2019.312,420.67,2011.353z" transform="matrix(1, 0, 0, 1, 2.842170943040401e-14, 7.105427357601002e-15)"/>
</svg>