<?xml version="1.0" encoding="UTF-8"?>
<svg id="master-artboard" viewBox="0 0 2850 2005.158" version="1.1" xmlns="http://www.w3.org/2000/svg" x="0px" y="0px" width="2850px" height="2005.157958984375px" enable-background="new 0 0 2850 2005.158" xmlns:xlink="http://www.w3.org/1999/xlink">
<defs>
		<path d="M 0 0 H 2850 V 2005.157959 H 0 V 0 Z" id="SVGID_1_"/>
	</defs><clipPath id="SVGID_2_">
		<use overflow="visible" xlink:href="#SVGID_1_"/>
	</clipPath><linearGradient id="SVGID_3_" gradientUnits="userSpaceOnUse" x1="1424.9995" y1="23.4443" x2="1424.9995" y2="1344.9562">
		<stop offset="0" style="stop-color:#AF203D"/>
		<stop offset="1" style="stop-color:#F9CF79"/>
	</linearGradient><path d="M 0 0 H 2850 V 2005.157959 H 0 V 0 Z" clip-path="url(#SVGID_2_)" fill="url(#SVGID_3_)" transform="matrix(1, 0, 0, 1, 0, 0)"/><path d="M 1357.619965 1364.746948 A 507.399994 509.984985 0 0 1 850.219971 1874.731934 A 507.399994 509.984985 0 0 1 342.819977 1364.746948 A 507.399994 509.984985 0 0 1 850.219971 854.761963 A 507.399994 509.984985 0 0 1 1357.619965 1364.746948 Z" clip-path="url(#SVGID_2_)" fill="#FFF8DB" transform="matrix(1, 0, 0, 1, 0, 0)"/><path clip-path="url(#SVGID_2_)" fill="#C97150" d="M1205.151,1300.57c0.083-7.367,4.49-14.154,11.366-17.51l24.072-11.771&#xA;&#9;&#9;c6.892-3.355,11.282-10.149,11.365-17.519l1.077-99.119c0.091-7.66,4.837-14.662,12.111-17.867l21.778-9.608&#xA;&#9;&#9;c5.426-2.39,9.535-6.91,11.241-12.406l8.168-26.109c2.601-8.334,10.57-14.119,19.55-14.204l55.625-0.499&#xA;&#9;&#9;c1.904-0.017,3.802-0.301,5.641-0.832l59.908-17.243c1.83-0.525,3.728-0.808,5.633-0.824l23.211-0.2&#xA;&#9;&#9;c11.166-0.117,20.112,8.533,19.996,19.292l-2.907,267.343c-0.074,7.036,3.786,13.498,10.098,16.894l3.761,2.016&#xA;&#9;&#9;c13.387,7.192,30.152-2.348,30.318-17.252l0.331-31.289c0.051-3.946,1.317-7.783,3.653-11.056l20.609-28.767&#xA;&#9;&#9;c2.336-3.264,3.612-7.11,3.646-11.031l0.621-57.666c0.133-10.766,9.27-19.565,20.428-19.673l39.554-0.359&#xA;&#9;&#9;c11.158-0.092,20.104,8.551,19.989,19.3l-1.426,130.7c-0.049,5.162,2.03,10.1,5.774,13.722l26.814,25.86&#xA;&#9;&#9;c3.744,3.63,5.815,8.559,5.766,13.736l-1.673,154.014c-0.116,10.757,8.83,19.399,19.996,19.299l17.445-0.158&#xA;&#9;&#9;c11.166-0.101,20.113,8.534,19.997,19.291l-0.307,28.166c-0.008,0.8,0.009,1.491,0.108,2.281&#xA;&#9;&#9;c1.101,9.275,12.035,67.622,112.766,66.715l-653.915,19.601l-129.068,1.174c0,0,106.811-18.059,108.044-131.657l1.293-119.011&#xA;&#9;&#9;l31.163-27.343L1205.151,1300.57z" transform="matrix(1, 0, 0, 1, 0, 0)"/><path clip-path="url(#SVGID_2_)" fill="#C97150" d="M2975.225,1936.846l-69.186-296.587l-337.975,13.996&#xA;&#9;&#9;c0,0-64.761-7.144-165.407-11.947c-15.757-0.758-80.154,12.279-97.55,11.681c-122.706-4.245-235.853-17.55-396.191,0.267&#xA;&#9;&#9;c-328.332,36.502-155.17,6.128-309.884,0.384c-61.3-2.281-230.809,5.878-415.27,16.335c-12.259,0.699-63.909,9.474-76.276,10.191&#xA;&#9;&#9;c-77.501,4.472-153.38,8.617-222.681,12.205c-10.206,0.533-261.35-41.979-261.35-41.979&#xA;&#9;&#9;c-233.269-11.132-272.037,46.81-491.952,46.81c-80.583,0-179.325,23.736-183.906,23.229l-23.948,80.903" transform="matrix(1, 0, 0, 1, 0, 0)"/><path clip-path="url(#SVGID_2_)" fill="#A9373B" d="M1599.032,1751.053c0,0-251.277-25.686-589.575-36.951&#xA;&#9;&#9;c-40.424-1.349-218.805,27.992-252.403,12.355c-27.303-12.706-185.231-14.17-395.497-1.065&#xA;&#9;&#9;c-24.229,1.507-84.791,14.771-126.177,17.41c-91.833,5.86-174.818-2.69-254.475,8.251v139.557l1604.904-62.951" transform="matrix(1, 0, 0, 1, 0, 0)"/><path clip-path="url(#SVGID_2_)" fill="#BD6D4D" d="M1060.344,1678.15" transform="matrix(1, 0, 0, 1, 0, 0)"/><path clip-path="url(#SVGID_2_)" fill="#C97150" d="M-152.444,1736.131c12.202-3.113,111.747-8.866,120.9-9.398&#xA;&#9;&#9;c0.522-0.024,0.903-0.059,1.417-0.142c9.518-1.516,107.986-19.058,102.32-92.868l-6.951-90.576&#xA;&#9;&#9;c-0.771-9.983,4.689-19.033,12.989-21.556l13.776-4.163c8.3-2.515,13.75-11.565,12.988-21.557l-5.268-68.597&#xA;&#9;&#9;c-0.746-9.725,4.432-18.624,12.459-21.381l8.789-2.979c10.942-3.764,22.308,5.303,23.327,18.591l0,0&#xA;&#9;&#9;c0.721,9.424,6.809,17.243,14.835,19.075l22.341,5.045c8.027,1.798,14.116,9.625,14.836,19.058l1.367,17.784&#xA;&#9;&#9;c0.687,8.951,6.246,16.527,13.792,18.775l21.008,6.244c7.546,2.249,13.104,9.816,13.792,18.783l6.585,85.832&#xA;&#9;&#9;c0.381,4.953,2.22,9.565,5.269,13.12c9.99,11.656,36.017,41.131,78.354,83.284" transform="matrix(1, 0, 0, 1, 0, 0)"/><path d="M 2590.032958984375 506.8299865722656 L 2587.830078125 510.0530090332031 L 2585.468994140625 506.92999267578125 L 2587.35693359375 510.89300537109375 L 2585.64501953125 514.9559936523438 L 2587.928955078125 511.885009765625 L 2590.197998046875 514.8560180664062 L 2588.40087890625 511.0429992675781 Z" opacity="0.93" fill="#FFFFFF" transform="matrix(1, 0, 0, 1, 0, 0)"/><path d="M 1496.1820068359375 1028.0980224609375 L 1492.280029296875 1031.35400390625 L 1488.18798828125 1028.27197265625 L 1491.43603515625 1032.1929931640625 L 1488.3699951171875 1036.2989501953125 L 1492.4129638671875 1033.18603515625 L 1496.35498046875 1036.1240234375 L 1493.258056640625 1032.343994140625 Z" opacity="0.93" fill="#FFFFFF" transform="matrix(1, 0, 0, 1, 0, 0)"/><path d="M 2319.968994140625 1015.6840209960938 L 2312.47998046875 1021.9359741210938 L 2304.64306640625 1016.0250244140625 L 2310.864990234375 1023.551025390625 L 2304.98291015625 1031.427978515625 L 2312.74609375 1025.449951171875 L 2320.31591796875 1031.0870361328125 L 2314.361083984375 1023.8270263671875 Z" opacity="0.93" fill="#FFFFFF" transform="matrix(1, 0, 0, 1, 0, 0)"/><path d="M 2054.676025390625 1073.758056640625 L 2050.76611328125 1077.011962890625 L 2046.6820068359375 1073.9329833984375 L 2049.9208984375 1077.8609619140625 L 2046.85595703125 1081.967041015625 L 2050.906982421875 1078.843994140625 L 2054.85009765625 1081.782958984375 L 2051.742919921875 1078.0040283203125 Z" opacity="0.93" fill="#FFFFFF" transform="matrix(1, 0, 0, 1, 0, 0)"/><path d="M 2342.550048828125 638.4619750976562 L 2338.64794921875 641.718017578125 L 2334.56396484375 638.6380004882812 L 2337.81201171875 642.5599975585938 L 2334.7470703125 646.6630249023438 L 2338.7900390625 643.5499877929688 L 2342.73095703125 646.489013671875 L 2339.635009765625 642.7000122070312 Z" opacity="0.93" fill="#FFFFFF" transform="matrix(1, 0, 0, 1, 0, 0)"/><path d="M 800.02099609375 864.8690185546875 L 796.1110229492188 868.125 L 792.0280151367188 865.0440063476562 L 795.2750244140625 868.9730224609375 L 792.2100219726562 873.0780029296875 L 796.2520141601562 869.9550170898438 L 800.1950073242188 872.9039916992188 L 797.0969848632812 869.114990234375 Z" opacity="0.93" fill="#FFFFFF" transform="matrix(1, 0, 0, 1, 0, 0)"/><path d="M 1681.52099609375 476.3909912109375 L 1677.6109619140625 479.64599609375 L 1673.5269775390625 476.56500244140625 L 1676.7740478515625 480.4960021972656 L 1673.708984375 484.60101318359375 L 1677.751953125 481.4779968261719 L 1681.6939697265625 484.4169921875 L 1678.5970458984375 480.63800048828125 Z" opacity="0.93" fill="#FFFFFF" transform="matrix(1, 0, 0, 1, 0, 0)"/><path d="M 1920.9610595703125 533.2059936523438 L 1917.7130126953125 529.2769775390625 L 1920.7779541015625 525.1810302734375 L 1916.8680419921875 528.43701171875 L 1912.79296875 525.3560180664062 L 1915.8909912109375 529.427001953125 L 1912.967041015625 533.3900146484375 L 1916.7359619140625 530.2670288085938 Z" opacity="0.93" fill="#FFFFFF" transform="matrix(1, 0, 0, 1, 0, 0)"/><path d="M 137.4510040283203 877.0070190429688 L 134.2050018310547 873.0780029296875 L 137.2689971923828 868.9730224609375 L 133.35899353027344 872.2379760742188 L 129.28399658203125 869.156982421875 L 132.3820037841797 873.219970703125 L 129.45799255371094 877.1820068359375 L 133.2270050048828 874.0679931640625 Z" opacity="0.93" fill="#FFFFFF" transform="matrix(1, 0, 0, 1, 0, 0)"/><path d="M 167.91799926757812 1113.1300048828125 L 164.67100524902344 1109.208984375 L 167.73599243164062 1105.10400390625 L 163.8350067138672 1108.3599853515625 L 159.75 1105.279052734375 L 162.8489990234375 1109.343017578125 L 159.9250030517578 1113.3050537109375 L 163.69400024414062 1110.18994140625 Z" opacity="0.93" fill="#FFFFFF" transform="matrix(1, 0, 0, 1, 0, 0)"/><path d="M 385.7879943847656 861.7039794921875 L 382.54901123046875 857.7750244140625 L 385.614013671875 853.6699829101562 L 381.7040100097656 856.9349975585938 L 377.6199951171875 853.85400390625 L 380.72601318359375 857.9169921875 L 377.79400634765625 861.8800048828125 L 381.56298828125 858.7650146484375 Z" opacity="0.93" fill="#FFFFFF" transform="matrix(1, 0, 0, 1, 0, 0)"/><path d="M 444.0220031738281 891.1790161132812 L 440.7829895019531 887.2570190429688 L 443.8479919433594 883.1439819335938 L 439.93798828125 886.4080200195312 L 435.85400390625 883.3270263671875 L 438.96099853515625 887.3900146484375 L 436.02801513671875 891.35302734375 L 439.7969970703125 888.239013671875 Z" opacity="0.93" fill="#FFFFFF" transform="matrix(1, 0, 0, 1, 0, 0)"/><path d="M 657.864990234375 716.8350219726562 L 654.6259765625 712.9140014648438 L 657.6909790039062 708.8079833984375 L 653.781982421875 712.0640258789062 L 649.697021484375 708.9829711914062 L 652.8040161132812 713.0540161132812 L 649.8790283203125 717.0170288085938 L 653.6400146484375 713.89599609375 Z" opacity="0.93" fill="#FFFFFF" transform="matrix(1, 0, 0, 1, 0, 0)"/><path d="M 2553.73388671875 1148.81494140625 L 2550.493896484375 1144.885009765625 L 2553.56103515625 1140.780029296875 L 2549.657958984375 1144.0450439453125 L 2545.56494140625 1140.9639892578125 L 2548.673095703125 1145.0269775390625 L 2545.748046875 1148.989990234375 L 2549.510009765625 1145.875 Z" opacity="0.93" fill="#FFFFFF" transform="matrix(1, 0, 0, 1, 0, 0)"/><path d="M 2710.14599609375 673.6069946289062 L 2706.89892578125 669.6840209960938 L 2709.962890625 665.5809936523438 L 2706.054931640625 668.8359985351562 L 2701.97900390625 665.7550048828125 L 2705.075927734375 669.8179931640625 L 2702.14501953125 673.7899780273438 L 2705.922119140625 670.6669921875 Z" opacity="0.93" fill="#FFFFFF" transform="matrix(1, 0, 0, 1, 0, 0)"/><path d="M 2774.64306640625 704.1710205078125 L 2771.403076171875 700.2410278320312 L 2774.470947265625 696.14501953125 L 2770.56689453125 699.4000244140625 L 2766.47607421875 696.3189697265625 L 2769.5830078125 700.3829956054688 L 2766.657958984375 704.3460083007812 L 2770.4189453125 701.2319946289062 Z" opacity="0.93" fill="#FFFFFF" transform="matrix(1, 0, 0, 1, 0, 0)"/><path d="M 2541.666015625 792.875 L 2538.426025390625 788.9439697265625 L 2541.489990234375 784.8489990234375 L 2537.58203125 788.10400390625 L 2533.4970703125 785.0230102539062 L 2536.60302734375 789.0859985351562 L 2533.6708984375 793.0499877929688 L 2537.43994140625 789.9359741210938 Z" opacity="0.93" fill="#FFFFFF" transform="matrix(1, 0, 0, 1, 0, 0)"/><path d="M 2270.780029296875 424.0039978027344 L 2267.532958984375 420.0830078125 L 2270.597900390625 415.9779968261719 L 2266.68798828125 419.2330017089844 L 2262.613037109375 416.1520080566406 L 2265.7099609375 420.2250061035156 L 2262.785888671875 424.18798828125 L 2266.554931640625 421.06500244140625 Z" opacity="0.93" fill="#FFFFFF" transform="matrix(1, 0, 0, 1, 0, 0)"/><path d="M 2670.741943359375 320.80499267578125 L 2667.501953125 316.8840026855469 L 2670.56591796875 312.77099609375 L 2666.656982421875 316.03399658203125 L 2662.572998046875 312.9540100097656 L 2665.678955078125 317.0169982910156 L 2662.7470703125 320.97900390625 L 2666.51611328125 317.8659973144531 Z" opacity="0.93" fill="#FFFFFF" transform="matrix(1, 0, 0, 1, 0, 0)"/><path d="M 1033.032958984375 1103.22998046875 L 1027.18505859375 1108.1090087890625 L 1021.0800170898438 1103.4969482421875 L 1025.926025390625 1109.375 L 1021.344970703125 1115.511962890625 L 1027.4000244140625 1110.8489990234375 L 1033.2979736328125 1115.2530517578125 L 1028.6590576171875 1109.583984375 Z" opacity="0.93" fill="#FFFFFF" transform="matrix(1, 0, 0, 1, 0, 0)"/><path d="M 2194.174072265625 800.0689697265625 L 2188.3330078125 804.93798828125 L 2182.22802734375 800.333984375 L 2187.072998046875 806.2039794921875 L 2182.491943359375 812.3410034179688 L 2188.5400390625 807.677978515625 L 2194.43798828125 812.0750122070312 L 2189.798095703125 806.4130249023438 Z" opacity="0.93" fill="#FFFFFF" transform="matrix(1, 0, 0, 1, 0, 0)"/><path d="M 1353.6280517578125 341.9779968261719 L 1349.718017578125 345.24200439453125 L 1345.634033203125 342.1610107421875 L 1348.873046875 346.0820007324219 L 1345.8089599609375 350.18798828125 L 1349.8580322265625 347.072998046875 L 1353.802001953125 350.0039978027344 L 1350.7039794921875 346.2239990234375 Z" opacity="0.93" fill="#FFFFFF" transform="matrix(1, 0, 0, 1, 0, 0)"/><path d="M 1020.2680053710938 369.87799072265625 L 1018.072021484375 373.1000061035156 L 1015.7119750976562 369.9779968261719 L 1017.5919799804688 373.9330139160156 L 1015.885986328125 378.00299072265625 L 1018.1640014648438 374.9309997558594 L 1020.4420166015625 377.90399169921875 L 1018.635986328125 374.09100341796875 Z" opacity="0.93" fill="#FFFFFF" transform="matrix(1, 0, 0, 1, 0, 0)"/><path d="M 1267.344970703125 113.7979965209961 L 1263.43603515625 117.05400085449219 L 1259.3590087890625 113.98100280761719 L 1262.5989990234375 117.90299987792969 L 1259.532958984375 122.00700378417969 L 1263.583984375 118.88500213623047 L 1267.5269775390625 121.8239974975586 L 1264.4210205078125 118.04499816894531 Z" opacity="0.93" fill="#FFFFFF" transform="matrix(1, 0, 0, 1, 0, 0)"/><path d="M 750.2109985351562 878.7319946289062 L 742.7139892578125 884.9760131835938 L 734.8870239257812 879.0640258789062 L 741.0989990234375 886.5999755859375 L 735.218017578125 894.4760131835938 L 742.9879760742188 888.489013671875 L 750.551025390625 894.135009765625 L 744.594970703125 886.8740234375 Z" opacity="0.93" fill="#FFFFFF" transform="matrix(1, 0, 0, 1, 0, 0)"/><path d="M 484.9110107421875 936.8040161132812 L 481.00799560546875 940.0599975585938 L 476.9169921875 936.97900390625 L 480.16400146484375 940.9099731445312 L 477.0989990234375 945.0050048828125 L 481.1409912109375 941.8920288085938 L 485.0840148925781 944.8309936523438 L 481.9859924316406 941.051025390625 Z" opacity="0.93" fill="#FFFFFF" transform="matrix(1, 0, 0, 1, 0, 0)"/><path d="M 772.7919921875 501.50201416015625 L 768.8829956054688 504.7659912109375 L 764.8079833984375 501.68499755859375 L 768.0460205078125 505.6059875488281 L 764.9810180664062 509.71099853515625 L 769.031982421875 506.5979919433594 L 772.9749755859375 509.5369873046875 L 769.8690185546875 505.74798583984375 Z" opacity="0.93" fill="#FFFFFF" transform="matrix(1, 0, 0, 1, 0, 0)"/><path d="M 1241.5909423828125 773.5419921875 L 1235.7509765625 778.4219970703125 L 1229.637939453125 773.8079833984375 L 1234.491943359375 779.6859741210938 L 1229.9029541015625 785.822998046875 L 1235.9580078125 781.1599731445312 L 1241.85595703125 785.5570068359375 L 1237.217041015625 779.89501953125 Z" opacity="0.93" fill="#FFFFFF" transform="matrix(1, 0, 0, 1, 0, 0)"/><path d="M 1553.2969970703125 639.2789916992188 L 1550.051025390625 635.3489990234375 L 1553.114990234375 631.2449951171875 L 1549.2049560546875 634.5 L 1545.1300048828125 631.4190063476562 L 1548.22900390625 635.489990234375 L 1545.3050537109375 639.4539794921875 L 1549.072998046875 636.3309936523438 Z" opacity="0.93" fill="#FFFFFF" transform="matrix(1, 0, 0, 1, 0, 0)"/><path d="M 1813.281005859375 555.0029907226562 L 1810.04296875 551.073974609375 L 1813.1070556640625 546.97900390625 L 1809.197021484375 550.2340087890625 L 1805.113037109375 547.1530151367188 L 1808.219970703125 551.2239990234375 L 1805.2869873046875 555.18798828125 L 1809.0570068359375 552.0640258789062 Z" opacity="0.93" fill="#FFFFFF" transform="matrix(1, 0, 0, 1, 0, 0)"/><path d="M 1855.5360107421875 983.0549926757812 L 1852.3060302734375 979.1339721679688 L 1855.362060546875 975.0289916992188 L 1851.4599609375 978.2839965820312 L 1847.376953125 975.2030029296875 L 1850.4749755859375 979.2739868164062 L 1847.551025390625 983.2379760742188 L 1851.3189697265625 980.1160278320312 Z" opacity="0.93" fill="#FFFFFF" transform="matrix(1, 0, 0, 1, 0, 0)"/><path d="M 1735.3070068359375 815.93798828125 L 1732.06005859375 812.0079956054688 L 1735.1240234375 807.9019775390625 L 1731.2149658203125 811.1580200195312 L 1727.1390380859375 808.0789794921875 L 1730.237060546875 812.1489868164062 L 1727.31298828125 816.1129760742188 L 1731.08203125 812.989990234375 Z" opacity="0.93" fill="#FFFFFF" transform="matrix(1, 0, 0, 1, 0, 0)"/><path d="M 1782.9949951171875 783.6170043945312 L 1779.7569580078125 779.6859741210938 L 1782.822021484375 775.5830078125 L 1778.9119873046875 778.8380126953125 L 1774.8280029296875 775.7570190429688 L 1777.93505859375 779.8200073242188 L 1775.001953125 783.7919921875 L 1778.77099609375 780.6680297851562 Z" opacity="0.93" fill="#FFFFFF" transform="matrix(1, 0, 0, 1, 0, 0)"/><path d="M 1502.3609619140625 978.9580078125 L 1499.123046875 975.0289916992188 L 1502.18798828125 970.9229736328125 L 1498.2769775390625 974.1790161132812 L 1494.1929931640625 971.0999755859375 L 1497.300048828125 975.1699829101562 L 1494.366943359375 979.1339721679688 L 1498.136962890625 976.010986328125 Z" opacity="0.93" fill="#FFFFFF" transform="matrix(1, 0, 0, 1, 0, 0)"/><path d="M 1308.614013671875 1076.56201171875 L 1305.366943359375 1072.634033203125 L 1308.4320068359375 1068.5279541015625 L 1304.530029296875 1071.7919921875 L 1300.447021484375 1068.7130126953125 L 1303.5450439453125 1072.77294921875 L 1300.6209716796875 1076.737060546875 L 1304.3900146484375 1073.6240234375 Z" opacity="0.93" fill="#FFFFFF" transform="matrix(1, 0, 0, 1, 0, 0)"/><path d="M 983.9769897460938 1011.85400390625 L 980.72998046875 1007.9340209960938 L 983.7949829101562 1003.8280029296875 L 979.8939819335938 1007.083984375 L 975.8090209960938 1004.0029907226562 L 978.906982421875 1008.072998046875 L 975.9829711914062 1012.0369873046875 L 979.7520141601562 1008.9149780273438 Z" opacity="0.93" fill="#FFFFFF" transform="matrix(1, 0, 0, 1, 0, 0)"/><path d="M 1140.3809814453125 536.6530151367188 L 1137.1419677734375 532.7249755859375 L 1140.20703125 528.6270141601562 L 1136.2969970703125 531.8820190429688 L 1132.2130126953125 528.802001953125 L 1135.31201171875 532.864990234375 L 1132.386962890625 536.8280029296875 L 1136.156005859375 533.7139892578125 Z" opacity="0.93" fill="#FFFFFF" transform="matrix(1, 0, 0, 1, 0, 0)"/><path d="M 1204.885986328125 567.2100219726562 L 1201.6390380859375 563.2890014648438 L 1204.7039794921875 559.1840209960938 L 1200.802001953125 562.447021484375 L 1196.718994140625 559.3579711914062 L 1199.8160400390625 563.4290161132812 L 1196.8929443359375 567.3930053710938 L 1200.6619873046875 564.2789916992188 Z" opacity="0.93" fill="#FFFFFF" transform="matrix(1, 0, 0, 1, 0, 0)"/><path d="M 971.8989868164062 655.9140014648438 L 968.6610107421875 651.9920043945312 L 971.7260131835938 647.8870239257812 L 967.822998046875 651.1519775390625 L 963.7319946289062 648.06201171875 L 966.8380126953125 652.1339721679688 L 963.9140014648438 656.0980224609375 L 967.6749877929688 652.9819946289062 Z" opacity="0.93" fill="#FFFFFF" transform="matrix(1, 0, 0, 1, 0, 0)"/><path d="M 701.0150146484375 287.0509948730469 L 697.7760009765625 283.12200927734375 L 700.8410034179688 279.0169982910156 L 696.9310302734375 282.281005859375 L 692.8469848632812 279.20001220703125 L 695.9539794921875 283.2640075683594 L 693.02099609375 287.22698974609375 L 696.7899780273438 284.11199951171875 Z" opacity="0.93" fill="#FFFFFF" transform="matrix(1, 0, 0, 1, 0, 0)"/><path d="M 1100.9759521484375 183.8520050048828 L 1097.737060546875 179.9219970703125 L 1100.802001953125 175.8179931640625 L 1096.9000244140625 179.08200073242188 L 1092.8079833984375 175.9929962158203 L 1095.9139404296875 180.06399536132812 L 1092.989990234375 184.02699279785156 L 1096.759033203125 180.90499877929688 Z" opacity="0.93" fill="#FFFFFF" transform="matrix(1, 0, 0, 1, 0, 0)"/><path d="M 624.416015625 663.1079711914062 L 618.5670166015625 667.9860229492188 L 612.4619750976562 663.375 L 617.3170166015625 669.2520141601562 L 612.72802734375 675.3880004882812 L 618.7830200195312 670.7260131835938 L 624.6810302734375 675.1209716796875 L 620.0419921875 669.4600219726562 Z" opacity="0.93" fill="#FFFFFF" transform="matrix(1, 0, 0, 1, 0, 0)"/><path d="M 910.7490234375 171.71299743652344 L 906.8389892578125 174.9770050048828 L 902.7639770507812 171.89599609375 L 906.0029907226562 175.8179931640625 L 902.93798828125 179.9219970703125 L 906.9879760742188 176.8090057373047 L 910.9310302734375 179.7480010986328 L 907.8250122070312 175.95899963378906 Z" opacity="0.93" fill="#FFFFFF" transform="matrix(1, 0, 0, 1, 0, 0)"/><path d="M 568.9730224609375 321.5790100097656 L 566.77001953125 324.8009948730469 L 564.4080200195312 321.6789855957031 L 566.2969970703125 325.6419982910156 L 564.5910034179688 329.7139892578125 L 566.8690185546875 326.63299560546875 L 569.14697265625 329.6130065917969 L 567.3410034179688 325.79998779296875 Z" opacity="0.93" fill="#FFFFFF" transform="matrix(1, 0, 0, 1, 0, 0)"/><path d="M 816.0499877929688 65.50800323486328 L 812.1400146484375 68.76399993896484 L 808.0640258789062 65.68299865722656 L 811.302978515625 69.60399627685547 L 808.239013671875 73.70899963378906 L 812.2899780273438 70.59600067138672 L 816.2239990234375 73.53500366210938 L 813.1259765625 69.75399780273438 Z" opacity="0.93" fill="#FFFFFF" transform="matrix(1, 0, 0, 1, 0, 0)"/><path d="M 298.9169921875 830.4320068359375 L 291.4200134277344 836.6859741210938 L 283.5830078125 830.7730102539062 L 289.80499267578125 838.301025390625 L 283.9230041503906 846.177001953125 L 291.6860046386719 840.198974609375 L 299.24798583984375 845.8350219726562 L 293.3009948730469 838.5759887695312 Z" opacity="0.93" fill="#FFFFFF" transform="matrix(1, 0, 0, 1, 0, 0)"/><path d="M 33.6150016784668 888.5059814453125 L 29.70599937438965 891.77001953125 L 25.621999740600586 888.68798828125 L 28.868999481201172 892.6099853515625 L 25.804000854492188 896.7150268554688 L 29.84600067138672 893.6019897460938 L 33.78900146484375 896.541015625 L 30.69099998474121 892.7520141601562 Z" opacity="0.93" fill="#FFFFFF" transform="matrix(1, 0, 0, 1, 0, 0)"/><path d="M 321.49798583984375 453.2120056152344 L 317.5880126953125 456.4670104980469 L 313.5039978027344 453.3869934082031 L 316.75201416015625 457.3080139160156 L 313.68701171875 461.4209899902344 L 317.72900390625 458.2980041503906 L 321.6719970703125 461.2380065917969 L 318.56500244140625 457.4580078125 Z" opacity="0.93" fill="#FFFFFF" transform="matrix(1, 0, 0, 1, 0, 0)"/><path d="M 790.2969970703125 725.2509765625 L 784.447998046875 730.1220092773438 L 778.343017578125 725.5180053710938 L 783.197021484375 731.3880004882812 L 778.6079711914062 737.5330200195312 L 784.655029296875 732.8610229492188 L 790.56201171875 737.2659912109375 L 785.9140014648438 731.5969848632812 Z" opacity="0.93" fill="#FFFFFF" transform="matrix(1, 0, 0, 1, 0, 0)"/><path d="M 1101.9949951171875 590.97900390625 L 1098.7559814453125 587.0579833984375 L 1101.8199462890625 582.9450073242188 L 1097.9110107421875 586.2100219726562 L 1093.8349609375 583.1290283203125 L 1096.9329833984375 587.1920166015625 L 1094.009033203125 591.156005859375 L 1097.7779541015625 588.041015625 Z" opacity="0.93" fill="#FFFFFF" transform="matrix(1, 0, 0, 1, 0, 0)"/><path d="M 1361.9859619140625 506.7139892578125 L 1358.7469482421875 502.78399658203125 L 1361.81201171875 498.6789855957031 L 1357.9019775390625 501.9339904785156 L 1353.8179931640625 498.8550109863281 L 1356.925048828125 502.9259948730469 L 1353.9930419921875 506.8890075683594 L 1357.761962890625 503.77398681640625 Z" opacity="0.93" fill="#FFFFFF" transform="matrix(1, 0, 0, 1, 0, 0)"/><path d="M 1404.240966796875 934.7650146484375 L 1401.001953125 930.833984375 L 1404.0670166015625 926.72998046875 L 1400.166015625 929.9940185546875 L 1396.073974609375 926.905029296875 L 1399.1800537109375 930.9760131835938 L 1396.2559814453125 934.9390258789062 L 1400.0169677734375 931.8259887695312 Z" opacity="0.93" fill="#FFFFFF" transform="matrix(1, 0, 0, 1, 0, 0)"/><path d="M 1284.0030517578125 767.6389770507812 L 1280.7650146484375 763.7169799804688 L 1283.8299560546875 759.60400390625 L 1279.9200439453125 762.8670043945312 L 1275.8349609375 759.7880249023438 L 1278.9420166015625 763.8519897460938 L 1276.010009765625 767.81298828125 L 1279.7779541015625 764.698974609375 Z" opacity="0.93" fill="#FFFFFF" transform="matrix(1, 0, 0, 1, 0, 0)"/><path d="M 1331.6920166015625 735.3170166015625 L 1328.4539794921875 731.3880004882812 L 1331.51904296875 727.2830200195312 L 1327.616943359375 730.5479736328125 L 1323.5250244140625 727.4669799804688 L 1326.6309814453125 731.530029296875 L 1323.70703125 735.4929809570312 L 1327.4759521484375 732.3779907226562 Z" opacity="0.93" fill="#FFFFFF" transform="matrix(1, 0, 0, 1, 0, 0)"/><path d="M 1051.0589599609375 930.6599731445312 L 1047.8199462890625 926.72998046875 L 1050.884033203125 922.625 L 1046.9830322265625 925.8889770507812 L 1042.8909912109375 922.8090209960938 L 1045.9969482421875 926.8729858398438 L 1043.072998046875 930.833984375 L 1046.8330078125 927.7210083007812 Z" opacity="0.93" fill="#FFFFFF" transform="matrix(1, 0, 0, 1, 0, 0)"/><path d="M 857.3189697265625 1028.2650146484375 L 854.072021484375 1024.343994140625 L 857.1370239257812 1020.2379760742188 L 853.22802734375 1023.4940185546875 L 849.1510009765625 1020.4130249023438 L 852.25 1024.4849853515625 L 849.3259887695312 1028.447021484375 L 853.094970703125 1025.324951171875 Z" opacity="0.93" fill="#FFFFFF" transform="matrix(1, 0, 0, 1, 0, 0)"/><path d="M 532.6820068359375 963.5640258789062 L 529.4359741210938 959.6339721679688 L 532.5 955.530029296875 L 528.5900268554688 958.7930297851562 L 524.5150146484375 955.7119750976562 L 527.6129760742188 959.7750244140625 L 524.68798828125 963.739013671875 L 528.4580078125 960.625 Z" opacity="0.93" fill="#FFFFFF" transform="matrix(1, 0, 0, 1, 0, 0)"/><path d="M 689.0780029296875 488.3630065917969 L 685.8389892578125 484.4339904785156 L 688.9039916992188 480.3290100097656 L 685.0029907226562 483.5840148925781 L 680.9180297851562 480.50299072265625 L 684.0170288085938 484.5740051269531 L 681.0919799804688 488.5379943847656 L 684.8610229492188 485.4169921875 Z" opacity="0.93" fill="#FFFFFF" transform="matrix(1, 0, 0, 1, 0, 0)"/><path d="M 753.5919799804688 518.9199829101562 L 750.343994140625 514.989013671875 L 753.4089965820312 510.89300537109375 L 749.4990234375 514.1480102539062 L 745.4240112304688 511.0679931640625 L 748.52197265625 515.1400146484375 L 745.5980224609375 519.1019897460938 L 749.3670043945312 515.97998046875 Z" opacity="0.93" fill="#FFFFFF" transform="matrix(1, 0, 0, 1, 0, 0)"/><path d="M 520.60498046875 607.6240234375 L 517.364990234375 603.6939697265625 L 520.4310302734375 599.5969848632812 L 516.5289916992188 602.85302734375 L 512.43701171875 599.7730102539062 L 515.5430297851562 603.843994140625 L 512.6190185546875 607.8079833984375 L 516.3800048828125 604.6849975585938 Z" opacity="0.93" fill="#FFFFFF" transform="matrix(1, 0, 0, 1, 0, 0)"/><path d="M 249.72000122070312 238.7530059814453 L 246.4810028076172 234.83200073242188 L 249.54600524902344 230.7270050048828 L 245.63600158691406 233.98199462890625 L 241.552001953125 230.90199279785156 L 244.65899658203125 234.97300720214844 L 241.7270050048828 238.93699645996094 L 245.49600219726562 235.81399536132812 Z" opacity="0.93" fill="#FFFFFF" transform="matrix(1, 0, 0, 1, 0, 0)"/><path d="M 649.6810302734375 135.5540008544922 L 646.4420166015625 131.6320037841797 L 649.5070190429688 127.5270004272461 L 645.60498046875 130.7830047607422 L 641.5130004882812 127.7020034790039 L 644.6199951171875 131.76499938964844 L 641.6950073242188 135.73699951171875 L 645.4559936523438 132.61399841308594 Z" opacity="0.93" fill="#FFFFFF" transform="matrix(1, 0, 0, 1, 0, 0)"/><path d="M 173.12100219726562 614.8170166015625 L 167.27200317382812 619.68798828125 L 161.16700744628906 615.083984375 L 166.01300048828125 620.9530029296875 L 161.43299865722656 627.0969848632812 L 167.48800659179688 622.427978515625 L 173.38600158691406 626.8309936523438 L 168.7469940185547 621.1619873046875 Z" opacity="0.93" fill="#FFFFFF" transform="matrix(1, 0, 0, 1, 0, 0)"/><path d="M 2000.93896484375 763.0009765625 L 2004.8409423828125 759.7459716796875 L 2008.9329833984375 762.8170166015625 L 2005.68603515625 758.89599609375 L 2008.7509765625 754.7919921875 L 2004.708984375 757.9140014648438 L 2000.7659912109375 754.9749755859375 L 2003.863037109375 758.7559814453125 Z" opacity="0.93" fill="#FFFFFF" transform="matrix(1, 0, 0, 1, 0, 0)"/><path d="M 2334.300048828125 735.1099853515625 L 2336.4951171875 731.8790283203125 L 2338.85498046875 735.0020141601562 L 2336.967041015625 731.0460205078125 L 2338.674072265625 726.9760131835938 L 2336.404052734375 730.0469970703125 L 2334.115966796875 727.0750122070312 L 2335.922119140625 730.8889770507812 Z" opacity="0.93" fill="#FFFFFF" transform="matrix(1, 0, 0, 1, 0, 0)"/><path d="M 2087.214111328125 991.1820068359375 L 2091.1240234375 987.926025390625 L 2095.2080078125 991.0050048828125 L 2091.968994140625 987.0759887695312 L 2095.033935546875 982.9710083007812 L 2090.98291015625 986.093994140625 L 2087.0400390625 983.155029296875 L 2090.14599609375 986.9349975585938 Z" opacity="0.93" fill="#FFFFFF" transform="matrix(1, 0, 0, 1, 0, 0)"/><path d="M 2604.35498046875 226.25599670410156 L 2611.85302734375 220.00399780273438 L 2619.680908203125 225.9149932861328 L 2613.4609375 218.3800048828125 L 2619.342041015625 210.51199340820312 L 2611.5791015625 216.49000549316406 L 2604.01611328125 210.84500122070312 L 2609.964111328125 218.11300659179688 Z" opacity="0.93" fill="#FFFFFF" transform="matrix(1, 0, 0, 1, 0, 0)"/><path d="M 2581.76708984375 603.47802734375 L 2585.677001953125 600.2139892578125 L 2589.760986328125 603.302978515625 L 2586.52099609375 599.3720092773438 L 2589.5859375 595.2689819335938 L 2585.534912109375 598.3820190429688 L 2581.60205078125 595.4429931640625 L 2584.697998046875 599.22998046875 Z" opacity="0.93" fill="#FFFFFF" transform="matrix(1, 0, 0, 1, 0, 0)"/><path d="M 2112.97607421875 331.43701171875 L 2118.81591796875 326.5580139160156 L 2124.9208984375 331.1700134277344 L 2120.074951171875 325.2919921875 L 2124.656005859375 319.156005859375 L 2118.60888671875 323.8190002441406 L 2112.7109375 319.4230041503906 L 2117.35107421875 325.0840148925781 Z" opacity="0.93" fill="#FFFFFF" transform="matrix(1, 0, 0, 1, 0, 0)"/><path d="M 1801.27001953125 465.70098876953125 L 1804.509033203125 469.6300048828125 L 1801.4429931640625 473.7349853515625 L 1805.35400390625 470.47900390625 L 1809.43798828125 473.5610046386719 L 1806.3310546875 469.4880065917969 L 1809.262939453125 465.5260009765625 L 1805.4940185546875 468.6470031738281 Z" opacity="0.93" fill="#FFFFFF" transform="matrix(1, 0, 0, 1, 0, 0)"/><path d="M 1541.2860107421875 549.9749755859375 L 1544.5250244140625 553.906005859375 L 1541.4599609375 558.0009765625 L 1545.362060546875 554.7459716796875 L 1549.4539794921875 557.8270263671875 L 1546.3480224609375 553.7639770507812 L 1549.27099609375 549.7999877929688 L 1545.510986328125 552.9140014648438 Z" opacity="0.93" fill="#FFFFFF" transform="matrix(1, 0, 0, 1, 0, 0)"/><path d="M 1499.02197265625 121.92500305175781 L 1502.27099609375 125.84600067138672 L 1499.2049560546875 129.9510040283203 L 1503.1070556640625 126.69499969482422 L 1507.18994140625 129.7760009765625 L 1504.093017578125 125.7040023803711 L 1507.009033203125 121.74099731445312 L 1503.248046875 124.86399841308594 Z" opacity="0.93" fill="#FFFFFF" transform="matrix(1, 0, 0, 1, 0, 0)"/><path d="M 1619.260986328125 289.04998779296875 L 1622.5 292.97198486328125 L 1619.43505859375 297.07598876953125 L 1623.344970703125 293.82000732421875 L 1627.427978515625 296.9010009765625 L 1624.3299560546875 292.8380126953125 L 1627.2540283203125 288.875 L 1623.4849853515625 291.989013671875 Z" opacity="0.93" fill="#FFFFFF" transform="matrix(1, 0, 0, 1, 0, 0)"/><path d="M 1571.572021484375 321.3710021972656 L 1574.81103515625 325.2919921875 L 1571.7459716796875 329.3970031738281 L 1575.655029296875 326.1419982910156 L 1579.739013671875 329.22198486328125 L 1576.633056640625 325.1600036621094 L 1579.5570068359375 321.1960144042969 L 1575.7960205078125 324.30999755859375 Z" opacity="0.93" fill="#FFFFFF" transform="matrix(1, 0, 0, 1, 0, 0)"/><path d="M 1852.2060546875 126.02100372314453 L 1855.4449462890625 129.9510040283203 L 1852.3800048828125 134.05499267578125 L 1856.2900390625 130.7989959716797 L 1860.3740234375 133.8800048828125 L 1857.2679443359375 129.81700134277344 L 1860.1910400390625 125.84600067138672 L 1856.4310302734375 128.96800231933594 Z" opacity="0.93" fill="#FFFFFF" transform="matrix(1, 0, 0, 1, 0, 0)"/><path d="M 2045.9530029296875 28.41699981689453 L 2049.19189453125 32.34600067138672 L 2046.126953125 36.45100021362305 L 2050.037109375 33.1870002746582 L 2054.1201171875 36.268001556396484 L 2051.013916015625 32.20399856567383 L 2053.946044921875 28.240999221801758 L 2050.1689453125 31.354999542236328 Z" opacity="0.93" fill="#FFFFFF" transform="matrix(1, 0, 0, 1, 0, 0)"/><path d="M 2370.590087890625 93.125 L 2373.8291015625 97.0469970703125 L 2370.76611328125 101.16000366210938 L 2374.674072265625 97.89600372314453 L 2378.758056640625 100.97699737548828 L 2375.652099609375 96.90499877929688 L 2378.583984375 92.94100189208984 L 2374.81494140625 96.06400299072266 Z" opacity="0.93" fill="#FFFFFF" transform="matrix(1, 0, 0, 1, 0, 0)"/><path d="M 2214.18701171875 568.3250122070312 L 2217.424072265625 572.2550048828125 L 2214.360107421875 576.3519897460938 L 2218.27001953125 573.0960083007812 L 2222.35400390625 576.177001953125 L 2219.257080078125 572.1129760742188 L 2222.172119140625 568.1500244140625 L 2218.412109375 571.2639770507812 Z" opacity="0.93" fill="#FFFFFF" transform="matrix(1, 0, 0, 1, 0, 0)"/><path d="M 2149.680908203125 537.77001953125 L 2152.9208984375 541.6909790039062 L 2149.85498046875 545.7949829101562 L 2153.76611328125 542.5399780273438 L 2157.84912109375 545.6199951171875 L 2154.741943359375 541.5490112304688 L 2157.675048828125 537.5859985351562 L 2153.89697265625 540.708984375 Z" opacity="0.93" fill="#FFFFFF" transform="matrix(1, 0, 0, 1, 0, 0)"/><path d="M 2382.658935546875 449.0639953613281 L 2385.906005859375 452.98699951171875 L 2382.843017578125 457.09100341796875 L 2386.743896484375 453.8280029296875 L 2390.825927734375 456.9169921875 L 2387.72998046875 452.84600830078125 L 2390.654052734375 448.8819885253906 L 2386.885009765625 452.00299072265625 Z" opacity="0.93" fill="#FFFFFF" transform="matrix(1, 0, 0, 1, 0, 0)"/><path d="M 2653.552978515625 817.927978515625 L 2656.791015625 821.8560180664062 L 2653.72705078125 825.9619750976562 L 2657.636962890625 822.698974609375 L 2661.719970703125 825.7780151367188 L 2658.613037109375 821.7160034179688 L 2661.5380859375 817.7529907226562 L 2657.777099609375 820.8670043945312 Z" opacity="0.93" fill="#FFFFFF" transform="matrix(1, 0, 0, 1, 0, 0)"/><path d="M 2253.583984375 921.1270141601562 L 2256.830078125 925.0560302734375 L 2253.76708984375 929.1610107421875 L 2257.666015625 925.906005859375 L 2261.7509765625 928.9869995117188 L 2258.654052734375 924.916015625 L 2261.569091796875 920.9520263671875 L 2257.80908203125 924.073974609375 Z" opacity="0.93" fill="#FFFFFF" transform="matrix(1, 0, 0, 1, 0, 0)"/><path d="M 2730.14501953125 441.87200927734375 L 2735.991943359375 436.99200439453125 L 2742.10498046875 441.6050109863281 L 2737.25 435.7279968261719 L 2741.841064453125 429.59100341796875 L 2735.783935546875 434.2539978027344 L 2729.87890625 429.85699462890625 L 2734.52490234375 435.5190124511719 Z" opacity="0.93" fill="#FFFFFF" transform="matrix(1, 0, 0, 1, 0, 0)"/><path clip-path="url(#SVGID_2_)" fill="#BD6D4D" d="M131.503,1651.391" transform="matrix(1, 0, 0, 1, 0, 0)"/><path fill="#C97150" d="M2036.551,1660.383l104.674-31.562c0.747-0.226,1.357-1.047,1.357-1.826v-67.503&#xA;&#9;&#9;&#9;c0-0.779,0.638-1.417,1.417-1.417h73.508c0.779,0,1.417-0.638,1.417-1.417v-61.11c0-0.779,0.476-1.842,1.057-2.361l74.229-66.316&#xA;&#9;&#9;&#9;c0.581-0.52,1.507-1.396,2.057-1.949l24.508-24.634c0.55-0.553,1-1.643,1-2.422v-68.567c0-0.779,0.638-1.417,1.417-1.417h61.846&#xA;&#9;&#9;&#9;c0.779,0,1.417-0.638,1.417-1.417v-101.606c0-0.779,0.45-1.869,1-2.422l49.955-50.211c0.55-0.553,1.594-0.773,2.32-0.489&#xA;&#9;&#9;&#9;l74.712,29.168c0.727,0.284,1.27,1.151,1.209,1.929l-16.691,211.557c-0.062,0.777,0.526,1.413,1.306,1.413h27.914&#xA;&#9;&#9;&#9;c0.779,0,1.485-0.634,1.569-1.409l4.748-43.807c0.084-0.775,0.58-1.882,1.104-2.459l28.033-30.921&#xA;&#9;&#9;&#9;c0.524-0.577,0.946-1.688,0.938-2.467l-2.094-220.717c-0.008-0.779,0.437-1.869,0.986-2.422l40.414-40.619&#xA;&#9;&#9;&#9;c0.55-0.553,1.638-1.005,2.417-1.005h37.457c0.779,0,1.417,0.638,1.417,1.417v41.927c0,0.779,0.638,1.417,1.417,1.417h39.578&#xA;&#9;&#9;&#9;c0.779,0,1.417,0.638,1.417,1.417v412.794c0,0.779,0.638,1.417,1.417,1.417h43.82c0.779,0,1.417-0.638,1.417-1.417v-41.926&#xA;&#9;&#9;&#9;c0-0.779,0.638-1.417,1.417-1.417h33.216c0.779,0,1.867-0.452,2.417-1.005l32.99-33.159c0.55-0.553,1.638-1.005,2.417-1.005&#xA;&#9;&#9;&#9;h34.277c0.779,0,1.417,0.638,1.417,1.417v47.256c0,0.779,0.638,1.417,1.417,1.417h37.457c0.779,0,1.417,0.638,1.417,1.417v158.439&#xA;&#9;&#9;&#9;" transform="matrix(1, 0, 0, 1, 0, 0)"/><g transform="matrix(1, 0, 0, 1, 0, 0)">
			<path fill="#8D373B" d="M919.315,1698.34c-2.46-53.476-0.763-18.499-0.853-41.804c-0.05-12.529-7.107-20.947-14.124-20.631&#xA;&#9;&#9;&#9;&#9;c-7.008,0.332-13.336,9.358-12.757,21.88c1.939,42.138,5.866-22.847,0.646,18.775c-1.061,8.434-10.852,9.166-11.929,0.708&#xA;&#9;&#9;&#9;&#9;c-11.332-88.771-1.193-24.146-5.302-113.642c-0.745-16.102-9.948-29.547-18.969-29.123c-9.013,0.416-16.559,14.637-15.822,30.738&#xA;&#9;&#9;&#9;&#9;c3.802,82.644,8.25,17.435,6.61,100.094c-0.132,6.387-9.667,6.471-10.727,0.176c-7.456-44.678-1.201-25.603-3.289-70.962&#xA;&#9;&#9;&#9;&#9;c-0.58-12.538-8.019-22.271-15.027-21.946c-7.025,0.324-12.773,10.674-12.202,23.213c2.609,56.706,3.322,37.073,5.932,93.789&#xA;&#9;&#9;&#9;&#9;c0.571,12.531,5.566,20.824,12.583,20.5c11.795-0.55,23.094-13.396,23.964,0.457c1.217,19.259-0.961,15.595,2.245,44.868&#xA;&#9;&#9;&#9;&#9;c2.079,19.092,31.494,17.918,32.331-1.239c0.812-18.484-1.433-19.491-0.521-30.98c1.268-15.937,12.5-2.266,26.11-2.898&#xA;&#9;&#9;&#9;&#9;C915.239,1719.987,919.886,1710.871,919.315,1698.34z"/>
		</g><path fill="#8D373B" d="M887.654,1526.669c-4.805,0.217-8.715,6.985-8.367,14.528c1.259,27.318,7.157,27.834,2.618,54.56&#xA;&#9;&#9;&#9;&#9;c-1.167,6.827-8.714-5.429-11.953,0.384c-6.478,11.622-12.028,17.843-3.67,27.941c9.013,10.874,12.989-0.351,25.796-0.949&#xA;&#9;&#9;&#9;&#9;c4.812-0.217,8.084-6.928,7.736-14.471c-1.573-34.137-1.358-34.137-2.932-68.28&#xA;&#9;&#9;&#9;&#9;C896.534,1532.839,892.459,1526.444,887.654,1526.669z" transform="matrix(1, 0, 0, 1, 0, 0)"/><path fill="#8D373B" d="M789.435,1572.429c4.805-0.225,8.971,5.502,9.319,13.047c1.259,27.308-5.666,8.966,1.309,35.159&#xA;&#9;&#9;&#9;&#9;c1.781,6.695,8.185-5.918,11.937-0.424c7.513,10.964,14.24,16.311,6.843,27.134c-7.978,11.656-13.114,0.208-25.929,0.808&#xA;&#9;&#9;&#9;&#9;c-4.804,0.225-9.128-5.604-9.476-13.146c-1.566-34.137-0.77-14.57-2.336-48.707&#xA;&#9;&#9;&#9;&#9;C780.762,1578.756,784.63,1572.644,789.435,1572.429z" transform="matrix(1, 0, 0, 1, 0, 0)"/><g transform="matrix(1, 0, 0, 1, 0, 0)">
			<path fill="#8D373B" d="M1540.674,1730.569c13.594,0.867,25.066-12.605,26.052,3.348c0.721,11.507-1.54,12.472-1.052,30.965&#xA;&#9;&#9;&#9;&#9;c0.513,19.165,29.904,20.855,32.314,1.806c3.694-29.215,1.467-25.586,3.007-44.826c1.11-13.837,12.178-0.782,23.965-0.034&#xA;&#9;&#9;&#9;&#9;c7.017,0.441,12.152-7.768,12.939-20.281c3.578-56.666,3.959-37.018,7.538-93.684c0.786-12.514-4.78-22.962-11.797-23.42&#xA;&#9;&#9;&#9;&#9;c-7.008-0.441-14.621,9.166-15.407,21.689c-2.858,45.318,3.72,26.358-4.506,70.886c-1.169,6.278-10.694,6.037-10.72-0.35&#xA;&#9;&#9;&#9;&#9;c-0.223-82.676,3.106-17.4,8.325-99.961c1.011-16.094-6.278-30.438-15.291-31.014c-9.013-0.583-18.439,12.706-19.458,28.79&#xA;&#9;&#9;&#9;&#9;c-5.658,89.404,5.591,24.971-7.258,113.524c-1.217,8.443-11,7.553-11.92-0.899c-4.498-41.713-1.689,23.329,0.97-18.767&#xA;&#9;&#9;&#9;&#9;c0.787-12.514-5.368-21.647-12.376-22.096c-7.017-0.449-14.215,7.852-14.479,20.381c-0.489,23.297,1.813-11.646-1.566,41.789&#xA;&#9;&#9;&#9;&#9;C1529.167,1720.92,1533.666,1730.121,1540.674,1730.569z"/>
		</g><path fill="#8D373B" d="M1564.563,1537.311c4.797,0.299,8.582,7.143,8.102,14.668c-1.724,27.293-7.638,27.702-3.545,54.512&#xA;&#9;&#9;&#9;&#9;c1.043,6.843,8.797-5.271,11.937,0.591c6.279,11.739,11.721,18.051,3.189,27.999c-9.195,10.725-12.981-0.575-25.779-1.391&#xA;&#9;&#9;&#9;&#9;c-4.805-0.316-7.952-7.067-7.472-14.61c2.153-34.096,1.938-34.104,4.092-68.215&#xA;&#9;&#9;&#9;&#9;C1555.568,1543.328,1559.76,1537.002,1564.563,1537.311z" transform="matrix(1, 0, 0, 1, 0, 0)"/><path fill="#8D373B" d="M1661.979,1584.768c-4.804-0.317-9.07,5.346-9.543,12.879c-1.723,27.285,5.509,9.068-1.913,35.128&#xA;&#9;&#9;&#9;&#9;c-1.897,6.669-8.085-6.053-11.938-0.625c-7.695,10.833-14.513,16.061-7.297,27.009c7.77,11.799,13.113,0.441,25.902,1.257&#xA;&#9;&#9;&#9;&#9;c4.805,0.309,9.229-5.435,9.709-12.979c2.153-34.104,1.011-14.562,3.164-48.656&#xA;&#9;&#9;&#9;&#9;C1670.545,1591.245,1666.768,1585.067,1661.979,1584.768z" transform="matrix(1, 0, 0, 1, 0, 0)"/><path clip-path="url(#SVGID_2_)" fill="#440E1D" d="M2882.679,1740.212c0,0-79.846-8.583-215.731-15.694&#xA;&#9;&#9;c-17.784-0.933-67.917,16.285-87.566,15.437c-60.017-2.622-243.997-16.312-271.44-25.902&#xA;&#9;&#9;c-104.961-36.676-138.32,1.065-274.694,6.245c-41.369,1.572-61.084,17.218-104.192,19.657&#xA;&#9;&#9;c-14.058,0.791-144.119-5.479-158.343-4.581c-137.923,8.685-190.118,15.645-338.918,35.794&#xA;&#9;&#9;c-38.893,5.271-77.502,10.148-115.922,14.671c-51.807,6.111-107.324,28.766-158.724,33.694&#xA;&#9;&#9;c-158.177,15.161-311.558,8.034-475.508,15.794c-26.831,1.265-123.443,20.05-149.371,21.147&#xA;&#9;&#9;c-41.062,1.732-63.603-11.739-101.856-10.391c-261.922,9.193-449.506,9.725-449.506,9.725v168.351h2901.772" transform="matrix(1, 0, 0, 1, 0, 0)"/><g transform="matrix(1, 0, 0, 1, 0, 0)">
			<path d="M500.939,1713.312c0.944-69.922,2.584-69.897,3.529-139.817c0.216-16.386-9.004-27.908-19.731-28.058&#xA;&#9;&#9;&#9;&#9;c-10.728-0.144-21.157,11.114-21.372,27.499c-0.746,55.085,9.791,55.942-1.823,109.777c-2.353,10.906-17.346,11.065-18.257-0.05&#xA;&#9;&#9;&#9;&#9;c-9.476-116.646,1.466-116.837,3.04-233.842c0.29-21.063-12.574-39.331-26.367-39.522c-13.784-0.192-26.524,17.735-26.814,38.79&#xA;&#9;&#9;&#9;&#9;c-1.45,108.053,9.883,108.661,0.141,216.29c-0.762,8.326-15.317,7.652-16.369-0.648c-7.446-58.848,0.754-59.039,1.558-118.354&#xA;&#9;&#9;&#9;&#9;c0.215-16.385-10.272-29.682-21-29.831c-10.736-0.149-20.419,12.88-20.643,29.258c-1.002,74.166,1.483,74.2,0.48,148.351&#xA;&#9;&#9;&#9;&#9;c-0.224,16.384,6.661,27.601,17.396,27.75c18.034,0.24,35.868-15.587,36.498,2.539c2.659,76.508-12.657,72.435-1.681,143.938&#xA;&#9;&#9;&#9;&#9;c3.819,24.812,46.198,25.894,49.429,1.008c8.457-65.133-7.373-62.786,3.073-125.688c3.43-20.64,19.26-1.939,40.077-1.657&#xA;&#9;&#9;&#9;&#9;C492.821,1741.193,500.715,1729.695,500.939,1713.312z"/>
		</g><path d="M524.995,1514.563c-7.355-0.1-13.643,8.284-13.776,18.15c-0.48,35.692,8.144,36.834-1.126,71.286&#xA;&#9;&#9;&#9;&#9;c-2.377,8.833-12.55-7.601-18-0.291c-10.902,14.637-19.757,21.871-7.886,35.709c12.79,14.912,19.5,0.716,39.091,0.982&#xA;&#9;&#9;&#9;&#9;c7.348,0.1,13.411-8.209,13.544-18.059c0.597-44.635,0.041-44.643,0.646-89.27&#xA;&#9;&#9;&#9;&#9;C537.62,1523.206,532.334,1514.663,524.995,1514.563z" transform="matrix(1, 0, 0, 1, 0, 0)"/><path d="M468.865,1401.655c-7.339-0.1-13.884,8.401-14.016,18.275c-0.48,35.701,8.474,36.851-0.803,71.328&#xA;&#9;&#9;&#9;&#9;c-2.369,8.817-12.807-7.777-18.257-0.466c-10.894,14.629-19.906,22.288-8.043,36.133c12.79,14.904,19.831,0.601,39.422,0.867&#xA;&#9;&#9;&#9;&#9;c7.347,0.1,12.923-8.376,13.055-18.242c0.604-44.626,0.919-44.626,1.524-89.252&#xA;&#9;&#9;&#9;&#9;C481.878,1410.423,476.212,1401.755,468.865,1401.655z" transform="matrix(1, 0, 0, 1, 0, 0)"/><path d="M314.283,1513.006c7.339,0.1,13.196,7.91,13.063,17.776c-0.48,35.701-9.775,36.801-1.441,71.511&#xA;&#9;&#9;&#9;&#9;c2.137,8.884,12.997-7.035,18.249,0.416c10.503,14.93,20.286,22.423,8.043,35.951c-13.179,14.538-20.013-0.808-39.596-1.074&#xA;&#9;&#9;&#9;&#9;c-7.348-0.1-13.437-8.042-13.304-17.908c0.596-44.636,0.456-44.636,1.061-89.262&#xA;&#9;&#9;&#9;&#9;C300.491,1520.549,306.935,1512.906,314.283,1513.006z" transform="matrix(1, 0, 0, 1, 0, 0)"/><g transform="matrix(1, 0, 0, 1, 0, 0)">
			<g enable-background="new    ">
				<defs>
					<path d="M 213.5749969482422 2123.988037109375 L 313.0419921875 1843.5460205078125 L 541.6630249023438 1877.5679931640625 L 442.1960144042969 2158.010986328125 Z" id="SVGID_4_" enable-background="new    "/>
				</defs>
				<clipPath id="SVGID_5_">
					<use overflow="visible" xlink:href="#SVGID_4_"/>
				</clipPath>
				<g clip-path="url(#SVGID_5_)">
					<g>
						<g>
							<g>
								<path d="M423.221,1859.942c-11.187-1.665-23.911,0.355-28.317,7.372c-24.967,39.783-9.474,39.647-27.473,83.527&#xA;&#9;&#9;&#9;&#9;&#9;&#9;&#9;&#9;&#9;c-1.56,3.781-4.385,4.634-8.183,4.068c-3.297-0.49-7.328-2.049-11.901-3.689c-4.577-1.636-9.698-3.358-15.158-4.171&#xA;&#9;&#9;&#9;&#9;&#9;&#9;&#9;&#9;&#9;c-0.08-0.012-0.158-0.023-0.238-0.035c-10.316-1.472-19.176,4.017-22.26,13.532c-3.988,12.235-7.035,20.966-9.676,28.185&#xA;&#9;&#9;&#9;&#9;&#9;&#9;&#9;&#9;&#9;c1.123,0.009,2.208,0.076,3.264,0.233c3.42,0.509,6.539,1.946,9.663,5.269c8.985,9.604-1.898,12.524-14.977,19.635&#xA;&#9;&#9;&#9;&#9;&#9;&#9;&#9;&#9;&#9;c-1.313,0.71-2.65,0.846-3.981,0.647c-1.122-0.167-2.238-0.57-3.331-1.068c-3.044,8.134-6.519,17.867-11.407,32.861&#xA;&#9;&#9;&#9;&#9;&#9;&#9;&#9;&#9;&#9;c-3.09,9.478,3.503,18.383,13.754,19.908c0.037,0.006,0.073,0.011,0.11,0.017c10.299,1.469,23.037-4.709,26.147-14.22&#xA;&#9;&#9;&#9;&#9;&#9;&#9;&#9;&#9;&#9;c11.205-34.435,3.389-35.732,22.42-68.695c1.387-2.412,5.834-3.111,9.666-2.541c3.566,0.53,6.599,2.161,6.134,4.535&#xA;&#9;&#9;&#9;&#9;&#9;&#9;&#9;&#9;&#9;c-12.404,63.687-23.392,62.394-43.832,125.118c-3.966,12.179,4.543,24.355,17.7,26.313c0.048,0.007,0.094,0.014,0.142,0.021&#xA;&#9;&#9;&#9;&#9;&#9;&#9;&#9;&#9;&#9;c13.266,1.889,29.271-6.813,33.245-19.044c3.047-9.345,5.477-17.437,7.488-24.615c-2.11,0.379-4.274,0.697-6.052,0.432&#xA;&#9;&#9;&#9;&#9;&#9;&#9;&#9;&#9;&#9;c-1.262-0.188-2.33-0.668-3.046-1.629c-7.475-10.047-14.562-15.778-0.402-22.072c5.215-2.312,9.102-2.745,12.708-2.208&#xA;&#9;&#9;&#9;&#9;&#9;&#9;&#9;&#9;&#9;c1.046,0.155,2.068,0.393,3.093,0.689c6.101-26.305,8.431-41.521,30.556-86.332c1.553-3.131,5.874-4.144,9.834-3.554&#xA;&#9;&#9;&#9;&#9;&#9;&#9;&#9;&#9;&#9;c4.007,0.596,7.644,2.832,7.669,6.173c0.246,32.835-10.026,31.805-20.44,63.779c-3.087,9.468,4.538,17.463,14.773,18.985&#xA;&#9;&#9;&#9;&#9;&#9;&#9;&#9;&#9;&#9;c0.048,0.008,0.095,0.015,0.143,0.021c10.305,1.477,21.462-3.854,24.563-13.367c2.391-7.338,4.298-13.355,5.896-18.531&#xA;&#9;&#9;&#9;&#9;&#9;&#9;&#9;&#9;&#9;c-0.686,0.114-1.402,0.249-2.13,0.383c-2.224,0.405-4.558,0.794-6.458,0.511c-1.261-0.188-2.331-0.67-3.052-1.642&#xA;&#9;&#9;&#9;&#9;&#9;&#9;&#9;&#9;&#9;c-7.483-10.048-14.508-15.521-0.335-21.799c5.242-2.329,9.104-2.771,12.678-2.24c2.058,0.307,4.021,0.936,6.097,1.713&#xA;&#9;&#9;&#9;&#9;&#9;&#9;&#9;&#9;&#9;c2.83-9.909,5.762-20.1,12.179-39.795c3.091-9.48-2.095-17.249-12.317-18.77c-0.042-0.007-0.082-0.013-0.124-0.02&#xA;&#9;&#9;&#9;&#9;&#9;&#9;&#9;&#9;&#9;c-12.877-1.833-25.322,1.049-32.309,0.009c-3.861-0.574-6.055-2.346-5.736-6.773c2.697-37.907,17.382-34.255,22.443-73.163&#xA;&#9;&#9;&#9;&#9;&#9;&#9;&#9;&#9;&#9;C443.402,1866.601,434.029,1861.552,423.221,1859.942"/>
								<path d="M452.217,2010.705c-3.574-0.531-7.436-0.089-12.678,2.24c-14.173,6.277-7.147,11.751,0.335,21.799&#xA;&#9;&#9;&#9;&#9;&#9;&#9;&#9;&#9;&#9;c0.721,0.972,1.792,1.454,3.052,1.642c1.9,0.283,4.234-0.105,6.458-0.511c0.728-0.134,1.444-0.269,2.13-0.383&#xA;&#9;&#9;&#9;&#9;&#9;&#9;&#9;&#9;&#9;c1.413-0.235,2.696-0.379,3.684-0.232c1.125,0.167,1.866,0.713,1.978,1.932c1.921,21.273-6.565,20.687-13.322,41.401&#xA;&#9;&#9;&#9;&#9;&#9;&#9;&#9;&#9;&#9;c-1.87,5.706,2.428,11.446,9.432,12.489c0.029,0.004,0.059,0.008,0.087,0.013c7.056,1.007,13.842-3.166,15.71-8.896&#xA;&#9;&#9;&#9;&#9;&#9;&#9;&#9;&#9;&#9;c8.442-25.903,8.971-25.832,17.417-51.742c1.856-5.692-2.227-11.353-9.238-12.396c-0.029-0.004-0.059-0.008-0.088-0.013&#xA;&#9;&#9;&#9;&#9;&#9;&#9;&#9;&#9;&#9;c-0.117-0.017-0.232-0.034-0.348-0.051c-6.056-0.901-10.514-2.473-14.308-3.938c-1.486-0.577-2.869-1.14-4.205-1.641&#xA;&#9;&#9;&#9;&#9;&#9;&#9;&#9;&#9;&#9;C456.238,2011.641,454.275,2011.012,452.217,2010.705"/>
								<path d="M375.427,2067.628c-3.606-0.537-7.493-0.104-12.708,2.208c-14.161,6.294-7.073,12.025,0.402,22.072&#xA;&#9;&#9;&#9;&#9;&#9;&#9;&#9;&#9;&#9;c0.716,0.961,1.784,1.441,3.046,1.629c1.778,0.266,3.942-0.053,6.052-0.432c0.187-0.033,0.375-0.066,0.561-0.102&#xA;&#9;&#9;&#9;&#9;&#9;&#9;&#9;&#9;&#9;c2.283-0.419,4.457-0.854,5.95-0.633c1.125,0.168,1.864,0.709,1.972,1.912c1.931,21.296-6.882,20.661-13.642,41.383&#xA;&#9;&#9;&#9;&#9;&#9;&#9;&#9;&#9;&#9;c-1.855,5.715,2.65,11.558,9.649,12.599c0.029,0.005,0.058,0.009,0.086,0.013c7.056,1.007,14.239-3.185,16.108-8.916&#xA;&#9;&#9;&#9;&#9;&#9;&#9;&#9;&#9;&#9;c8.444-25.909,8.134-25.955,16.576-51.859c1.86-5.702-1.729-11.393-8.721-12.432c-0.033-0.005-0.067-0.01-0.101-0.016&#xA;&#9;&#9;&#9;&#9;&#9;&#9;&#9;&#9;&#9;c-0.116-0.016-0.231-0.033-0.346-0.051c-6.075-0.903-10.582-2.49-14.421-3.983c-2.673-1.036-5.028-2.024-7.371-2.703&#xA;&#9;&#9;&#9;&#9;&#9;&#9;&#9;&#9;&#9;C377.496,2068.021,376.474,2067.783,375.427,2067.628"/>
								<path d="M303.278,1988.965c-1.056-0.157-2.141-0.225-3.264-0.233c-6.533-0.052-14.347,1.933-25.229,0.38&#xA;&#9;&#9;&#9;&#9;&#9;&#9;&#9;&#9;&#9;c-7.064-1.009-14.504,2.703-16.362,8.428c-8.448,25.918-8.583,25.891-17.022,51.809c-1.859,5.701,2.724,11.034,9.74,12.079&#xA;&#9;&#9;&#9;&#9;&#9;&#9;&#9;&#9;&#9;c0.027,0.004,0.053,0.008,0.08,0.012c7.049,0.999,14.236-2.666,16.105-8.396c6.752-20.729-1.922-22.704,13.076-41.581&#xA;&#9;&#9;&#9;&#9;&#9;&#9;&#9;&#9;&#9;c0.878-1.107,1.936-1.391,3.121-1.215c1.472,0.22,3.143,1.148,4.917,2.091c0.722,0.384,1.461,0.769,2.211,1.11&#xA;&#9;&#9;&#9;&#9;&#9;&#9;&#9;&#9;&#9;c1.093,0.498,2.209,0.901,3.331,1.068c1.331,0.198,2.668,0.062,3.981-0.647c13.078-7.11,23.962-10.031,14.977-19.635&#xA;&#9;&#9;&#9;&#9;&#9;&#9;&#9;&#9;&#9;C309.817,1990.911,306.698,1989.474,303.278,1988.965"/>
							</g>
						</g>
					</g>
				</g>
			</g>
		</g><g transform="matrix(1, 0, 0, 1, 0, 0)">
			<path d="M1869.734,1632.351c22.962,0,42.081-24.13,44.367-1.158c6.76,68.022,0.745,43.361,0.944,138.976&#xA;&#9;&#9;&#9;&#9;c0.059,27.709,31.13,31.197,46.521,8.21c22.871-34.12,6.104-46.275,9.285-90.728c1.434-19.949,19.856,1.457,39.771,1.457&#xA;&#9;&#9;&#9;&#9;c11.846,0,21.612-16.137,21.612-34.22c0-162.854,1.176-162.854,1.176-325.708c0-18.085-10.942-34.879-22.788-34.879&#xA;&#9;&#9;&#9;&#9;s-21.073,16.794-21.073,34.879c0,146.477,6.577,146.626-2.585,292.821c-0.58,9.216-13.793,9.25-14.331,0.032&#xA;&#9;&#9;&#9;&#9;c-9.169-157.367-1.888-157.532-1.888-315.168c0-23.246-12.285-39.863-27.502-39.863c-15.226,0-27.062,16.617-27.062,39.863&#xA;&#9;&#9;&#9;&#9;c0,129.16,13.56,129.926,1.357,258.512c-1.168,12.255-22.407,11.572-24.843-0.501c-12.003-59.588-1.026-60.487-1.026-121.292&#xA;&#9;&#9;&#9;&#9;c0-18.083-10.098-32.67-21.936-32.67c-11.846,0-19.367,14.587-19.367,32.67c0,77.174-3.794,77.174-3.794,154.347&#xA;&#9;&#9;&#9;&#9;C1846.573,1616.014,1857.889,1632.351,1869.734,1632.351z"/>
		</g><path d="M1825.765,1379.342c8.102,0,14.845,8.242,14.845,19.133c0,39.408-9.875,40.631-0.149,78.814&#xA;&#9;&#9;&#9;&#9;c2.485,9.767,16.087-9.293,20.659-0.316c8.93,17.551,12.607,25.177-0.397,39.93c-11.515,13.072-17.578-0.083-34.957-0.083&#xA;&#9;&#9;&#9;&#9;c-8.11,0-14.397-8.934-14.397-19.815c0-49.265,0.017-49.265,0.017-98.529C1811.384,1387.584,1817.654,1379.342,1825.765,1379.342&#xA;&#9;&#9;&#9;&#9;z" transform="matrix(1, 0, 0, 1, 0, 0)"/><path d="M1889.384,1211.901c8.101,0,14.595,9.433,14.595,20.321c0,60.722-9.078,61.412,0.829,121.317&#xA;&#9;&#9;&#9;&#9;c1.641,9.95,13.834-8.334,19.731-0.175c11.812,16.303,21.587,24.82,8.283,39.914c-14.33,16.261-21.818-0.982-43.438-0.982&#xA;&#9;&#9;&#9;&#9;c-8.11,0-14.232-8.034-14.232-18.917c0-70.577-0.132-70.577-0.132-141.157C1875.02,1221.334,1881.273,1211.901,1889.384,1211.901&#xA;&#9;&#9;&#9;&#9;z" transform="matrix(1, 0, 0, 1, 0, 0)"/><path d="M2058.32,1418.091c-8.102,0-14.248,8.492-14.248,19.384c0,77.779,9.842,78.463-0.115,155.595&#xA;&#9;&#9;&#9;&#9;c-1.293,10.007-15.185-8.702-19.757,0.282c-8.938,17.542-14.173,24.828-1.168,39.58c11.514,13.072,17.926-0.715,35.288-0.715&#xA;&#9;&#9;&#9;&#9;c8.118,0,13.784-8.593,13.784-19.475c0-87.631,0.149-87.631,0.149-175.268C2072.254,1426.583,2066.438,1418.091,2058.32,1418.091&#xA;&#9;&#9;&#9;&#9;z" transform="matrix(1, 0, 0, 1, 0, 0)"/><g transform="matrix(1, 0, 0, 1, 0, 0)">
			<g enable-background="new    ">
				<defs>
					<path d="M 2024.1290283203125 2089.80908203125 L 1820.26904296875 1787.323974609375 L 2042.6939697265625 1752.93798828125 L 2246.554931640625 2055.422119140625 Z" id="SVGID_6_" enable-background="new    "/>
				</defs>
				<clipPath id="SVGID_7_">
					<use overflow="visible" xlink:href="#SVGID_6_"/>
				</clipPath>
				<g clip-path="url(#SVGID_7_)">
					<g>
						<g>
							<g>
								<path d="M1926.502,1770.9c-9.566,1.479-15.035,6.871-9.649,14.91c33.346,49.755,29.829,36.141,47.895,72.399&#xA;&#9;&#9;&#9;&#9;&#9;&#9;&#9;&#9;&#9;c1.971,3.952,0.729,5.586-2.513,6.087c-6.809,1.053-22.444-2.889-35.71-0.838c-10.098,1.561-14.017,11.55-7.679,20.953&#xA;&#9;&#9;&#9;&#9;&#9;&#9;&#9;&#9;&#9;c13.115,19.461,20.631,29.367,27.977,38.985c0.548-0.151,1.107-0.275,1.689-0.365c2.76-0.427,6.016-0.097,10.799,1.657&#xA;&#9;&#9;&#9;&#9;&#9;&#9;&#9;&#9;&#9;c16.256,5.956,15.789,10.403,14.319,20.707c-0.151,1.062-1.014,1.582-2.283,1.779c-1.84,0.284-4.535-0.112-7.162-0.52&#xA;&#9;&#9;&#9;&#9;&#9;&#9;&#9;&#9;&#9;c-0.038-0.006-0.076-0.012-0.115-0.018c3.489,4.917,7.442,10.625,12.101,17.538c6.338,9.403,17.869,16.002,27.966,14.441&#xA;&#9;&#9;&#9;&#9;&#9;&#9;&#9;&#9;&#9;c10.098-1.562,13.592-10.483,7.254-19.887c-21.312-31.623-30.987-30.641-41.636-63.211c-1.106-3.38,3.037-5.854,8.057-6.63&#xA;&#9;&#9;&#9;&#9;&#9;&#9;&#9;&#9;&#9;c4.785-0.74,10.365,0.064,12.949,3.102c37.617,44.262,44.528,59.51,59.207,85.698c0.378-0.086,0.763-0.16,1.156-0.221&#xA;&#9;&#9;&#9;&#9;&#9;&#9;&#9;&#9;&#9;c3.305-0.511,7.242-0.103,12.979,2.001c16.641,6.097,11.283,11.812,6.931,21.849c-0.422,0.97-1.386,1.458-2.653,1.654&#xA;&#9;&#9;&#9;&#9;&#9;&#9;&#9;&#9;&#9;c-1.017,0.157-2.229,0.126-3.512,0.003c4.306,6.929,9.322,14.706,15.335,23.627c8.148,12.091,24.062,19.173,37.037,17.167&#xA;&#9;&#9;&#9;&#9;&#9;&#9;&#9;&#9;&#9;c12.983-2.007,17.625-12.268,9.477-24.358c-55.25-81.979-61.507-81.105-108.845-164.154&#xA;&#9;&#9;&#9;&#9;&#9;&#9;&#9;&#9;&#9;c-1.382-2.426,0.736-4.071,3.665-4.524c2.938-0.454,6.694,0.292,8.555,2.656c59.059,74.821,53.504,75.767,104.843,151.942&#xA;&#9;&#9;&#9;&#9;&#9;&#9;&#9;&#9;&#9;c6.337,9.402,20.099,16.924,30.188,15.364c10.098-1.561,13.546-11.743,7.209-21.146&#xA;&#9;&#9;&#9;&#9;&#9;&#9;&#9;&#9;&#9;c-48.602-72.114-56.552-82.717-93.072-136.551c-1.04,0.563-2.121,1.022-3.252,1.198c-1.305,0.201-2.675,0.023-4.119-0.812&#xA;&#9;&#9;&#9;&#9;&#9;&#9;&#9;&#9;&#9;c-13.773-7.953-20.792-11.05-14.873-20.434c1.533-2.438,3.504-3.617,5.891-4.124c-1.848-2.739-3.76-5.574-5.738-8.511&#xA;&#9;&#9;&#9;&#9;&#9;&#9;&#9;&#9;&#9;c-6.338-9.403-20.328-16.51-30.426-14.948c-11.579,1.79-19.079,8.672-25.281,9.631c-2.891,0.447-5.497-0.392-8.105-3.629&#xA;&#9;&#9;&#9;&#9;&#9;&#9;&#9;&#9;&#9;c-18.298-22.699-8.26-31.227-39.719-45.962C1944.264,1771.019,1934.092,1769.728,1926.502,1770.9"/>
								<path d="M1948.512,1923.032c-0.582,0.09-1.142,0.214-1.689,0.365c-4.672,1.288-8.437,4.567-17.29,5.936&#xA;&#9;&#9;&#9;&#9;&#9;&#9;&#9;&#9;&#9;c-6.913,1.069-9.143,6.549-5.329,12.208c17.263,25.613,17.278,25.61,34.549,51.236c3.817,5.664,12.051,9.119,18.965,8.051&#xA;&#9;&#9;&#9;&#9;&#9;&#9;&#9;&#9;&#9;c6.905-1.068,9.767-6.238,5.949-11.902c-13.811-20.492-22.667-19.83-27.756-40.97c-0.281-1.158,0.343-1.694,1.504-1.874&#xA;&#9;&#9;&#9;&#9;&#9;&#9;&#9;&#9;&#9;c1.553-0.24,4.066,0.158,6.655,0.557c0.039,0.006,0.077,0.012,0.115,0.018c2.627,0.407,5.322,0.804,7.162,0.52&#xA;&#9;&#9;&#9;&#9;&#9;&#9;&#9;&#9;&#9;c1.27-0.197,2.132-0.717,2.283-1.779c1.47-10.304,1.937-14.751-14.319-20.707&#xA;&#9;&#9;&#9;&#9;&#9;&#9;&#9;&#9;&#9;C1954.527,1922.936,1951.271,1922.605,1948.512,1923.032"/>
								<path d="M2051.123,1977.47c-0.394,0.061-0.778,0.135-1.156,0.221c-6.351,1.438-10.729,6.191-22.548,8.019&#xA;&#9;&#9;&#9;&#9;&#9;&#9;&#9;&#9;&#9;c-6.913,1.068-9.322,6.056-5.508,11.715c24.734,36.701,24.62,36.719,49.358,73.427c3.818,5.664,12.463,9.743,19.377,8.675&#xA;&#9;&#9;&#9;&#9;&#9;&#9;&#9;&#9;&#9;c6.905-1.068,9.133-6.828,5.315-12.492c-21.284-31.58-29.259-30.74-41.82-63.195c-0.468-1.215,0.024-1.754,1.09-1.918&#xA;&#9;&#9;&#9;&#9;&#9;&#9;&#9;&#9;&#9;c1.376-0.213,3.709,0.198,6.174,0.588c1.153,0.184,2.336,0.361,3.463,0.469c1.283,0.123,2.495,0.154,3.512-0.003&#xA;&#9;&#9;&#9;&#9;&#9;&#9;&#9;&#9;&#9;c1.268-0.196,2.231-0.685,2.653-1.654c4.353-10.036,9.71-15.752-6.931-21.849&#xA;&#9;&#9;&#9;&#9;&#9;&#9;&#9;&#9;&#9;C2058.365,1977.367,2054.428,1976.959,2051.123,1977.47"/>
								<path d="M2063.617,1838.697c-0.24,0.038-0.478,0.08-0.711,0.131c-2.387,0.507-4.357,1.687-5.891,4.124&#xA;&#9;&#9;&#9;&#9;&#9;&#9;&#9;&#9;&#9;c-5.919,9.384,1.1,12.48,14.873,20.434c1.444,0.835,2.814,1.013,4.119,0.812c1.131-0.176,2.212-0.635,3.252-1.198&#xA;&#9;&#9;&#9;&#9;&#9;&#9;&#9;&#9;&#9;c0.635-0.344,1.253-0.726,1.857-1.106c1.595-1.007,3.09-1.997,4.513-2.217c1.108-0.171,2.174,0.127,3.206,1.25&#xA;&#9;&#9;&#9;&#9;&#9;&#9;&#9;&#9;&#9;c35.521,38.802,27.363,40.45,54.625,80.901c3.814,5.659,12.034,9.271,18.94,8.202c6.921-1.069,8.905-6.258,5.092-11.917&#xA;&#9;&#9;&#9;&#9;&#9;&#9;&#9;&#9;&#9;c-30.719-45.579-30.849-45.56-61.562-91.133c-3.81-5.652-11.656-9.375-18.577-8.305&#xA;&#9;&#9;&#9;&#9;&#9;&#9;&#9;&#9;&#9;C2077.305,1840.229,2069.338,1837.812,2063.617,1838.697"/>
							</g>
						</g>
					</g>
				</g>
			</g>
		</g><path opacity="0.7" clip-path="url(#SVGID_2_)" fill="#FFF8DB" d="M1639.779,734.043c125.415-19.848,133.798,8.285,133.798,8.285&#xA;&#9;&#9;s-26.641-98.371,57.762-123.116c84.42-24.744,179.483,13.655,166.254,136.812c0,0,85.479-72.885,145.387-18.701&#xA;&#9;&#9;c0,0,51.698-78.554,121.189-58.797c69.483,19.783,73.062,54.302,73.062,54.302s145.562-42.596,174.057,7.536&#xA;&#9;&#9;c28.489,50.13-69.053,79.02-182.092,73.092c-113.039-5.945-468.931-7.726-561.583,4.829&#xA;&#9;&#9;c-92.662,12.556-413.836-7.792-275.673-52.095L1639.779,734.043z" transform="matrix(1, 0, 0, 1, 0, 0)"/><path opacity="0.7" clip-path="url(#SVGID_2_)" fill="#FFF8DB" d="M1136.662,390.376c-119.277-17.651-126.973,9.134-126.973,9.134&#xA;&#9;&#9;s24.379-93.667-56.005-116.363c-80.377-22.688-170.296,14.671-156.587,131.482c0,0-81.833-68.396-138.221-16.385&#xA;&#9;&#9;c0,0-49.818-74.1-115.624-54.667c-65.789,19.433-68.871,52.244-68.871,52.244s-138.619-39.081-165.193,8.801&#xA;&#9;&#9;c-26.591,47.875,66.303,74.384,173.577,67.673c107.282-6.693,445.198-11.764,533.303-0.725&#xA;&#9;&#9;c88.105,11.05,392.878-11.314,261.267-52.062L1136.662,390.376z" transform="matrix(1, 0, 0, 1, 0, 0)"/><path opacity="0.7" clip-path="url(#SVGID_2_)" fill="#FFF8DB" d="M328.241,692.057c0,0,37.575-65.725,112.393-62.086&#xA;&#9;&#9;c61.498,2.997,63.619,33.287,69.98,50.679c6.362,17.392,57.257-23.371,110.273,0c53.015,23.379,19.234,50.305-81.562,50.305&#xA;&#9;&#9;c-100.812,0-414.01,4.23-329.839-29.173C260.381,681.592,287.949,672.615,328.241,692.057z" transform="matrix(1, 0, 0, 1, 0, 0)"/><path opacity="0.7" clip-path="url(#SVGID_2_)" fill="#FFF8DB" d="M2419.1,570.765c0,0,37.566-65.725,112.393-62.085&#xA;&#9;&#9;c61.5,2.997,63.619,33.287,69.98,50.679c6.363,17.393,57.258-23.37,110.272,0c53.016,23.38,19.235,50.305-81.569,50.305&#xA;&#9;&#9;s-414.001,4.23-329.831-29.173C2351.239,560.3,2378.809,551.324,2419.1,570.765z" transform="matrix(1, 0, 0, 1, 0, 0)"/><path opacity="0.2" clip-path="url(#SVGID_2_)" fill="#FFF8DB" d="M1484.478,907.297c0,0-144.203-2.131-125.117,21.315&#xA;&#9;&#9;c19.085,23.445,103.91,21.314,167.529,23.445c63.618,2.131,215.839-23.495,288.173-22.405c72.332,1.091,89.298,5.42,152.916,0.058&#xA;&#9;&#9;c63.619-5.36,176.012-9.725,36.051-22.463S1546.372,905.932,1484.478,907.297z" transform="matrix(1, 0, 0, 1, 0, 0)"/><path opacity="0.2" clip-path="url(#SVGID_2_)" fill="#FFF8DB" d="M1831.845,970.616c0,0-111.382-1.116-96.638,11.131&#xA;&#9;&#9;c14.745,12.257,80.252,11.14,129.391,12.257c49.123,1.106,166.686-12.282,222.551-11.716c55.865,0.575,68.969,2.839,118.107,0.034&#xA;&#9;&#9;c49.123-2.797,135.935-5.08,27.833-11.74C2125.004,963.931,1879.633,969.9,1831.845,970.616z" transform="matrix(1, 0, 0, 1, 0, 0)"/><path opacity="0.2" clip-path="url(#SVGID_2_)" fill="#FFF8DB" d="M856.326,642.575c0,0-111.374-1.115-96.637,11.132&#xA;&#9;&#9;c14.745,12.255,80.252,11.14,129.391,12.255c49.13,1.109,166.693-12.28,222.558-11.714c55.865,0.575,68.969,2.839,118.1,0.033&#xA;&#9;&#9;c49.13-2.797,135.935-5.078,27.842-11.739C1149.485,635.89,904.122,641.859,856.326,642.575z" transform="matrix(1, 0, 0, 1, 0, 0)"/><path opacity="0.2" clip-path="url(#SVGID_2_)" fill="#FFF8DB" d="M395.024,126.67c0,0-242.024-2.131-209.991,21.314&#xA;&#9;&#9;s174.396,21.314,281.165,23.446c106.777,2.131,362.254-23.496,483.651-22.405c121.397,1.09,149.869,5.42,256.645,0.058&#xA;&#9;&#9;c106.776-5.362,295.404-9.725,60.504-22.463S498.893,125.305,395.024,126.67z" transform="matrix(1, 0, 0, 1, 0, 0)"/><path opacity="0.2" clip-path="url(#SVGID_2_)" fill="#FFF8DB" d="M1601.235,327.99c0,0-242.024-2.131-209.983,21.314&#xA;&#9;&#9;c32.024,23.446,174.388,21.314,281.165,23.446s362.245-23.496,483.65-22.405c121.39,1.091,149.87,5.42,256.646,0.059&#xA;&#9;&#9;c106.768-5.362,295.396-9.725,60.505-22.463C2238.309,315.201,1705.104,326.625,1601.235,327.99z" transform="matrix(1, 0, 0, 1, 0, 0)"/><path opacity="0.2" clip-path="url(#SVGID_2_)" fill="#FFF8DB" d="M978.013,189.988c0,0-186.929-1.116-162.194,11.132&#xA;&#9;&#9;c24.752,12.255,134.692,11.14,217.165,12.255c82.455,1.108,279.757-12.281,373.519-11.714&#xA;&#9;&#9;c93.763,0.574,115.748,2.838,198.212,0.033c82.455-2.797,228.141-5.079,46.729-11.739&#xA;&#9;&#9;C1470.021,183.303,1058.216,189.272,978.013,189.988z" transform="matrix(1, 0, 0, 1, 0, 0)"/><path opacity="0.2" clip-path="url(#SVGID_2_)" fill="#FFF8DB" d="M1380.086,579.024c0,0-186.921-1.115-162.194,11.132&#xA;&#9;&#9;c24.751,12.255,134.692,11.14,217.165,12.255c82.455,1.108,279.765-12.28,373.527-11.714c93.755,0.574,115.748,2.839,198.212,0.033&#xA;&#9;&#9;c82.456-2.797,228.132-5.078,46.72-11.739C1872.104,572.338,1460.297,578.308,1380.086,579.024z" transform="matrix(1, 0, 0, 1, 0, 0)"/><path clip-path="url(#SVGID_2_)" fill="#440E1D" d="M1787.295,1753.109c-1.218-2.241-2.377-4.639-3.363-7.194&#xA;&#9;&#9;c-5.069-13.18-6.651-28.717-6.651-28.717s-4.779,16.736-4.688,28.749c-1.607-2.355-3.115-4.846-4.448-7.434&#xA;&#9;&#9;c-8.979-17.469-11.788-38.066-11.788-38.066s-10.67,27.858-7.861,43.544c0.912,5.079,2.055,9.45,3.182,13.055&#xA;&#9;&#9;c-2.982-6.243-6.354-15.002-8.839-26.384c-5.616-25.693,8.425-50.796,8.425-50.796s-17.463,15.552-25.912,35.16&#xA;&#9;&#9;c0.465-4.113,0.878-8.485,1.209-13.106c3.363-47.391-8.979-74.225-8.979-74.225s1.682,62.761-18.523,101.002&#xA;&#9;&#9;c-10.908,20.641-18.538,30.646-23.26,35.492c-0.017-0.09-0.025-0.225-0.033-0.333c-0.588,1.64-1.243,3.265-2.005,4.846h120.204&#xA;&#9;&#9;C1790.815,1763.815,1788.579,1758.586,1787.295,1753.109z" transform="matrix(1, 0, 0, 1, 0, 0)"/><path clip-path="url(#SVGID_2_)" fill="#440E1D" d="M637.703,1848.448c1.574-2.24,3.065-4.638,4.341-7.193&#xA;&#9;&#9;c6.527-13.18,8.565-28.716,8.565-28.716s6.155,16.734,6.04,28.748c2.062-2.355,4.009-4.846,5.732-7.434&#xA;&#9;&#9;c11.572-17.469,15.184-38.065,15.184-38.065s13.734,27.857,10.114,43.544c-1.167,5.078-2.642,9.448-4.092,13.054&#xA;&#9;&#9;c3.843-6.243,8.184-15.003,11.39-26.385c7.232-25.693-10.852-50.796-10.852-50.796s22.499,15.553,33.367,35.161&#xA;&#9;&#9;c-0.597-4.113-1.127-8.485-1.557-13.106c-4.333-47.389,11.581-74.226,11.581-74.226s-2.171,62.763,23.856,101.003&#xA;&#9;&#9;c14.049,20.64,23.874,30.646,29.954,35.492c0.017-0.09,0.034-0.225,0.05-0.332c0.746,1.641,1.59,3.264,2.584,4.845H629.121&#xA;&#9;&#9;C633.171,1859.155,636.055,1853.926,637.703,1848.448z" transform="matrix(1, 0, 0, 1, 0, 0)"/><path clip-path="url(#SVGID_2_)" fill="#A9373B" d="M1079.984,1723.667c-1.441-1.655-2.808-3.43-3.976-5.319&#xA;&#9;&#9;c-5.998-9.758-7.861-21.256-7.861-21.256s-5.658,12.389-5.55,21.28c-1.897-1.747-3.677-3.587-5.26-5.504&#xA;&#9;&#9;c-10.62-12.928-13.942-28.182-13.942-28.182s-12.616,20.623-9.286,32.237c1.077,3.764,2.427,6.994,3.761,9.659&#xA;&#9;&#9;c-3.529-4.613-7.513-11.1-10.454-19.525c-6.644-19.024,9.957-37.599,9.957-37.599s-20.651,11.514-30.634,26.025&#xA;&#9;&#9;c0.547-3.047,1.044-6.285,1.433-9.698c3.977-35.086-10.628-54.951-10.628-54.951s1.989,46.458-21.902,74.767&#xA;&#9;&#9;c-12.889,15.278-21.918,22.688-27.501,26.276c-0.017-0.067-0.025-0.167-0.042-0.249c-0.688,1.214-1.466,2.413-2.37,3.587h142.14&#xA;&#9;&#9;C1084.151,1731.594,1081.501,1727.73,1079.984,1723.667z" transform="matrix(1, 0, 0, 1, 0, 0)"/><path clip-path="url(#SVGID_2_)" fill="#440E1D" d="M2346.194,1737.931c1.575-2.239,3.066-4.637,4.341-7.194&#xA;&#9;&#9;c6.528-13.18,8.558-28.717,8.558-28.717s6.154,16.736,6.038,28.751c2.07-2.357,4.01-4.846,5.732-7.436&#xA;&#9;&#9;c11.571-17.467,15.185-38.066,15.185-38.066s13.741,27.858,10.114,43.544c-1.168,5.08-2.635,9.451-4.092,13.057&#xA;&#9;&#9;c3.843-6.244,8.184-15.004,11.39-26.386c7.231-25.693-10.843-50.796-10.843-50.796s22.489,15.553,33.366,35.16&#xA;&#9;&#9;c-0.597-4.112-1.135-8.484-1.558-13.104c-4.34-47.392,11.572-74.226,11.572-74.226s-2.17,62.76,23.857,101.001&#xA;&#9;&#9;c14.049,20.641,23.881,30.648,29.961,35.494c0.018-0.092,0.034-0.226,0.051-0.333c0.746,1.64,1.592,3.263,2.576,4.846h-154.839&#xA;&#9;&#9;C2341.654,1748.638,2344.539,1743.409,2346.194,1737.931z" transform="matrix(1, 0, 0, 1, 0, 0)"/><path clip-path="url(#SVGID_2_)" fill="#440E1D" d="M2575.099,1743.884c-1.566-1.865-3.058-3.864-4.334-5.987&#xA;&#9;&#9;c-6.526-10.964-8.564-23.895-8.564-23.895s-6.163,13.928-6.048,23.919c-2.061-1.955-4.01-4.028-5.732-6.185&#xA;&#9;&#9;c-11.562-14.528-15.175-31.672-15.175-31.672s-13.742,23.179-10.122,36.233c1.176,4.221,2.642,7.86,4.091,10.856&#xA;&#9;&#9;c-3.844-5.195-8.184-12.479-11.382-21.946c-7.24-21.381,10.852-42.263,10.852-42.263s-22.497,12.939-33.374,29.25&#xA;&#9;&#9;c0.604-3.423,1.135-7.053,1.557-10.898c4.333-39.432-11.571-61.754-11.571-61.754s2.17,52.211-23.857,84.024&#xA;&#9;&#9;c-14.05,17.178-23.881,25.503-29.954,29.532c-0.017-0.075-0.032-0.183-0.049-0.274c-0.754,1.358-1.601,2.715-2.585,4.03h154.838&#xA;&#9;&#9;C2579.629,1752.783,2576.746,1748.438,2575.099,1743.884z" transform="matrix(1, 0, 0, 1, 0, 0)"/><path clip-path="url(#SVGID_2_)" fill="#440E1D" d="M1239.528,1765.805c7.521,11.716,15.267,19.857,21.786,25.387&#xA;&#9;&#9;c-2.004-11.048-4.738-28.95-6.445-51.438c-2.932-38.673,12.732-72.635,12.732-72.635s1.002,23.472,15.367,59.755&#xA;&#9;&#9;c4.879,12.323,4.97,14.139,11.663,22.23c3.264-13.888,1.69-8.067,4.589-26.069c9.411-58.446,33.897-70.944,33.897-70.944&#xA;&#9;&#9;s0,0-4.357,52.929c-2.833,34.478,7.604,60.587,15.226,74.606c-0.688-8.092-1.226-19.631-0.563-32.985&#xA;&#9;&#9;c1.292-26.153,20.932-51.612,20.932-51.612s-7.496,28.216-3.653,46.816c2.237,10.874,10.934,24.128,17.785,33.287&#xA;&#9;&#9;c0.323-0.825,0.646-1.748,0.969-2.64c1.897,4.97,4.325,9.749,7.273,14.245l-146.887,20.766l-7.72-55.176&#xA;&#9;&#9;C1234.21,1756.764,1236.629,1761.275,1239.528,1765.805z" transform="matrix(1, 0, 0, 1, 0, 0)"/><path clip-path="url(#SVGID_2_)" fill="#A9373B" d="M114.274,1732.401c4.241,7.185,8.697,12.239,12.483,15.702&#xA;&#9;&#9;c-0.945-6.66-2.179-17.459-2.709-30.973c-0.895-23.245,9.27-43.252,9.27-43.252s-2.129,14.961,5.657,37.034&#xA;&#9;&#9;c2.717,7.693,6.975,10.964,10.421,15.461c2.568-9.657,2.501-9.774,6.08-28.149c6.801-34.844,29.208-50.313,29.208-50.313&#xA;&#9;&#9;s-11.763,18.441-15.556,50.07c-2.469,20.6,3.189,36.484,7.446,45.06c-0.232-4.852-0.29-11.788,0.398-19.772&#xA;&#9;&#9;c1.367-15.646,13.71-30.465,13.71-30.465s-5.128,16.734-3.248,27.976c1.103,6.577,6.015,14.719,9.924,20.356&#xA;&#9;&#9;c0.216-0.483,0.423-1.041,0.63-1.565c1.035,3.022,2.377,5.953,4.043,8.718l-88.503,9.108l-3.396-33.246&#xA;&#9;&#9;C111.292,1726.848,112.633,1729.612,114.274,1732.401z" transform="matrix(1, 0, 0, 1, 0, 0)"/>
</svg>